{
.appVersion = "1230";
copyright = "Digitized data copyright The Monotype Corporation 1991-1995. All rights reserved.";
customParameters = (
{
name = description;
value = "With the advent of optical character recognition (OCR) systems, a need arose for typefaces whose characters could be easily distinguished by machines developed to read text. OCR-A is such a face that has been extended to the regular Win Ansi character set.";
},
{
name = trademark;
value = "\"\"";
},
{
name = licenseURL;
value = "http://www.monotype.com/html/mtname/ms_welcome.html";
},
{
name = license;
value = "Please contact the vendor to learn more about license restrictions.";
},
{
name = vendorID;
value = XXXX;
},
{
name = panose;
value = (
0,
0,
0,
0,
0,
0,
0,
0,
0,
0
);
},
{
name = unicodeRanges;
value = (
0,
1,
2,
3,
5,
7,
31,
33,
35,
38,
45,
60
);
},
{
name = codePageRanges;
value = (
1252
);
},
{
name = glyphOrder;
value = (
.notdef,
.null,
CR,
space,
exclam,
quotedbl,
numbersign,
dollar,
percent,
ampersand,
quotesingle,
parenleft,
parenright,
asterisk,
plus,
comma,
hyphen,
period,
slash,
zero,
one,
two,
three,
four,
five,
six,
seven,
eight,
nine,
colon,
semicolon,
less,
equal,
greater,
question,
at,
A,
B,
C,
D,
E,
F,
G,
H,
I,
J,
K,
L,
M,
N,
O,
P,
Q,
R,
S,
T,
U,
V,
W,
X,
Y,
Z,
bracketleft,
backslash,
bracketright,
asciicircum,
underscore,
grave,
a,
b,
c,
d,
e,
f,
g,
h,
i,
j,
k,
l,
m,
n,
o,
p,
q,
r,
s,
t,
u,
v,
w,
x,
y,
z,
braceleft,
bar,
braceright,
asciitilde,
nobreakspace,
exclamdown,
cent,
sterling,
currency,
yen,
brokenbar,
section,
dieresis,
copyright,
ordfeminine,
guillemotleft,
logicalnot,
uni00AD,
registered,
macron,
degree,
plusminus,
uni00B2,
uni00B3,
acute,
mu,
paragraph,
cedilla,
uni00B9,
ordmasculine,
guillemotright,
onequarter,
onehalf,
threequarters,
questiondown,
Agrave,
Aacute,
Acircumflex,
Atilde,
Adieresis,
Aring,
AE,
Ccedilla,
Egrave,
Eacute,
Ecircumflex,
Edieresis,
Igrave,
Iacute,
Icircumflex,
Idieresis,
Eth,
Ntilde,
Ograve,
Oacute,
Ocircumflex,
Otilde,
Odieresis,

glyphs = (
{
glyphname = .notdef;
layers = (
{
layerId = "A424063B-2B4F-44F1-8843-9BD652D5D076";
paths = (
{
closed = 1;
nodes = (
"432 0 OFFCURVE",
"432 0 QCURVE",
"432 700 OFFCURVE",
"432 700 QCURVE SMOOTH",
"0 700 OFFCURVE",
"0 700 QCURVE",
"0 0 OFFCURVE",
"0 0 QCURVE"
);
},
{
closed = 1;
nodes = (
"382 650 OFFCURVE",
"382 650 QCURVE",
"382 50 OFFCURVE",
"382 50 QCURVE SMOOTH",
"50 50 OFFCURVE",
"50 50 QCURVE",
"50 650 OFFCURVE",
"50 650 QCURVE"
);
}
);
width = 472;
}
);
note = .notdef;
},
{
glyphname = exclam;
layers = (
{
layerId = "A424063B-2B4F-44F1-8843-9BD652D5D076";
paths = (
{
closed = 1;
nodes = (
"713 592 LINE SMOOTH",
"710 556 OFFCURVE",
"662 508 OFFCURVE",
"629 508 QCURVE SMOOTH",
"591 508 OFFCURVE",
"569 533 QCURVE",
"544 559 OFFCURVE",
"543 592 QCURVE SMOOTH",
"502 1245 LINE SMOOTH",
"501 1279 OFFCURVE",
"551 1329 OFFCURVE",
"586 1329 QCURVE SMOOTH",
"670 1329 OFFCURVE",
"670 1329 QCURVE",
"705 1329 OFFCURVE",
"731 1303 QCURVE SMOOTH",
"756 1277 OFFCURVE",
"754 1243 QCURVE SMOOTH"
);
},
{
closed = 1;
nodes = (
"666 244 LINE SMOOTH",
"702 244 OFFCURVE",
"752 194 OFFCURVE",
"752 160 QCURVE SMOOTH",
"752 86 LINE SMOOTH",
"752 51 OFFCURVE",
"728 27 QCURVE SMOOTH",
"703 2 OFFCURVE",
"668 2 QCURVE SMOOTH",
"584 2 LINE SMOOTH",
"549 2 OFFCURVE",
"525 27 QCURVE",
"500 51 OFFCURVE",
"500 86 QCURVE SMOOTH",
"500 158 LINE",
"502 195 OFFCURVE",
"526 219 QCURVE SMOOTH",
"551 244 OFFCURVE",
"586 244 QCURVE SMOOTH"
);
}
);
width = 1237;
}
);
note = exclam;
unicode = 0021;
},
{
glyphname = quotedbl;
layers = (
{
layerId = "A424063B-2B4F-44F1-8843-9BD652D5D076";
paths = (
{
closed = 1;
nodes = (
"203 1331 LINE",
"1051 1331 LINE",
"1051 1253 LINE",
"967 801 LINE SMOOTH",
"952 729 OFFCURVE",
"881 729 QCURVE SMOOTH",
"810 729 OFFCURVE",
"797 801 QCURVE SMOOTH",
"725 1161 LINE",
"530 1161 LINE",
"457 799 LINE SMOOTH",
"440 727 OFFCURVE",
"373 727 QCURVE SMOOTH",
"300 727 OFFCURVE",
"287 799 QCURVE SMOOTH",
"203 1253 OFFCURVE",
"203 1253 QCURVE"
);
}
);
width = 1237;
}
);
note = quotedbl;
unicode = 0022;
},
{
glyphname = numbersign;
layers = (
{
layerId = "A424063B-2B4F-44F1-8843-9BD652D5D076";
paths = (
{
closed = 1;
nodes = (
"545 510 LINE",
"545 303 LINE SMOOTH",
"545 268 OFFCURVE",
"521 243 QCURVE SMOOTH",
"495 217 OFFCURVE",
"461 217 QCURVE SMOOTH",
"426 217 OFFCURVE",
"402 243 QCURVE",
"377 268 OFFCURVE",
"377 303 QCURVE SMOOTH",
"377 510 LINE",
"291 510 LINE SMOOTH",
"256 510 OFFCURVE",
"232 535 QCURVE",
"207 559 OFFCURVE",
"207 594 QCURVE SMOOTH",
"207 628 OFFCURVE",
"232 653 QCURVE SMOOTH",
"256 678 OFFCURVE",
"291 678 QCURVE SMOOTH",
"375 678 LINE",
"375 870 LINE",
"291 870 LINE SMOOTH",
"256 870 OFFCURVE",
"232 895 QCURVE",
"207 919 OFFCURVE",
"207 954 QCURVE SMOOTH",
"207 990 OFFCURVE",
"232 1014 QCURVE SMOOTH",
"256 1038 OFFCURVE",
"291 1038 QCURVE SMOOTH",
"377 1038 LINE",
"377 1245 LINE SMOOTH",
"377 1280 OFFCURVE",
"402 1305 QCURVE SMOOTH",
"426 1329 OFFCURVE",
"461 1329 QCURVE SMOOTH",
"495 1329 OFFCURVE",
"545 1279 OFFCURVE",
"545 1245 QCURVE SMOOTH",
"545 1038 LINE",
"713 1038 LINE",
"713 1245 LINE SMOOTH",
"713 1280 OFFCURVE",
"738 1305 QCURVE",
"764 1329 OFFCURVE",
"797 1329 QCURVE SMOOTH",
"833 1329 OFFCURVE",
"883 1279 OFFCURVE",
"883 1245 QCURVE SMOOTH",
"883 1038 LINE",
"969 1038 LINE SMOOTH",
"1002 1038 OFFCURVE",
"1028 1014 QCURVE",
"1053 989 OFFCURVE",
"1053 954 QCURVE SMOOTH",
"1053 918 OFFCURVE",
"1026 893 QCURVE SMOOTH",
"1000 868 OFFCURVE",
"969 868 QCURVE SMOOTH",
"885 868 LINE",
"885 678 LINE",
"969 678 LINE SMOOTH",
"1003 678 OFFCURVE",
"1053 628 OFFCURVE",
"1053 594 QCURVE SMOOTH",
"1053 562 OFFCURVE",
"1030 536 QCURVE SMOOTH",
"1006 510 OFFCURVE",
"969 510 QCURVE SMOOTH",
"883 510 LINE",
"883 303 LINE SMOOTH",
"883 268 OFFCURVE",
"858 243 QCURVE SMOOTH",
"832 217 OFFCURVE",
"797 217 QCURVE SMOOTH",
"764 217 OFFCURVE",
"738 243 QCURVE SMOOTH",
"713 268 OFFCURVE",
"713 303 QCURVE SMOOTH",
"713 510 OFFCURVE",
"713 510 QCURVE SMOOTH"
);
},
{
closed = 1;
nodes = (
"545 868 LINE",
"545 678 LINE",
"713 678 LINE",
"713 868 LINE"
);
}
);
width = 1237;
}
);
note = numbersign;
unicode = 0023;
},
{
glyphname = dollar;
layers = (
{
layerId = "A424063B-2B4F-44F1-8843-9BD652D5D076";
paths = (
{
closed = 1;
nodes = (
"1055 375 LINE SMOOTH",
"1055 341 OFFCURVE",
"1005 291 OFFCURVE",
"969 291 QCURVE SMOOTH",
"713 291 LINE",
"713 86 LINE SMOOTH",
"713 51 OFFCURVE",
"688 27 QCURVE SMOOTH",
"663 2 OFFCURVE",
"629 2 QCURVE SMOOTH",
"593 2 OFFCURVE",
"568 27 QCURVE SMOOTH",
"543 51 OFFCURVE",
"543 86 QCURVE SMOOTH",
"543 293 LINE",
"289 293 LINE SMOOTH",
"255 293 OFFCURVE",
"230 318 QCURVE SMOOTH",
"205 342 OFFCURVE",
"205 412 OFFCURVE",
"230 437 QCURVE SMOOTH",
"254 461 OFFCURVE",
"289 461 QCURVE SMOOTH",
"883 461 LINE",
"883 582 LINE",
"291 582 LINE SMOOTH",
"256 582 OFFCURVE",
"232 606 QCURVE SMOOTH",
"207 630 OFFCURVE",
"207 666 QCURVE SMOOTH",
"207 956 LINE SMOOTH",
"207 991 OFFCURVE",
"232 1016 QCURVE SMOOTH",
"256 1040 OFFCURVE",
"291 1040 QCURVE SMOOTH",
"543 1040 LINE",
"543 1245 LINE SMOOTH",
"543 1278 OFFCURVE",
"567 1304 QCURVE SMOOTH",
"589 1329 OFFCURVE",
"630 1329 QCURVE SMOOTH",
"664 1329 OFFCURVE",
"689 1305 QCURVE",
"713 1280 OFFCURVE",
"713 1245 QCURVE SMOOTH",
"713 1040 LINE",
"971 1040 LINE SMOOTH",
"1007 1040 OFFCURVE",
"1057 990 OFFCURVE",
"1057 956 QCURVE SMOOTH",
"1057 921 OFFCURVE",
"1032 896 QCURVE SMOOTH",
"1006 870 OFFCURVE",
"971 870 QCURVE SMOOTH",
"377 870 LINE",
"377 750 LINE",
"969 750 LINE SMOOTH",
"1005 750 OFFCURVE",
"1055 700 OFFCURVE",
"1055 666 QCURVE SMOOTH"
);
}
);
width = 1237;
}
);
note = dollar;
unicode = 0024;
},
{
glyphname = percent;
layers = (
{
layerId = "A424063B-2B4F-44F1-8843-9BD652D5D076";
paths = (
{
closed = 1;
nodes = (
"457 1329 LINE SMOOTH",
"493 1329 OFFCURVE",
"543 1279 OFFCURVE",
"543 1243 QCURVE SMOOTH",
"543 1098 LINE SMOOTH",
"543 1063 OFFCURVE",
"518 1038 QCURVE SMOOTH",
"492 1012 OFFCURVE",
"459 1012 QCURVE SMOOTH",
"285 1012 LINE SMOOTH",
"251 1012 OFFCURVE",
"203 1062 OFFCURVE",
"203 1096 QCURVE SMOOTH",
"203 1243 LINE SMOOTH",
"203 1279 OFFCURVE",
"253 1329 OFFCURVE",
"287 1329 QCURVE SMOOTH"
);
},
{
closed = 1;
nodes = (
"348 170 LINE SMOOTH",
"327 145 OFFCURVE",
"259 145 OFFCURVE",
"233 170 QCURVE",
"205 194 OFFCURVE",
"205 228 QCURVE SMOOTH",
"205 261 OFFCURVE",
"227 289 QCURVE SMOOTH",
"907 1157 LINE SMOOTH",
"928 1182 OFFCURVE",
"965 1182 QCURVE SMOOTH",
"1000 1182 OFFCURVE",
"1026 1159 QCURVE SMOOTH",
"1051 1137 OFFCURVE",
"1051 1100 QCURVE SMOOTH",
"1051 1067 OFFCURVE",
"1028 1036 QCURVE SMOOTH"
);
},
{
closed = 1;
nodes = (
"965 315 LINE SMOOTH",
"1000 315 OFFCURVE",
"1025 291 QCURVE SMOOTH",
"1049 267 OFFCURVE",
"1049 231 QCURVE SMOOTH",
"1049 84 LINE SMOOTH",
"1049 49 OFFCURVE",
"1025 25 QCURVE SMOOTH",
"1000 0 OFFCURVE",
"965 0 QCURVE SMOOTH",
"793 0 LINE SMOOTH",
"758 0 OFFCURVE",
"735 24 QCURVE SMOOTH",
"711 48 OFFCURVE",
"711 84 QCURVE SMOOTH",
"711 231 LINE SMOOTH",
"711 267 OFFCURVE",
"759 315 OFFCURVE",
"795 315 QCURVE SMOOTH"
);
}
);
width = 1237;
}
);
note = percent;
unicode = 0025;
},
{
glyphname = ampersand;
layers = (
{
layerId = "A424063B-2B4F-44F1-8843-9BD652D5D076";
paths = (
{
closed = 1;
nodes = (
"813 129 LINE",
"684 18 LINE",
"672 2 OFFCURVE",
"637 2 QCURVE SMOOTH",
"463 2 LINE SMOOTH",
"358 2 OFFCURVE",
"284 77 QCURVE SMOOTH",
"209 152 OFFCURVE",
"209 258 QCURVE SMOOTH",
"209 375 LINE SMOOTH",
"209 416 OFFCURVE",
"242 444 QCURVE SMOOTH",
"395 575 LINE",
"240 745 LINE SMOOTH",
"209 779 OFFCURVE",
"209 823 QCURVE SMOOTH",
"209 928 LINE SMOOTH",
"209 1032 OFFCURVE",
"359 1182 OFFCURVE",
"463 1182 QCURVE SMOOTH",
"633 1182 LINE SMOOTH",
"737 1182 OFFCURVE",
"887 1032 OFFCURVE",
"887 928 QCURVE SMOOTH",
"887 815 LINE SMOOTH",
"887 768 OFFCURVE",
"844 731 QCURVE SMOOTH",
"643 559 LINE",
"827 365 LINE",
"913 436 LINE",
"941 461 OFFCURVE",
"977 461 QCURVE SMOOTH",
"1011 461 OFFCURVE",
"1035 436 QCURVE",
"1058 410 OFFCURVE",
"1058 377 QCURVE SMOOTH",
"1058 342 OFFCURVE",
"1032 319 QCURVE SMOOTH",
"944 242 LINE",
"1032 143 LINE SMOOTH",
"1056 116 OFFCURVE",
"1056 48 OFFCURVE",
"1032 24 QCURVE",
"1006 0 OFFCURVE",
"972 0 QCURVE SMOOTH",
"937 0 OFFCURVE",
"913 25 QCURVE SMOOTH"
);
},
{
closed = 1;
nodes = (
"719 848 LINE",
"719 930 LINE SMOOTH",
"719 966 OFFCURVE",
"695 991 QCURVE SMOOTH",
"670 1016 OFFCURVE",
"635 1016 QCURVE SMOOTH",
"463 1016 LINE SMOOTH",
"428 1016 OFFCURVE",
"404 991 QCURVE SMOOTH",
"379 966 OFFCURVE",
"379 930 QCURVE SMOOTH",
"379 846 LINE",
"528 686 LINE"
);
},
{
closed = 1;
nodes = (
"379 336 LINE",
"379 254 LINE SMOOTH",
"379 219 OFFCURVE",
"404 195 QCURVE SMOOTH",
"429 170 OFFCURVE",
"463 170 QCURVE SMOOTH",
"600 170 LINE",
"696 254 LINE",
"514 451 LINE"
);
}
);
width = 1237;
}
);
note = ampersand;
unicode = 0026;
},
{
glyphname = quotesingle;
layers = (
{
layerId = "A424063B-2B4F-44F1-8843-9BD652D5D076";
paths = (
{
closed = 1;
nodes = (
"717 1329 LINE SMOOTH",
"752 1329 OFFCURVE",
"802 1279 OFFCURVE",
"802 1244 QCURVE SMOOTH",
"802 1234 OFFCURVE",
"799 1223 QCURVE SMOOTH",
"631 645 LINE SMOOTH",
"612 582 OFFCURVE",
"549 582 QCURVE SMOOTH",
"512 582 OFFCURVE",
"488 608 QCURVE",
"463 633 OFFCURVE",
"463 672 QCURVE SMOOTH",
"463 1235 OFFCURVE",
"463 1235 QCURVE",
"463 1275 OFFCURVE",
"487 1302 QCURVE SMOOTH",
"510 1329 OFFCURVE",
"551 1329 QCURVE SMOOTH"
);
}
);
width = 1237;
}
);
note = quotesingle;
unicode = 0027;
},
{
glyphname = parenleft;
layers = (
{
layerId = "A424063B-2B4F-44F1-8843-9BD652D5D076";
paths = (
{
closed = 1;
nodes = (
"629 502 LINE SMOOTH",
"629 436 OFFCURVE",
"668 387 QCURVE SMOOTH",
"868 131 LINE",
"883 114 OFFCURVE",
"883 83 QCURVE SMOOTH",
"883 43 OFFCURVE",
"831 -3 OFFCURVE",
"796 -3 QCURVE SMOOTH",
"759 -3 OFFCURVE",
"739 23 QCURVE SMOOTH",
"537 281 LINE SMOOTH",
"461 375 OFFCURVE",
"461 485 QCURVE SMOOTH",
"461 844 LINE SMOOTH",
"461 950 OFFCURVE",
"537 1047 QCURVE SMOOTH",
"739 1305 LINE SMOOTH",
"760 1331 OFFCURVE",
"795 1331 QCURVE SMOOTH",
"829 1331 OFFCURVE",
"857 1308 QCURVE",
"883 1285 OFFCURVE",
"883 1244 QCURVE SMOOTH",
"883 1214 OFFCURVE",
"868 1196 QCURVE SMOOTH",
"668 942 OFFCURVE",
"668 942 QCURVE",
"629 891 OFFCURVE",
"629 825 QCURVE SMOOTH"
);
}
);
width = 1237;
}
);
note = parenleft;
unicode = 0028;
},
{
glyphname = parenright;
layers = (
{
layerId = "A424063B-2B4F-44F1-8843-9BD652D5D076";
paths = (
{
closed = 1;
nodes = (
"643 827 LINE SMOOTH",
"643 889 OFFCURVE",
"602 942 QCURVE SMOOTH",
"401 1196 LINE",
"387 1216 OFFCURVE",
"387 1243 QCURVE SMOOTH",
"387 1282 OFFCURVE",
"414 1307 QCURVE SMOOTH",
"440 1331 OFFCURVE",
"474 1331 QCURVE SMOOTH",
"509 1331 OFFCURVE",
"530 1305 QCURVE SMOOTH",
"735 1047 LINE SMOOTH",
"809 953 OFFCURVE",
"809 844 QCURVE SMOOTH",
"809 485 LINE SMOOTH",
"809 373 OFFCURVE",
"735 281 QCURVE SMOOTH",
"530 23 LINE SMOOTH",
"509 -3 OFFCURVE",
"473 -3 QCURVE SMOOTH",
"438 -3 OFFCURVE",
"413 21 QCURVE SMOOTH",
"387 45 OFFCURVE",
"387 85 QCURVE SMOOTH",
"387 114 OFFCURVE",
"401 133 QCURVE SMOOTH",
"602 387 OFFCURVE",
"602 387 QCURVE",
"643 437 OFFCURVE",
"643 502 QCURVE SMOOTH"
);
}
);
width = 1237;
}
);
note = parenright;
unicode = 0029;
},
{
glyphname = asterisk;
layers = (
{
layerId = "A424063B-2B4F-44F1-8843-9BD652D5D076";
paths = (
{
closed = 1;
nodes = (
"568 850 LINE",
"568 1098 LINE SMOOTH",
"568 1131 OFFCURVE",
"594 1157 QCURVE SMOOTH",
"619 1182 OFFCURVE",
"654 1182 QCURVE SMOOTH",
"688 1182 OFFCURVE",
"738 1132 OFFCURVE",
"738 1098 QCURVE SMOOTH",
"738 846 LINE",
"934 1014 LINE",
"963 1037 OFFCURVE",
"998 1037 QCURVE SMOOTH",
"1035 1037 OFFCURVE",
"1057 1012 QCURVE SMOOTH",
"1080 986 OFFCURVE",
"1080 953 QCURVE SMOOTH",
"1080 917 OFFCURVE",
"1055 895 QCURVE SMOOTH",
"785 664 LINE",
"1053 434 LINE SMOOTH",
"1078 412 OFFCURVE",
"1078 377 QCURVE SMOOTH",
"1078 342 OFFCURVE",
"1054 317 QCURVE SMOOTH",
"1030 292 OFFCURVE",
"995 292 QCURVE SMOOTH",
"963 292 OFFCURVE",
"934 315 QCURVE",
"738 483 LINE",
"738 231 LINE SMOOTH",
"738 197 OFFCURVE",
"688 147 OFFCURVE",
"654 147 QCURVE SMOOTH",
"618 147 OFFCURVE",
"568 197 OFFCURVE",
"568 231 QCURVE SMOOTH",
"568 479 LINE",
"375 313 LINE SMOOTH",
"349 291 OFFCURVE",
"315 291 QCURVE SMOOTH",
"280 291 OFFCURVE",
"256 317 QCURVE",
"231 342 OFFCURVE",
"231 377 QCURVE SMOOTH",
"231 413 OFFCURVE",
"256 434 QCURVE SMOOTH",
"527 664 LINE",
"258 895 LINE SMOOTH",
"232 918 OFFCURVE",
"232 955 QCURVE SMOOTH",
"232 990 OFFCURVE",
"282 1040 OFFCURVE",
"350 1040 OFFCURVE",
"377 1016 QCURVE SMOOTH"
);
}
);
width = 1237;
}
);
note = asterisk;
unicode = 002A;
},
{
glyphname = plus;
layers = (
{
layerId = "A424063B-2B4F-44F1-8843-9BD652D5D076";
paths = (
{
closed = 1;
nodes = (
"545 752 LINE",
"545 1010 LINE SMOOTH",
"545 1044 OFFCURVE",
"570 1068 QCURVE SMOOTH",
"596 1092 OFFCURVE",
"631 1092 QCURVE SMOOTH",
"665 1092 OFFCURVE",
"713 1044 OFFCURVE",
"713 1010 QCURVE SMOOTH",
"713 752 LINE",
"971 752 LINE SMOOTH",
"1006 752 OFFCURVE",
"1032 728 QCURVE",
"1057 703 OFFCURVE",
"1057 633 OFFCURVE",
"1032 609 QCURVE SMOOTH",
"1007 584 OFFCURVE",
"971 584 QCURVE SMOOTH",
"715 584 LINE",
"715 326 LINE SMOOTH",
"715 290 OFFCURVE",
"665 240 OFFCURVE",
"629 240 QCURVE SMOOTH",
"594 240 OFFCURVE",
"570 265 QCURVE SMOOTH",
"545 290 OFFCURVE",
"545 326 QCURVE SMOOTH",
"545 584 LINE",
"287 584 LINE SMOOTH",
"253 584 OFFCURVE",
"228 609 QCURVE SMOOTH",
"203 633 OFFCURVE",
"203 668 QCURVE SMOOTH",
"203 702 OFFCURVE",
"253 752 OFFCURVE",
"287 752 QCURVE SMOOTH"
);
}
);
width = 1237;
}
);
note = plus;
unicode = 002B;
},
{
glyphname = comma;
layers = (
{
layerId = "A424063B-2B4F-44F1-8843-9BD652D5D076";
paths = (
{
closed = 1;
nodes = (
"883 86 LINE SMOOTH",
"883 51 OFFCURVE",
"859 27 QCURVE SMOOTH",
"834 2 OFFCURVE",
"764 2 OFFCURVE",
"740 27 QCURVE",
"715 51 OFFCURVE",
"715 86 QCURVE SMOOTH",
"715 438 LINE",
"459 438 LINE SMOOTH",
"424 438 OFFCURVE",
"400 464 QCURVE",
"375 489 OFFCURVE",
"375 524 QCURVE SMOOTH",
"375 558 OFFCURVE",
"425 608 OFFCURVE",
"459 608 QCURVE SMOOTH",
"799 608 OFFCURVE",
"799 608 QCURVE",
"834 608 OFFCURVE",
"859 583 QCURVE SMOOTH",
"883 558 OFFCURVE",
"883 522 QCURVE SMOOTH"
);
}
);
width = 1237;
}
);
note = comma;
unicode = 002C;
},
{
glyphname = hyphen;
layers = (
{
layerId = "A424063B-2B4F-44F1-8843-9BD652D5D076";
paths = (
{
closed = 1;
nodes = (
"1053 596 LINE SMOOTH",
"1053 562 OFFCURVE",
"1029 536 QCURVE",
"1003 510 OFFCURVE",
"969 510 QCURVE SMOOTH",
"291 510 LINE SMOOTH",
"256 510 OFFCURVE",
"232 536 QCURVE",
"207 561 OFFCURVE",
"207 596 QCURVE SMOOTH",
"207 670 LINE SMOOTH",
"207 705 OFFCURVE",
"232 730 QCURVE SMOOTH",
"256 754 OFFCURVE",
"291 754 QCURVE SMOOTH",
"969 754 OFFCURVE",
"969 754 QCURVE",
"1001 754 OFFCURVE",
"1027 731 QCURVE SMOOTH",
"1053 707 OFFCURVE",
"1053 670 QCURVE SMOOTH"
);
}
);
width = 1237;
}
);
note = hyphen;
unicode = 002D;
},
{
glyphname = period;
layers = (
{
layerId = "A424063B-2B4F-44F1-8843-9BD652D5D076";
paths = (
{
closed = 1;
nodes = (
"713 530 LINE SMOOTH",
"746 530 OFFCURVE",
"772 506 QCURVE",
"797 481 OFFCURVE",
"797 446 QCURVE SMOOTH",
"797 303 LINE SMOOTH",
"797 268 OFFCURVE",
"773 243 QCURVE SMOOTH",
"747 217 OFFCURVE",
"713 217 QCURVE SMOOTH",
"541 217 LINE SMOOTH",
"506 217 OFFCURVE",
"482 242 QCURVE SMOOTH",
"457 267 OFFCURVE",
"457 301 QCURVE SMOOTH",
"457 446 OFFCURVE",
"457 446 QCURVE",
"457 481 OFFCURVE",
"482 506 QCURVE",
"508 530 OFFCURVE",
"543 530 QCURVE SMOOTH"
);
}
);
width = 1237;
}
);
note = period;
unicode = 002E;
},
{
glyphname = slash;
layers = (
{
layerId = "A424063B-2B4F-44F1-8843-9BD652D5D076";
paths = (
{
closed = 1;
nodes = (
"368 25 LINE",
"351 -1 OFFCURVE",
"317 -1 QCURVE SMOOTH",
"285 -1 OFFCURVE",
"227 45 OFFCURVE",
"227 79 QCURVE SMOOTH",
"227 110 OFFCURVE",
"247 145 QCURVE SMOOTH",
"929 1303 LINE SMOOTH",
"946 1330 OFFCURVE",
"982 1330 QCURVE SMOOTH",
"1014 1330 OFFCURVE",
"1043 1309 QCURVE",
"1071 1287 OFFCURVE",
"1071 1252 QCURVE SMOOTH",
"1071 1218 OFFCURVE",
"1050 1184 QCURVE SMOOTH"
);
}
);
width = 1237;
}
);
note = slash;
unicode = 002F;
},
{
glyphname = zero;
layers = (
{
layerId = "A424063B-2B4F-44F1-8843-9BD652D5D076";
paths = (
{
closed = 1;
nodes = (
"203 1169 LINE SMOOTH",
"203 1235 OFFCURVE",
"299 1331 OFFCURVE",
"365 1331 QCURVE SMOOTH",
"889 1331 LINE SMOOTH",
"954 1331 OFFCURVE",
"1002 1283 QCURVE SMOOTH",
"1049 1234 OFFCURVE",
"1049 1169 QCURVE SMOOTH",
"1049 164 LINE SMOOTH",
"1049 97 OFFCURVE",
"1002 50 QCURVE SMOOTH",
"954 2 OFFCURVE",
"887 2 QCURVE SMOOTH",
"365 2 OFFCURVE",
"365 2 QCURVE SMOOTH",
"296 2 OFFCURVE",
"250 50 QCURVE SMOOTH",
"203 97 OFFCURVE",
"203 164 QCURVE SMOOTH"
);
},
{
closed = 1;
nodes = (
"883 170 LINE",
"883 1161 LINE",
"371 1161 LINE",
"371 170 LINE"
);
}
);
width = 1237;
}
);
note = zero;
unicode = 0030;
},
{
glyphname = one;
layers = (
{
layerId = "A424063B-2B4F-44F1-8843-9BD652D5D076";
paths = (
{
closed = 1;
nodes = (
"543 170 LINE",
"543 1161 LINE",
"289 1161 LINE SMOOTH",
"254 1161 OFFCURVE",
"230 1186 QCURVE",
"205 1210 OFFCURVE",
"205 1280 OFFCURVE",
"230 1305 QCURVE SMOOTH",
"254 1329 OFFCURVE",
"289 1329 QCURVE SMOOTH",
"711 1329 LINE",
"711 170 LINE",
"879 170 LINE",
"879 520 LINE SMOOTH",
"879 554 OFFCURVE",
"904 579 QCURVE SMOOTH",
"928 604 OFFCURVE",
"963 604 QCURVE SMOOTH",
"998 604 OFFCURVE",
"1023 580 QCURVE",
"1047 554 OFFCURVE",
"1047 520 QCURVE SMOOTH",
"1047 86 LINE SMOOTH",
"1047 51 OFFCURVE",
"1023 27 QCURVE SMOOTH",
"998 2 OFFCURVE",
"963 2 QCURVE SMOOTH",
"285 2 LINE SMOOTH",
"250 2 OFFCURVE",
"226 28 QCURVE",
"201 53 OFFCURVE",
"201 88 QCURVE SMOOTH",
"201 122 OFFCURVE",
"226 146 QCURVE SMOOTH",
"250 170 OFFCURVE",
"285 170 QCURVE SMOOTH"
);
}
);
width = 1237;
}
);
note = one;
unicode = 0031;
},
{
glyphname = two;
layers = (
{
layerId = "A424063B-2B4F-44F1-8843-9BD652D5D076";
paths = (
{
closed = 1;
nodes = (
"205 2 LINE",
"205 582 LINE SMOOTH",
"205 652 OFFCURVE",
"305 752 OFFCURVE",
"373 752 QCURVE SMOOTH",
"883 752 LINE",
"883 1161 LINE",
"283 1161 LINE SMOOTH",
"247 1161 OFFCURVE",
"223 1186 QCURVE SMOOTH",
"199 1210 OFFCURVE",
"199 1245 QCURVE SMOOTH",
"199 1280 OFFCURVE",
"223 1305 QCURVE SMOOTH",
"247 1329 OFFCURVE",
"283 1329 QCURVE SMOOTH",
"883 1329 LINE SMOOTH",
"954 1329 OFFCURVE",
"1003 1280 QCURVE SMOOTH",
"1053 1230 OFFCURVE",
"1053 1161 QCURVE SMOOTH",
"1053 752 LINE SMOOTH",
"1053 682 OFFCURVE",
"953 582 OFFCURVE",
"883 582 QCURVE SMOOTH",
"373 582 LINE",
"373 170 LINE",
"969 170 LINE SMOOTH",
"1002 170 OFFCURVE",
"1028 146 QCURVE",
"1053 121 OFFCURVE",
"1053 51 OFFCURVE",
"1028 27 QCURVE SMOOTH",
"1003 2 OFFCURVE",
"969 2 QCURVE SMOOTH"
);
}
);
width = 1237;
}
);
note = two;
unicode = 0032;
},
{
glyphname = three;
layers = (
{
layerId = "A424063B-2B4F-44F1-8843-9BD652D5D076";
paths = (
{
closed = 1;
nodes = (
"1053 846 LINE SMOOTH",
"1053 736 OFFCURVE",
"985 668 QCURVE",
"1055 591 OFFCURVE",
"1055 498 QCURVE SMOOTH",
"1055 170 LINE SMOOTH",
"1055 102 OFFCURVE",
"955 2 OFFCURVE",
"885 2 QCURVE SMOOTH",
"291 2 LINE SMOOTH",
"256 2 OFFCURVE",
"232 27 QCURVE",
"207 51 OFFCURVE",
"207 121 OFFCURVE",
"232 146 QCURVE SMOOTH",
"256 170 OFFCURVE",
"291 170 QCURVE SMOOTH",
"883 170 LINE",
"883 498 LINE SMOOTH",
"883 534 OFFCURVE",
"859 559 QCURVE SMOOTH",
"834 584 OFFCURVE",
"799 584 QCURVE SMOOTH",
"461 584 LINE SMOOTH",
"426 584 OFFCURVE",
"402 608 QCURVE SMOOTH",
"377 632 OFFCURVE",
"377 668 QCURVE SMOOTH",
"377 703 OFFCURVE",
"402 728 QCURVE SMOOTH",
"426 752 OFFCURVE",
"461 752 QCURVE SMOOTH",
"801 752 LINE SMOOTH",
"835 752 OFFCURVE",
"860 777 QCURVE SMOOTH",
"885 801 OFFCURVE",
"885 836 QCURVE SMOOTH",
"885 1161 LINE",
"285 1161 LINE SMOOTH",
"250 1161 OFFCURVE",
"226 1186 QCURVE",
"201 1210 OFFCURVE",
"201 1280 OFFCURVE",
"226 1305 QCURVE SMOOTH",
"250 1329 OFFCURVE",
"285 1329 QCURVE SMOOTH",
"885 1329 LINE SMOOTH",
"955 1329 OFFCURVE",
"1053 1231 OFFCURVE",
"1053 1161 QCURVE SMOOTH"
);
}
);
width = 1237;
}
);
note = three;
unicode = 0033;
},
{
glyphname = four;
layers = (
{
layerId = "A424063B-2B4F-44F1-8843-9BD652D5D076";
paths = (
{
closed = 1;
nodes = (
"756 436 LINE",
"250 436 LINE",
"250 1245 LINE SMOOTH",
"250 1280 OFFCURVE",
"276 1306 QCURVE SMOOTH",
"301 1331 OFFCURVE",
"336 1331 QCURVE SMOOTH",
"370 1331 OFFCURVE",
"420 1281 OFFCURVE",
"420 1245 QCURVE SMOOTH",
"420 606 LINE",
"756 606 LINE",
"756 1098 LINE SMOOTH",
"756 1134 OFFCURVE",
"781 1159 QCURVE SMOOTH",
"805 1184 OFFCURVE",
"875 1184 OFFCURVE",
"900 1159 QCURVE SMOOTH",
"924 1134 OFFCURVE",
"924 1098 QCURVE SMOOTH",
"924 606 LINE",
"958 606 OFFCURVE",
"984 582 QCURVE",
"1008 556 OFFCURVE",
"1008 522 QCURVE SMOOTH",
"1008 487 OFFCURVE",
"984 463 QCURVE SMOOTH",
"959 438 OFFCURVE",
"924 438 QCURVE",
"924 86 LINE SMOOTH",
"924 51 OFFCURVE",
"899 27 QCURVE SMOOTH",
"874 2 OFFCURVE",
"840 2 QCURVE SMOOTH",
"805 2 OFFCURVE",
"781 27 QCURVE",
"756 51 OFFCURVE",
"756 86 QCURVE SMOOTH"
);
}
);
width = 1237;
}
);
note = four;
unicode = 0034;
},
{
glyphname = five;
layers = (
{
layerId = "A424063B-2B4F-44F1-8843-9BD652D5D076";
paths = (
{
closed = 1;
nodes = (
"903 170 LINE",
"903 582 LINE",
"395 582 LINE",
"395 1329 LINE",
"987 1329 LINE SMOOTH",
"1021 1329 OFFCURVE",
"1071 1279 OFFCURVE",
"1071 1245 QCURVE SMOOTH",
"1071 1210 OFFCURVE",
"1047 1186 QCURVE SMOOTH",
"1022 1161 OFFCURVE",
"987 1161 QCURVE SMOOTH",
"565 1161 LINE",
"565 750 LINE",
"903 750 LINE SMOOTH",
"971 750 OFFCURVE",
"1071 650 OFFCURVE",
"1071 582 QCURVE SMOOTH",
"1071 170 LINE SMOOTH",
"1071 101 OFFCURVE",
"1022 52 QCURVE SMOOTH",
"972 2 OFFCURVE",
"903 2 QCURVE SMOOTH",
"514 2 LINE SMOOTH",
"460 2 OFFCURVE",
"403 27 QCURVE SMOOTH",
"276 80 LINE SMOOTH",
"225 101 OFFCURVE",
"225 160 QCURVE SMOOTH",
"225 194 OFFCURVE",
"248 220 QCURVE SMOOTH",
"270 244 OFFCURVE",
"304 244 QCURVE SMOOTH",
"329 244 OFFCURVE",
"362 229 QCURVE SMOOTH",
"473 182 OFFCURVE",
"473 182 QCURVE",
"492 170 OFFCURVE",
"514 170 QCURVE SMOOTH"
);
}
);
width = 1237;
}
);
note = five;
unicode = 0035;
},
{
glyphname = six;
layers = (
{
layerId = "A424063B-2B4F-44F1-8843-9BD652D5D076";
paths = (
{
closed = 1;
nodes = (
"377 1329 LINE SMOOTH",
"412 1329 OFFCURVE",
"437 1304 QCURVE",
"461 1278 OFFCURVE",
"461 1245 QCURVE SMOOTH",
"461 1210 OFFCURVE",
"437 1186 QCURVE SMOOTH",
"412 1161 OFFCURVE",
"377 1161 QCURVE",
"377 606 LINE",
"969 606 LINE SMOOTH",
"1003 606 OFFCURVE",
"1053 556 OFFCURVE",
"1053 520 QCURVE SMOOTH",
"1053 86 LINE SMOOTH",
"1053 51 OFFCURVE",
"1028 27 QCURVE SMOOTH",
"1003 2 OFFCURVE",
"967 2 QCURVE SMOOTH",
"293 2 LINE SMOOTH",
"258 2 OFFCURVE",
"233 27 QCURVE SMOOTH",
"207 53 OFFCURVE",
"207 86 QCURVE SMOOTH",
"207 1245 OFFCURVE",
"207 1245 QCURVE",
"207 1280 OFFCURVE",
"232 1305 QCURVE",
"258 1329 OFFCURVE",
"293 1329 QCURVE SMOOTH"
);
},
{
closed = 1;
nodes = (
"375 436 LINE",
"375 170 LINE",
"883 170 LINE",
"883 436 LINE"
);
}
);
width = 1237;
}
);
note = six;
unicode = 0036;
},
{
glyphname = seven;
layers = (
{
layerId = "A424063B-2B4F-44F1-8843-9BD652D5D076";
paths = (
{
closed = 1;
nodes = (
"203 1243 LINE SMOOTH",
"203 1278 OFFCURVE",
"228 1303 QCURVE SMOOTH",
"252 1327 OFFCURVE",
"287 1327 QCURVE SMOOTH",
"1049 1327 LINE",
"1049 811 LINE SMOOTH",
"1049 770 OFFCURVE",
"1018 743 QCURVE SMOOTH",
"709 479 LINE",
"709 88 LINE SMOOTH",
"709 54 OFFCURVE",
"685 28 QCURVE",
"659 2 OFFCURVE",
"625 2 QCURVE SMOOTH",
"590 2 OFFCURVE",
"565 27 QCURVE SMOOTH",
"539 53 OFFCURVE",
"539 86 QCURVE SMOOTH",
"539 510 LINE SMOOTH",
"539 558 OFFCURVE",
"569 584 QCURVE SMOOTH",
"879 846 LINE",
"879 1159 LINE",
"371 1159 LINE",
"353 1087 OFFCURVE",
"287 1087 QCURVE SMOOTH",
"252 1087 OFFCURVE",
"228 1112 QCURVE",
"203 1136 OFFCURVE",
"203 1171 QCURVE SMOOTH"
);
}
);
width = 1237;
}
);
note = seven;
unicode = 0037;
},
{
glyphname = eight;
layers = (
{
layerId = "A424063B-2B4F-44F1-8843-9BD652D5D076";
paths = (
{
closed = 1;
nodes = (
"201 582 LINE SMOOTH",
"201 651 OFFCURVE",
"251 701 QCURVE SMOOTH",
"300 750 OFFCURVE",
"371 750 QCURVE",
"371 1245 LINE SMOOTH",
"371 1280 OFFCURVE",
"395 1305 QCURVE SMOOTH",
"419 1329 OFFCURVE",
"455 1329 QCURVE SMOOTH",
"797 1329 LINE SMOOTH",
"832 1329 OFFCURVE",
"857 1305 QCURVE",
"881 1280 OFFCURVE",
"881 1245 QCURVE SMOOTH",
"881 750 LINE",
"950 750 OFFCURVE",
"999 702 QCURVE SMOOTH",
"1049 652 OFFCURVE",
"1049 582 QCURVE SMOOTH",
"1049 170 LINE SMOOTH",
"1049 102 OFFCURVE",
"949 2 OFFCURVE",
"881 2 QCURVE SMOOTH",
"371 2 OFFCURVE",
"371 2 QCURVE SMOOTH",
"300 2 OFFCURVE",
"251 54 QCURVE SMOOTH",
"201 107 OFFCURVE",
"201 172 QCURVE SMOOTH"
);
},
{
closed = 1;
nodes = (
"539 1161 LINE",
"539 750 LINE",
"713 750 LINE",
"713 1161 LINE"
);
},
{
closed = 1;
nodes = (
"371 582 LINE",
"371 170 LINE",
"881 170 LINE",
"881 582 LINE"
);
}
);
width = 1237;
}
);
note = eight;
unicode = 0038;
},
{
glyphname = nine;
layers = (
{
layerId = "A424063B-2B4F-44F1-8843-9BD652D5D076";
paths = (
{
closed = 1;
nodes = (
"885 4 LINE SMOOTH",
"851 4 OFFCURVE",
"826 29 QCURVE SMOOTH",
"801 53 OFFCURVE",
"801 123 OFFCURVE",
"826 148 QCURVE SMOOTH",
"850 172 OFFCURVE",
"885 172 QCURVE",
"885 727 LINE",
"293 727 LINE SMOOTH",
"259 727 OFFCURVE",
"209 777 OFFCURVE",
"209 811 QCURVE SMOOTH",
"209 1247 LINE SMOOTH",
"209 1281 OFFCURVE",
"259 1331 OFFCURVE",
"293 1331 QCURVE SMOOTH",
"969 1331 LINE SMOOTH",
"1003 1331 OFFCURVE",
"1053 1281 OFFCURVE",
"1053 1247 QCURVE SMOOTH",
"1053 88 OFFCURVE",
"1053 88 QCURVE",
"1053 53 OFFCURVE",
"1029 29 QCURVE SMOOTH",
"1004 4 OFFCURVE",
"969 4 QCURVE SMOOTH"
);
},
{
closed = 1;
nodes = (
"887 897 LINE",
"887 1161 LINE",
"377 1161 LINE",
"377 897 LINE"
);
}
);
width = 1237;
}
);
note = nine;
unicode = 0039;
},
{
glyphname = colon;
layers = (
{
layerId = "A424063B-2B4F-44F1-8843-9BD652D5D076";
paths = (
{
closed = 1;
nodes = (
"713 1110 LINE SMOOTH",
"748 1110 OFFCURVE",
"774 1083 QCURVE SMOOTH",
"799 1057 OFFCURVE",
"799 1026 QCURVE SMOOTH",
"799 881 LINE SMOOTH",
"799 847 OFFCURVE",
"749 797 OFFCURVE",
"715 797 QCURVE SMOOTH",
"543 797 LINE SMOOTH",
"508 797 OFFCURVE",
"485 821 QCURVE SMOOTH",
"461 845 OFFCURVE",
"461 881 QCURVE SMOOTH",
"461 1026 OFFCURVE",
"461 1026 QCURVE",
"461 1060 OFFCURVE",
"486 1085 QCURVE SMOOTH",
"510 1110 OFFCURVE",
"545 1110 QCURVE SMOOTH"
);
},
{
closed = 1;
nodes = (
"713 530 LINE SMOOTH",
"748 530 OFFCURVE",
"774 506 QCURVE",
"799 481 OFFCURVE",
"799 446 QCURVE SMOOTH",
"799 303 LINE SMOOTH",
"799 268 OFFCURVE",
"774 243 QCURVE SMOOTH",
"748 217 OFFCURVE",
"715 217 QCURVE SMOOTH",
"543 217 LINE SMOOTH",
"507 217 OFFCURVE",
"485 242 QCURVE SMOOTH",
"461 268 OFFCURVE",
"461 301 QCURVE SMOOTH",
"461 446 LINE SMOOTH",
"461 482 OFFCURVE",
"486 506 QCURVE SMOOTH",
"510 530 OFFCURVE",
"545 530 QCURVE SMOOTH"
);
}
);
width = 1237;
}
);
note = colon;
unicode = 003A;
},
{
glyphname = semicolon;
layers = (
{
layerId = "A424063B-2B4F-44F1-8843-9BD652D5D076";
paths = (
{
closed = 1;
nodes = (
"627 1186 LINE SMOOTH",
"662 1186 OFFCURVE",
"687 1162 QCURVE",
"711 1136 OFFCURVE",
"711 1102 QCURVE SMOOTH",
"711 958 LINE SMOOTH",
"711 923 OFFCURVE",
"687 899 QCURVE SMOOTH",
"662 874 OFFCURVE",
"627 874 QCURVE SMOOTH",
"457 874 LINE SMOOTH",
"422 874 OFFCURVE",
"398 899 QCURVE",
"373 923 OFFCURVE",
"373 958 QCURVE SMOOTH",
"373 1102 LINE SMOOTH",
"373 1136 OFFCURVE",
"423 1186 OFFCURVE",
"457 1186 QCURVE SMOOTH"
);
},
{
closed = 1;
nodes = (
"877 86 LINE SMOOTH",
"877 51 OFFCURVE",
"852 27 QCURVE SMOOTH",
"827 2 OFFCURVE",
"793 2 QCURVE SMOOTH",
"757 2 OFFCURVE",
"732 27 QCURVE SMOOTH",
"707 51 OFFCURVE",
"707 86 QCURVE SMOOTH",
"707 438 LINE",
"451 438 LINE SMOOTH",
"417 438 OFFCURVE",
"393 464 QCURVE SMOOTH",
"369 490 OFFCURVE",
"369 524 QCURVE SMOOTH",
"369 558 OFFCURVE",
"394 583 QCURVE SMOOTH",
"418 608 OFFCURVE",
"453 608 QCURVE SMOOTH",
"793 608 LINE SMOOTH",
"827 608 OFFCURVE",
"877 558 OFFCURVE",
"877 522 QCURVE SMOOTH"
);
}
);
width = 1237;
}
);
note = semicolon;
unicode = 003B;
},
{
glyphname = less;
layers = (
{
layerId = "A424063B-2B4F-44F1-8843-9BD652D5D076";
paths = (
{
closed = 1;
nodes = (
"207 698 LINE SMOOTH",
"207 748 OFFCURVE",
"258 778 QCURVE SMOOTH",
"920 1169 LINE",
"947 1187 OFFCURVE",
"974 1187 QCURVE SMOOTH",
"1007 1187 OFFCURVE",
"1057 1137 OFFCURVE",
"1057 1101 QCURVE SMOOTH",
"1057 1054 OFFCURVE",
"1020 1032 QCURVE SMOOTH",
"401 666 LINE",
"1020 301 LINE",
"1057 277 OFFCURVE",
"1057 230 QCURVE SMOOTH",
"1057 194 OFFCURVE",
"1007 144 OFFCURVE",
"974 144 QCURVE SMOOTH",
"948 144 OFFCURVE",
"920 162 QCURVE",
"258 553 OFFCURVE",
"258 553 QCURVE",
"207 582 OFFCURVE",
"207 633 QCURVE SMOOTH"
);
}
);
width = 1237;
}
);
note = less;
unicode = 003C;
},
{
glyphname = equal;
layers = (
{
layerId = "A424063B-2B4F-44F1-8843-9BD652D5D076";
paths = (
{
closed = 1;
nodes = (
"287 799 LINE SMOOTH",
"253 799 OFFCURVE",
"203 849 OFFCURVE",
"203 917 OFFCURVE",
"253 967 OFFCURVE",
"287 967 QCURVE SMOOTH",
"967 967 LINE SMOOTH",
"1002 967 OFFCURVE",
"1027 943 QCURVE",
"1051 918 OFFCURVE",
"1051 883 QCURVE SMOOTH",
"1051 848 OFFCURVE",
"1027 824 QCURVE SMOOTH",
"1002 799 OFFCURVE",
"967 799 QCURVE SMOOTH"
);
},
{
closed = 1;
nodes = (
"287 436 LINE SMOOTH",
"254 436 OFFCURVE",
"228 462 QCURVE SMOOTH",
"203 487 OFFCURVE",
"203 557 OFFCURVE",
"228 582 QCURVE",
"254 606 OFFCURVE",
"287 606 QCURVE SMOOTH",
"967 606 LINE SMOOTH",
"1001 606 OFFCURVE",
"1051 556 OFFCURVE",
"1051 522 QCURVE SMOOTH",
"1051 488 OFFCURVE",
"1027 462 QCURVE",
"1001 436 OFFCURVE",
"967 436 QCURVE SMOOTH"
);
}
);
width = 1237;
}
);
note = equal;
unicode = 003D;
},
{
glyphname = greater;
layers = (
{
layerId = "A424063B-2B4F-44F1-8843-9BD652D5D076";
paths = (
{
closed = 1;
nodes = (
"1078 633 LINE SMOOTH",
"1078 581 OFFCURVE",
"1029 553 QCURVE SMOOTH",
"367 162 LINE SMOOTH",
"338 144 OFFCURVE",
"312 144 QCURVE SMOOTH",
"280 144 OFFCURVE",
"255 168 QCURVE SMOOTH",
"229 192 OFFCURVE",
"229 229 QCURVE SMOOTH",
"229 276 OFFCURVE",
"267 299 QCURVE SMOOTH",
"885 666 LINE",
"267 1030 LINE SMOOTH",
"229 1054 OFFCURVE",
"229 1102 QCURVE SMOOTH",
"229 1139 OFFCURVE",
"255 1163 QCURVE SMOOTH",
"280 1187 OFFCURVE",
"312 1187 QCURVE SMOOTH",
"337 1187 OFFCURVE",
"367 1169 QCURVE SMOOTH",
"1029 778 OFFCURVE",
"1029 778 QCURVE",
"1078 750 OFFCURVE",
"1078 698 QCURVE SMOOTH"
);
}
);
width = 1237;
}
);
note = greater;
unicode = 003E;
},
{
glyphname = question;
layers = (
{
layerId = "A424063B-2B4F-44F1-8843-9BD652D5D076";
paths = (
{
closed = 1;
nodes = (
"567 479 LINE",
"567 375 LINE SMOOTH",
"567 341 OFFCURVE",
"517 291 OFFCURVE",
"483 291 QCURVE SMOOTH",
"448 291 OFFCURVE",
"424 316 QCURVE SMOOTH",
"399 341 OFFCURVE",
"399 375 QCURVE SMOOTH",
"399 514 LINE SMOOTH",
"399 559 OFFCURVE",
"425 582 QCURVE SMOOTH",
"905 995 LINE",
"905 1057 LINE",
"821 1133 LINE",
"374 750 LINE SMOOTH",
"343 724 OFFCURVE",
"312 724 QCURVE SMOOTH",
"280 724 OFFCURVE",
"255 748 QCURVE SMOOTH",
"229 772 OFFCURVE",
"229 810 QCURVE SMOOTH",
"229 851 OFFCURVE",
"251 870 QCURVE SMOOTH",
"767 1309 LINE SMOOTH",
"789 1328 OFFCURVE",
"823 1328 QCURVE SMOOTH",
"854 1328 OFFCURVE",
"874 1311 QCURVE SMOOTH",
"1046 1161 LINE",
"1075 1138 OFFCURVE",
"1075 1098 QCURVE SMOOTH",
"1075 954 OFFCURVE",
"1075 954 QCURVE",
"1075 917 OFFCURVE",
"1052 897 QCURVE SMOOTH"
);
},
{
closed = 1;
nodes = (
"565 122 OFFCURVE",
"565 86 QCURVE SMOOTH",
"565 51 OFFCURVE",
"541 27 QCURVE SMOOTH",
"516 2 OFFCURVE",
"446 2 OFFCURVE",
"422 27 QCURVE",
"397 51 OFFCURVE",
"397 86 QCURVE SMOOTH",
"397 122 OFFCURVE",
"422 147 QCURVE SMOOTH",
"446 172 OFFCURVE",
"516 172 OFFCURVE",
"541 147 QCURVE SMOOTH"
);
}
);
width = 1237;
}
);
note = question;
unicode = 003F;
},
{
glyphname = at;
layers = (
{
layerId = "A424063B-2B4F-44F1-8843-9BD652D5D076";
paths = (
{
closed = 1;
nodes = (
"885 1040 LINE SMOOTH",
"885 1087 OFFCURVE",
"811 1161 OFFCURVE",
"764 1161 QCURVE SMOOTH",
"506 1161 LINE SMOOTH",
"448 1161 OFFCURVE",
"423 1140 QCURVE SMOOTH",
"397 1118 OFFCURVE",
"370 1068 QCURVE SMOOTH",
"342 1016 OFFCURVE",
"293 1016 QCURVE SMOOTH",
"254 1016 OFFCURVE",
"231 1040 QCURVE SMOOTH",
"207 1064 OFFCURVE",
"207 1096 QCURVE SMOOTH",
"207 1160 OFFCURVE",
"289 1245 QCURVE SMOOTH",
"370 1329 OFFCURVE",
"481 1329 QCURVE SMOOTH",
"768 1329 LINE SMOOTH",
"879 1329 OFFCURVE",
"966 1242 QCURVE SMOOTH",
"1053 1154 OFFCURVE",
"1053 1034 QCURVE SMOOTH",
"1053 244 LINE SMOOTH",
"1053 150 OFFCURVE",
"905 2 OFFCURVE",
"805 2 QCURVE SMOOTH",
"700 2 OFFCURVE",
"633 68 QCURVE",
"567 2 OFFCURVE",
"463 2 QCURVE SMOOTH",
"356 2 OFFCURVE",
"283 77 QCURVE SMOOTH",
"209 153 OFFCURVE",
"209 244 QCURVE SMOOTH",
"209 567 LINE SMOOTH",
"209 671 OFFCURVE",
"284 746 QCURVE SMOOTH",
"358 821 OFFCURVE",
"463 821 QCURVE SMOOTH",
"627 821 LINE SMOOTH",
"717 821 OFFCURVE",
"717 731 QCURVE SMOOTH",
"717 254 LINE SMOOTH",
"717 219 OFFCURVE",
"742 195 QCURVE",
"766 170 OFFCURVE",
"801 170 QCURVE SMOOTH",
"835 170 OFFCURVE",
"860 195 QCURVE SMOOTH",
"885 219 OFFCURVE",
"885 254 QCURVE SMOOTH"
);
},
{
closed = 1;
nodes = (
"549 653 LINE",
"473 653 LINE SMOOTH",
"379 653 OFFCURVE",
"379 559 QCURVE SMOOTH",
"379 254 LINE SMOOTH",
"379 219 OFFCURVE",
"404 195 QCURVE SMOOTH",
"429 170 OFFCURVE",
"463 170 QCURVE SMOOTH",
"499 170 OFFCURVE",
"524 195 QCURVE SMOOTH",
"549 219 OFFCURVE",
"549 254 QCURVE SMOOTH"
);
}
);
width = 1237;
}
);
note = at;
unicode = 0040;
},
{
glyphname = A;
layers = (
{
layerId = "A424063B-2B4F-44F1-8843-9BD652D5D076";
paths = (
{
closed = 1;
nodes = (
"552 1266 LINE SMOOTH",
"572 1329 OFFCURVE",
"636 1329 QCURVE SMOOTH",
"697 1329 OFFCURVE",
"714 1276 QCURVE SMOOTH",
"1049 109 LINE",
"1053 97 OFFCURVE",
"1053 84 QCURVE SMOOTH",
"1053 49 OFFCURVE",
"1029 25 QCURVE SMOOTH",
"1005 0 OFFCURVE",
"974 0 QCURVE SMOOTH",
"908 0 OFFCURVE",
"890 61 QCURVE SMOOTH",
"822 289 LINE",
"439 289 LINE",
"365 45 LINE",
"362 28 OFFCURVE",
"340 15 QCURVE",
"318 0 OFFCURVE",
"292 0 QCURVE SMOOTH",
"255 0 OFFCURVE",
"207 50 OFFCURVE",
"207 86 QCURVE SMOOTH",
"207 99 OFFCURVE",
"212 117 QCURVE SMOOTH"
);
},
{
closed = 1;
nodes = (
"634 940 LINE",
"490 459 LINE",
"773 459 LINE"
);
}
);
width = 1237;
}
);
note = A;
unicode = 0041;
},
{
glyphname = B;
layers = (
{
layerId = "A424063B-2B4F-44F1-8843-9BD652D5D076";
paths = (
{
closed = 1;
nodes = (
"1053 338 LINE SMOOTH",
"1053 200 OFFCURVE",
"955 100 QCURVE SMOOTH",
"856 0 OFFCURVE",
"717 0 QCURVE SMOOTH",
"203 0 LINE",
"203 1329 LINE",
"717 1329 LINE SMOOTH",
"856 1329 OFFCURVE",
"955 1230 QCURVE SMOOTH",
"1053 1130 OFFCURVE",
"1053 991 QCURVE SMOOTH",
"1053 920 LINE SMOOTH",
"1053 771 OFFCURVE",
"938 666 QCURVE",
"1053 560 OFFCURVE",
"1053 412 QCURVE SMOOTH"
);
},
{
closed = 1;
nodes = (
"881 991 LINE SMOOTH",
"881 1062 OFFCURVE",
"832 1111 QCURVE SMOOTH",
"782 1161 OFFCURVE",
"713 1161 QCURVE SMOOTH",
"371 1161 LINE",
"371 754 LINE",
"713 754 LINE SMOOTH",
"781 754 OFFCURVE",
"881 854 OFFCURVE",
"881 922 QCURVE SMOOTH"
);
},
{
closed = 1;
nodes = (
"881 408 LINE SMOOTH",
"881 479 OFFCURVE",
"832 528 QCURVE SMOOTH",
"782 578 OFFCURVE",
"713 578 QCURVE SMOOTH",
"373 578 LINE",
"373 170 LINE",
"713 170 LINE SMOOTH",
"781 170 OFFCURVE",
"881 270 OFFCURVE",
"881 338 QCURVE SMOOTH"
);
}
);
width = 1237;
}
);
note = B;
unicode = 0042;
},
{
glyphname = C;
layers = (
{
layerId = "A424063B-2B4F-44F1-8843-9BD652D5D076";
paths = (
{
closed = 1;
nodes = (
"971 168 LINE SMOOTH",
"1006 168 OFFCURVE",
"1032 144 QCURVE",
"1057 119 OFFCURVE",
"1057 49 OFFCURVE",
"1032 25 QCURVE SMOOTH",
"1007 0 OFFCURVE",
"971 0 QCURVE SMOOTH",
"657 0 LINE SMOOTH",
"598 0 OFFCURVE",
"533 38 QCURVE SMOOTH",
"471 74 OFFCURVE",
"444 123 QCURVE SMOOTH",
"250 498 LINE SMOOTH",
"211 579 OFFCURVE",
"211 664 QCURVE SMOOTH",
"211 759 OFFCURVE",
"248 827 QCURVE SMOOTH",
"444 1198 LINE SMOOTH",
"472 1249 OFFCURVE",
"531 1290 QCURVE SMOOTH",
"590 1329 OFFCURVE",
"645 1329 QCURVE SMOOTH",
"977 1329 LINE SMOOTH",
"1012 1329 OFFCURVE",
"1037 1304 QCURVE",
"1061 1278 OFFCURVE",
"1061 1245 QCURVE SMOOTH",
"1061 1210 OFFCURVE",
"1037 1185 QCURVE SMOOTH",
"1011 1159 OFFCURVE",
"977 1159 QCURVE SMOOTH",
"657 1159 LINE SMOOTH",
"618 1159 OFFCURVE",
"592 1112 QCURVE SMOOTH",
"406 764 LINE SMOOTH",
"384 724 OFFCURVE",
"384 667 QCURVE SMOOTH",
"384 608 OFFCURVE",
"408 563 QCURVE SMOOTH",
"586 221 OFFCURVE",
"586 221 QCURVE",
"612 168 OFFCURVE",
"668 168 QCURVE SMOOTH"
);
}
);
width = 1237;
}
);
note = C;
unicode = 0043;
},
{
glyphname = D;
layers = (
{
layerId = "A424063B-2B4F-44F1-8843-9BD652D5D076";
paths = (
{
closed = 1;
nodes = (
"621 1329 LINE SMOOTH",
"687 1327 OFFCURVE",
"748 1287 QCURVE SMOOTH",
"810 1246 OFFCURVE",
"838 1188 QCURVE SMOOTH",
"1004 852 LINE SMOOTH",
"1051 760 OFFCURVE",
"1051 662 QCURVE SMOOTH",
"1051 571 OFFCURVE",
"1001 473 QCURVE SMOOTH",
"834 141 LINE SMOOTH",
"803 77 OFFCURVE",
"742 39 QCURVE SMOOTH",
"682 0 OFFCURVE",
"608 0 QCURVE SMOOTH",
"287 0 LINE SMOOTH",
"252 0 OFFCURVE",
"228 25 QCURVE SMOOTH",
"203 50 OFFCURVE",
"203 84 QCURVE SMOOTH",
"203 120 OFFCURVE",
"228 145 QCURVE SMOOTH",
"252 170 OFFCURVE",
"287 170 QCURVE SMOOTH",
"375 170 LINE",
"375 1159 LINE",
"289 1159 LINE SMOOTH",
"254 1159 OFFCURVE",
"230 1185 QCURVE",
"205 1210 OFFCURVE",
"205 1245 QCURVE SMOOTH",
"205 1279 OFFCURVE",
"230 1304 QCURVE SMOOTH",
"254 1329 OFFCURVE",
"289 1329 QCURVE SMOOTH"
);
},
{
closed = 1;
nodes = (
"543 1159 LINE",
"543 168 LINE",
"602 168 LINE SMOOTH",
"658 168 OFFCURVE",
"686 223 QCURVE SMOOTH",
"852 553 LINE SMOOTH",
"883 616 OFFCURVE",
"883 662 QCURVE SMOOTH",
"883 717 OFFCURVE",
"858 766 QCURVE SMOOTH",
"686 1108 LINE SMOOTH",
"659 1159 OFFCURVE",
"598 1159 QCURVE SMOOTH"
);
}
);
width = 1237;
}
);
note = D;
unicode = 0044;
},
{
glyphname = E;
layers = (
{
layerId = "A424063B-2B4F-44F1-8843-9BD652D5D076";
paths = (
{
closed = 1;
nodes = (
"375 1159 LINE",
"375 750 LINE",
"631 750 LINE SMOOTH",
"665 750 OFFCURVE",
"715 700 OFFCURVE",
"715 666 QCURVE SMOOTH",
"715 630 OFFCURVE",
"691 605 QCURVE SMOOTH",
"666 580 OFFCURVE",
"631 580 QCURVE SMOOTH",
"375 580 LINE",
"375 168 LINE",
"971 168 LINE SMOOTH",
"1004 168 OFFCURVE",
"1030 144 QCURVE",
"1055 119 OFFCURVE",
"1055 49 OFFCURVE",
"1030 25 QCURVE SMOOTH",
"1005 0 OFFCURVE",
"969 0 QCURVE SMOOTH",
"207 0 LINE",
"207 1329 LINE",
"969 1329 LINE SMOOTH",
"1005 1329 OFFCURVE",
"1055 1279 OFFCURVE",
"1055 1243 QCURVE SMOOTH",
"1055 1209 OFFCURVE",
"1005 1159 OFFCURVE",
"969 1159 QCURVE SMOOTH"
);
}
);
width = 1237;
}
);
note = E;
unicode = 0045;
},
{
glyphname = F;
layers = (
{
layerId = "A424063B-2B4F-44F1-8843-9BD652D5D076";
paths = (
{
closed = 1;
nodes = (
"207 1329 LINE",
"969 1329 LINE SMOOTH",
"1003 1329 OFFCURVE",
"1053 1279 OFFCURVE",
"1053 1245 QCURVE SMOOTH",
"1053 1210 OFFCURVE",
"1028 1185 QCURVE SMOOTH",
"1002 1159 OFFCURVE",
"969 1159 QCURVE SMOOTH",
"375 1159 LINE",
"375 895 LINE",
"801 895 LINE SMOOTH",
"836 895 OFFCURVE",
"861 871 QCURVE",
"885 846 OFFCURVE",
"885 811 QCURVE SMOOTH",
"885 776 OFFCURVE",
"861 752 QCURVE SMOOTH",
"836 727 OFFCURVE",
"801 727 QCURVE SMOOTH",
"375 727 LINE",
"375 84 LINE SMOOTH",
"375 49 OFFCURVE",
"351 25 QCURVE SMOOTH",
"326 0 OFFCURVE",
"256 0 OFFCURVE",
"232 25 QCURVE",
"207 49 OFFCURVE",
"207 84 QCURVE SMOOTH"
);
}
);
width = 1237;
}
);
note = F;
unicode = 0046;
},
{
glyphname = G;
layers = (
{
layerId = "A424063B-2B4F-44F1-8843-9BD652D5D076";
paths = (
{
closed = 1;
nodes = (
"973 1329 LINE SMOOTH",
"1008 1329 OFFCURVE",
"1033 1305 QCURVE",
"1057 1280 OFFCURVE",
"1057 1245 QCURVE SMOOTH",
"1057 1208 OFFCURVE",
"1031 1184 QCURVE SMOOTH",
"1005 1159 OFFCURVE",
"973 1159 QCURVE SMOOTH",
"707 1159 LINE SMOOTH",
"667 1159 OFFCURVE",
"639 1122 QCURVE SMOOTH",
"403 819 LINE SMOOTH",
"373 783 OFFCURVE",
"373 719 QCURVE SMOOTH",
"373 254 LINE SMOOTH",
"373 218 OFFCURVE",
"398 193 QCURVE SMOOTH",
"422 168 OFFCURVE",
"457 168 QCURVE SMOOTH",
"799 168 LINE SMOOTH",
"833 168 OFFCURVE",
"883 218 OFFCURVE",
"883 252 QCURVE SMOOTH",
"883 434 LINE",
"709 434 LINE SMOOTH",
"673 434 OFFCURVE",
"649 459 QCURVE SMOOTH",
"625 483 OFFCURVE",
"625 518 QCURVE SMOOTH",
"625 552 OFFCURVE",
"649 578 QCURVE",
"673 602 OFFCURVE",
"709 602 QCURVE SMOOTH",
"1051 602 LINE",
"1051 252 LINE SMOOTH",
"1051 148 OFFCURVE",
"903 0 OFFCURVE",
"799 0 QCURVE SMOOTH",
"457 0 LINE SMOOTH",
"352 0 OFFCURVE",
"278 74 QCURVE SMOOTH",
"203 148 OFFCURVE",
"203 252 QCURVE SMOOTH",
"203 717 LINE SMOOTH",
"203 843 OFFCURVE",
"270 928 QCURVE SMOOTH",
"518 1243 OFFCURVE",
"518 1243 QCURVE",
"545 1279 OFFCURVE",
"594 1304 QCURVE SMOOTH",
"641 1329 OFFCURVE",
"694 1329 QCURVE SMOOTH"
);
}
);
width = 1237;
}
);
note = G;
unicode = 0047;
},
{
glyphname = H;
layers = (
{
layerId = "A424063B-2B4F-44F1-8843-9BD652D5D076";
paths = (
{
closed = 1;
nodes = (
"203 1245 LINE SMOOTH",
"203 1279 OFFCURVE",
"228 1304 QCURVE SMOOTH",
"252 1329 OFFCURVE",
"287 1329 QCURVE SMOOTH",
"321 1329 OFFCURVE",
"371 1279 OFFCURVE",
"371 1245 QCURVE SMOOTH",
"371 750 LINE",
"883 750 LINE",
"883 1245 LINE SMOOTH",
"883 1279 OFFCURVE",
"908 1304 QCURVE SMOOTH",
"932 1329 OFFCURVE",
"1002 1329 OFFCURVE",
"1027 1304 QCURVE",
"1051 1278 OFFCURVE",
"1051 1243 QCURVE SMOOTH",
"1051 84 LINE SMOOTH",
"1051 50 OFFCURVE",
"1001 0 OFFCURVE",
"967 0 QCURVE SMOOTH",
"931 0 OFFCURVE",
"907 25 QCURVE SMOOTH",
"883 49 OFFCURVE",
"883 84 QCURVE SMOOTH",
"883 582 LINE",
"373 582 LINE",
"373 84 LINE SMOOTH",
"373 50 OFFCURVE",
"323 0 OFFCURVE",
"287 0 QCURVE SMOOTH",
"253 0 OFFCURVE",
"228 25 QCURVE SMOOTH",
"203 49 OFFCURVE",
"203 84 QCURVE SMOOTH"
);
}
);
width = 1237;
}
);
note = H;
unicode = 0048;
},
{
glyphname = I;
layers = (
{
layerId = "A424063B-2B4F-44F1-8843-9BD652D5D076";
paths = (
{
closed = 1;
nodes = (
"969 1329 LINE SMOOTH",
"1003 1329 OFFCURVE",
"1053 1279 OFFCURVE",
"1053 1245 QCURVE SMOOTH",
"1053 1210 OFFCURVE",
"1028 1185 QCURVE SMOOTH",
"1002 1159 OFFCURVE",
"969 1159 QCURVE SMOOTH",
"715 1159 LINE",
"715 168 LINE",
"969 168 LINE SMOOTH",
"1004 168 OFFCURVE",
"1029 144 QCURVE",
"1053 118 OFFCURVE",
"1053 84 QCURVE SMOOTH",
"1053 49 OFFCURVE",
"1028 25 QCURVE SMOOTH",
"1003 0 OFFCURVE",
"969 0 QCURVE SMOOTH",
"289 0 LINE SMOOTH",
"254 0 OFFCURVE",
"230 25 QCURVE",
"205 49 OFFCURVE",
"205 119 OFFCURVE",
"230 144 QCURVE SMOOTH",
"254 168 OFFCURVE",
"289 168 QCURVE SMOOTH",
"547 168 LINE",
"547 1159 LINE",
"289 1159 LINE SMOOTH",
"254 1159 OFFCURVE",
"230 1184 QCURVE SMOOTH",
"205 1209 OFFCURVE",
"205 1243 QCURVE SMOOTH",
"205 1279 OFFCURVE",
"230 1304 QCURVE SMOOTH",
"254 1329 OFFCURVE",
"289 1329 QCURVE SMOOTH"
);
}
);
width = 1237;
}
);
note = I;
unicode = 0049;
},
{
glyphname = J;
layers = (
{
layerId = "A424063B-2B4F-44F1-8843-9BD652D5D076";
paths = (
{
closed = 1;
nodes = (
"289 520 LINE SMOOTH",
"289 555 OFFCURVE",
"314 580 QCURVE SMOOTH",
"338 604 OFFCURVE",
"373 604 QCURVE SMOOTH",
"408 604 OFFCURVE",
"433 580 QCURVE",
"457 554 OFFCURVE",
"457 520 QCURVE SMOOTH",
"457 252 LINE SMOOTH",
"457 218 OFFCURVE",
"482 194 QCURVE SMOOTH",
"508 170 OFFCURVE",
"543 170 QCURVE SMOOTH",
"713 170 LINE SMOOTH",
"749 170 OFFCURVE",
"774 195 QCURVE SMOOTH",
"799 219 OFFCURVE",
"799 254 QCURVE SMOOTH",
"799 1245 LINE SMOOTH",
"799 1280 OFFCURVE",
"823 1305 QCURVE SMOOTH",
"847 1329 OFFCURVE",
"881 1329 QCURVE SMOOTH",
"916 1329 OFFCURVE",
"941 1302 QCURVE SMOOTH",
"967 1274 OFFCURVE",
"967 1241 QCURVE SMOOTH",
"967 254 LINE SMOOTH",
"967 148 OFFCURVE",
"813 0 OFFCURVE",
"713 0 QCURVE SMOOTH",
"543 0 OFFCURVE",
"543 0 QCURVE SMOOTH",
"438 0 OFFCURVE",
"364 75 QCURVE SMOOTH",
"289 150 OFFCURVE",
"289 254 QCURVE SMOOTH"
);
}
);
width = 1237;
}
);
note = J;
unicode = 004A;
},
{
glyphname = K;
layers = (
{
layerId = "A424063B-2B4F-44F1-8843-9BD652D5D076";
paths = (
{
closed = 1;
nodes = (
"205 1243 LINE SMOOTH",
"205 1279 OFFCURVE",
"230 1304 QCURVE SMOOTH",
"254 1329 OFFCURVE",
"289 1329 QCURVE SMOOTH",
"324 1329 OFFCURVE",
"349 1305 QCURVE",
"373 1280 OFFCURVE",
"373 1245 QCURVE SMOOTH",
"373 848 LINE",
"911 1307 LINE",
"940 1330 OFFCURVE",
"974 1330 QCURVE SMOOTH",
"1009 1330 OFFCURVE",
"1033 1304 QCURVE SMOOTH",
"1057 1278 OFFCURVE",
"1057 1244 QCURVE SMOOTH",
"1057 1208 OFFCURVE",
"1030 1186 QCURVE SMOOTH",
"420 668 LINE",
"1030 141 LINE SMOOTH",
"1055 120 OFFCURVE",
"1055 54 OFFCURVE",
"1031 27 QCURVE SMOOTH",
"1006 0 OFFCURVE",
"970 0 QCURVE SMOOTH",
"937 0 OFFCURVE",
"909 23 QCURVE SMOOTH",
"373 485 LINE",
"373 84 LINE SMOOTH",
"373 49 OFFCURVE",
"349 25 QCURVE SMOOTH",
"324 0 OFFCURVE",
"289 0 QCURVE SMOOTH",
"255 0 OFFCURVE",
"230 25 QCURVE SMOOTH",
"205 49 OFFCURVE",
"205 84 QCURVE SMOOTH"
);
}
);
width = 1237;
}
);
note = K;
unicode = 004B;
},
{
glyphname = L;
layers = (
{
layerId = "A424063B-2B4F-44F1-8843-9BD652D5D076";
paths = (
{
closed = 1;
nodes = (
"207 0 LINE",
"207 1245 LINE SMOOTH",
"207 1279 OFFCURVE",
"257 1329 OFFCURVE",
"325 1329 OFFCURVE",
"375 1279 OFFCURVE",
"375 1245 QCURVE SMOOTH",
"375 168 LINE",
"969 168 LINE SMOOTH",
"1004 168 OFFCURVE",
"1030 144 QCURVE",
"1055 119 OFFCURVE",
"1055 49 OFFCURVE",
"1030 25 QCURVE SMOOTH",
"1005 0 OFFCURVE",
"969 0 QCURVE SMOOTH"
);
}
);
width = 1237;
}
);
note = L;
unicode = 004C;
},
{
glyphname = M;
layers = (
{
layerId = "A424063B-2B4F-44F1-8843-9BD652D5D076";
paths = (
{
closed = 1;
nodes = (
"545 850 LINE",
"371 1098 LINE",
"371 84 LINE SMOOTH",
"371 49 OFFCURVE",
"347 25 QCURVE SMOOTH",
"322 0 OFFCURVE",
"252 0 OFFCURVE",
"228 25 QCURVE SMOOTH",
"203 50 OFFCURVE",
"203 84 QCURVE SMOOTH",
"203 1329 LINE",
"420 1329 LINE",
"627 1028 LINE",
"840 1329 LINE",
"1053 1329 LINE",
"1053 84 LINE SMOOTH",
"1053 49 OFFCURVE",
"1028 25 QCURVE SMOOTH",
"1003 0 OFFCURVE",
"967 0 QCURVE SMOOTH",
"933 0 OFFCURVE",
"883 50 OFFCURVE",
"883 84 QCURVE SMOOTH",
"883 1094 LINE",
"713 854 LINE",
"713 807 LINE SMOOTH",
"713 773 OFFCURVE",
"663 723 OFFCURVE",
"629 723 QCURVE SMOOTH",
"594 723 OFFCURVE",
"570 748 QCURVE SMOOTH",
"545 773 OFFCURVE",
"545 807 QCURVE SMOOTH"
);
}
);
width = 1237;
}
);
note = M;
unicode = 004D;
},
{
glyphname = N;
layers = (
{
layerId = "A424063B-2B4F-44F1-8843-9BD652D5D076";
paths = (
{
closed = 1;
nodes = (
"1053 0 LINE",
"827 0 LINE",
"375 1032 LINE",
"375 84 LINE SMOOTH",
"375 49 OFFCURVE",
"351 25 QCURVE SMOOTH",
"326 0 OFFCURVE",
"256 0 OFFCURVE",
"232 25 QCURVE",
"207 49 OFFCURVE",
"207 84 QCURVE SMOOTH",
"207 1329 LINE",
"430 1329 LINE",
"883 299 LINE",
"883 1243 LINE SMOOTH",
"883 1278 OFFCURVE",
"909 1304 QCURVE SMOOTH",
"934 1329 OFFCURVE",
"1004 1329 OFFCURVE",
"1029 1304 QCURVE",
"1053 1278 OFFCURVE",
"1053 1243 QCURVE SMOOTH"
);
}
);
width = 1237;
}
);
note = N;
unicode = 004E;
},
{
glyphname = O;
layers = (
{
layerId = "A424063B-2B4F-44F1-8843-9BD652D5D076";
paths = (
{
closed = 1;
nodes = (
"1014 829 LINE SMOOTH",
"1053 752 OFFCURVE",
"1053 662 QCURVE SMOOTH",
"1053 574 OFFCURVE",
"1014 496 QCURVE SMOOTH",
"829 123 LINE SMOOTH",
"770 0 OFFCURVE",
"629 0 QCURVE SMOOTH",
"562 0 OFFCURVE",
"509 35 QCURVE SMOOTH",
"456 69 OFFCURVE",
"428 123 QCURVE SMOOTH",
"242 496 LINE SMOOTH",
"205 569 OFFCURVE",
"205 662 QCURVE SMOOTH",
"205 756 OFFCURVE",
"242 829 QCURVE SMOOTH",
"428 1206 LINE SMOOTH",
"491 1329 OFFCURVE",
"629 1329 QCURVE SMOOTH",
"769 1329 OFFCURVE",
"829 1206 QCURVE SMOOTH"
);
},
{
closed = 1;
nodes = (
"399 768 LINE SMOOTH",
"375 716 OFFCURVE",
"375 664 QCURVE SMOOTH",
"375 608 OFFCURVE",
"399 559 QCURVE SMOOTH",
"578 201 LINE",
"592 168 OFFCURVE",
"629 168 QCURVE SMOOTH",
"662 168 OFFCURVE",
"678 201 QCURVE SMOOTH",
"858 559 LINE SMOOTH",
"883 610 OFFCURVE",
"883 664 QCURVE SMOOTH",
"883 719 OFFCURVE",
"858 768 QCURVE SMOOTH",
"682 1122 LINE",
"666 1161 OFFCURVE",
"592 1161 OFFCURVE",
"573 1122 QCURVE SMOOTH"
);
}
);
width = 1237;
}
);
note = O;
unicode = 004F;
},
{
glyphname = P;
layers = (
{
layerId = "A424063B-2B4F-44F1-8843-9BD652D5D076";
paths = (
{
closed = 1;
nodes = (
"207 1329 LINE",
"803 1329 LINE SMOOTH",
"906 1329 OFFCURVE",
"981 1254 QCURVE SMOOTH",
"1055 1178 OFFCURVE",
"1055 1075 QCURVE SMOOTH",
"1055 760 LINE SMOOTH",
"1055 656 OFFCURVE",
"907 508 OFFCURVE",
"803 508 QCURVE SMOOTH",
"377 508 LINE",
"377 84 LINE SMOOTH",
"377 49 OFFCURVE",
"353 25 QCURVE SMOOTH",
"328 0 OFFCURVE",
"293 0 QCURVE SMOOTH",
"257 0 OFFCURVE",
"232 25 QCURVE SMOOTH",
"207 49 OFFCURVE",
"207 84 QCURVE SMOOTH"
);
},
{
closed = 1;
nodes = (
"377 676 LINE",
"803 676 LINE SMOOTH",
"837 676 OFFCURVE",
"862 701 QCURVE SMOOTH",
"887 725 OFFCURVE",
"887 760 QCURVE SMOOTH",
"887 1075 LINE SMOOTH",
"887 1110 OFFCURVE",
"862 1135 QCURVE",
"836 1159 OFFCURVE",
"803 1159 QCURVE SMOOTH",
"377 1159 LINE"
);
}
);
width = 1237;
}
);
note = P;
unicode = 0050;
},
{
glyphname = Q;
layers = (
{
layerId = "A424063B-2B4F-44F1-8843-9BD652D5D076";
paths = (
{
closed = 1;
nodes = (
"698 1270 LINE SMOOTH",
"771 1329 OFFCURVE",
"846 1329 QCURVE SMOOTH",
"931 1329 OFFCURVE",
"1053 1207 OFFCURVE",
"1053 1137 QCURVE SMOOTH",
"1053 623 LINE SMOOTH",
"1053 478 OFFCURVE",
"928 371 QCURVE SMOOTH",
"815 274 LINE",
"858 168 LINE",
"971 168 LINE SMOOTH",
"1006 168 OFFCURVE",
"1031 144 QCURVE",
"1055 118 OFFCURVE",
"1055 84 QCURVE SMOOTH",
"1055 49 OFFCURVE",
"1031 25 QCURVE SMOOTH",
"1006 0 OFFCURVE",
"971 0 QCURVE SMOOTH",
"741 0 LINE",
"680 158 LINE",
"565 63 LINE SMOOTH",
"488 0 OFFCURVE",
"412 0 QCURVE SMOOTH",
"323 0 OFFCURVE",
"265 61 QCURVE SMOOTH",
"205 121 OFFCURVE",
"205 207 QCURVE SMOOTH",
"205 676 OFFCURVE",
"205 676 QCURVE",
"205 764 OFFCURVE",
"232 828 QCURVE SMOOTH",
"259 890 OFFCURVE",
"340 961 QCURVE SMOOTH"
);
},
{
closed = 1;
nodes = (
"451 838 LINE SMOOTH",
"404 797 OFFCURVE",
"389 760 QCURVE SMOOTH",
"373 724 OFFCURVE",
"373 655 QCURVE SMOOTH",
"373 217 LINE SMOOTH",
"373 165 OFFCURVE",
"413 165 QCURVE SMOOTH",
"430 165 OFFCURVE",
"444 178 QCURVE",
"614 324 LINE",
"559 471 LINE SMOOTH",
"547 500 OFFCURVE",
"547 521 QCURVE SMOOTH",
"547 552 OFFCURVE",
"572 577 QCURVE",
"598 601 OFFCURVE",
"631 601 QCURVE SMOOTH",
"690 601 OFFCURVE",
"709 553 QCURVE SMOOTH",
"752 440 LINE",
"825 496 OFFCURVE",
"854 535 QCURVE SMOOTH",
"883 573 OFFCURVE",
"883 623 QCURVE SMOOTH",
"883 1118 LINE SMOOTH",
"883 1160 OFFCURVE",
"845 1160 QCURVE SMOOTH",
"823 1160 OFFCURVE",
"809 1147 QCURVE"
);
}
);
width = 1237;
}
);
note = Q;
unicode = 0051;
},
{
glyphname = R;
layers = (
{
layerId = "A424063B-2B4F-44F1-8843-9BD652D5D076";
paths = (
{
closed = 1;
nodes = (
"209 1329 LINE",
"803 1329 LINE SMOOTH",
"906 1329 OFFCURVE",
"981 1254 QCURVE SMOOTH",
"1055 1178 OFFCURVE",
"1055 1075 QCURVE SMOOTH",
"1055 979 LINE SMOOTH",
"1055 874 OFFCURVE",
"981 800 QCURVE SMOOTH",
"908 725 OFFCURVE",
"803 725 QCURVE SMOOTH",
"696 725 LINE",
"1040 135 LINE",
"1056 110 OFFCURVE",
"1056 83 QCURVE SMOOTH",
"1056 49 OFFCURVE",
"1030 25 QCURVE",
"1005 0 OFFCURVE",
"971 0 QCURVE SMOOTH",
"920 0 OFFCURVE",
"895 45 QCURVE SMOOTH",
"500 725 LINE",
"379 725 LINE",
"379 84 LINE SMOOTH",
"379 49 OFFCURVE",
"354 25 QCURVE SMOOTH",
"329 0 OFFCURVE",
"293 0 QCURVE SMOOTH",
"258 0 OFFCURVE",
"234 25 QCURVE",
"209 49 OFFCURVE",
"209 84 QCURVE SMOOTH"
);
},
{
closed = 1;
nodes = (
"377 893 LINE",
"803 893 LINE SMOOTH",
"838 893 OFFCURVE",
"863 918 QCURVE SMOOTH",
"887 942 OFFCURVE",
"887 977 QCURVE SMOOTH",
"887 1075 LINE SMOOTH",
"887 1110 OFFCURVE",
"863 1135 QCURVE",
"838 1159 OFFCURVE",
"803 1159 QCURVE SMOOTH",
"377 1159 LINE"
);
}
);
width = 1237;
}
);
note = R;
unicode = 0052;
},
{
glyphname = S;
layers = (
{
layerId = "A424063B-2B4F-44F1-8843-9BD652D5D076";
paths = (
{
closed = 1;
nodes = (
"834 1329 LINE SMOOTH",
"915 1329 OFFCURVE",
"986 1262 QCURVE SMOOTH",
"1057 1194 OFFCURVE",
"1057 1098 QCURVE SMOOTH",
"1057 1062 OFFCURVE",
"1007 1012 OFFCURVE",
"975 1012 QCURVE SMOOTH",
"933 1012 OFFCURVE",
"916 1032 QCURVE SMOOTH",
"900 1052 OFFCURVE",
"886 1104 QCURVE SMOOTH",
"871 1157 OFFCURVE",
"821 1157 QCURVE SMOOTH",
"406 1157 LINE SMOOTH",
"376 1157 OFFCURVE",
"376 1138 QCURVE SMOOTH",
"376 1126 OFFCURVE",
"389 1110 QCURVE SMOOTH",
"1012 313 LINE SMOOTH",
"1057 254 OFFCURVE",
"1057 189 QCURVE SMOOTH",
"1057 114 OFFCURVE",
"1003 57 QCURVE SMOOTH",
"948 0 OFFCURVE",
"881 0 QCURVE SMOOTH",
"428 0 LINE SMOOTH",
"338 0 OFFCURVE",
"272 69 QCURVE SMOOTH",
"205 136 OFFCURVE",
"205 219 QCURVE SMOOTH",
"205 313 OFFCURVE",
"293 313 QCURVE SMOOTH",
"327 313 OFFCURVE",
"351 289 QCURVE SMOOTH",
"375 264 OFFCURVE",
"375 231 QCURVE SMOOTH",
"375 204 OFFCURVE",
"394 186 QCURVE SMOOTH",
"412 168 OFFCURVE",
"440 168 QCURVE SMOOTH",
"858 168 LINE SMOOTH",
"885 168 OFFCURVE",
"885 189 QCURVE SMOOTH",
"885 199 OFFCURVE",
"872 215 QCURVE SMOOTH",
"250 1012 LINE SMOOTH",
"206 1070 OFFCURVE",
"206 1136 QCURVE SMOOTH",
"206 1213 OFFCURVE",
"262 1272 QCURVE SMOOTH",
"318 1329 OFFCURVE",
"397 1329 QCURVE SMOOTH"
);
}
);
width = 1237;
}
);
note = S;
unicode = 0053;
},
{
glyphname = T;
layers = (
{
layerId = "A424063B-2B4F-44F1-8843-9BD652D5D076";
paths = (
{
closed = 1;
nodes = (
"205 1327 LINE",
"1053 1327 LINE",
"1053 1098 LINE SMOOTH",
"1053 1063 OFFCURVE",
"1028 1039 QCURVE SMOOTH",
"1003 1014 OFFCURVE",
"969 1014 QCURVE SMOOTH",
"934 1014 OFFCURVE",
"909 1039 QCURVE SMOOTH",
"883 1065 OFFCURVE",
"883 1098 QCURVE SMOOTH",
"883 1159 LINE",
"713 1159 LINE",
"713 84 LINE SMOOTH",
"713 49 OFFCURVE",
"688 25 QCURVE SMOOTH",
"663 0 OFFCURVE",
"629 0 QCURVE SMOOTH",
"593 0 OFFCURVE",
"568 25 QCURVE SMOOTH",
"543 49 OFFCURVE",
"543 84 QCURVE SMOOTH",
"543 1159 LINE",
"373 1159 LINE",
"373 1100 LINE SMOOTH",
"373 1065 OFFCURVE",
"349 1041 QCURVE SMOOTH",
"324 1016 OFFCURVE",
"254 1016 OFFCURVE",
"230 1041 QCURVE",
"205 1065 OFFCURVE",
"205 1100 QCURVE SMOOTH"
);
}
);
width = 1237;
}
);
note = T;
unicode = 0054;
},
{
glyphname = U;
layers = (
{
layerId = "A424063B-2B4F-44F1-8843-9BD652D5D076";
paths = (
{
closed = 1;
nodes = (
"205 1243 LINE SMOOTH",
"205 1279 OFFCURVE",
"255 1329 OFFCURVE",
"323 1329 OFFCURVE",
"373 1279 OFFCURVE",
"373 1245 QCURVE SMOOTH",
"373 252 LINE SMOOTH",
"373 219 OFFCURVE",
"398 195 QCURVE SMOOTH",
"423 170 OFFCURVE",
"457 170 QCURVE SMOOTH",
"801 170 LINE SMOOTH",
"836 170 OFFCURVE",
"861 194 QCURVE SMOOTH",
"885 218 OFFCURVE",
"885 252 QCURVE SMOOTH",
"885 1243 LINE SMOOTH",
"885 1279 OFFCURVE",
"910 1304 QCURVE SMOOTH",
"934 1329 OFFCURVE",
"1004 1329 OFFCURVE",
"1029 1304 QCURVE",
"1053 1278 OFFCURVE",
"1053 1243 QCURVE SMOOTH",
"1053 254 LINE SMOOTH",
"1053 151 OFFCURVE",
"979 75 QCURVE SMOOTH",
"904 0 OFFCURVE",
"801 0 QCURVE SMOOTH",
"457 0 LINE SMOOTH",
"353 0 OFFCURVE",
"205 148 OFFCURVE",
"205 252 QCURVE SMOOTH"
);
}
);
width = 1237;
}
);
note = U;
unicode = 0055;
},
{
glyphname = V;
layers = (
{
layerId = "A424063B-2B4F-44F1-8843-9BD652D5D076";
paths = (
{
closed = 1;
nodes = (
"1057 934 LINE",
"715 63 LINE SMOOTH",
"690 0 OFFCURVE",
"633 0 QCURVE SMOOTH",
"574 0 OFFCURVE",
"549 63 QCURVE SMOOTH",
"209 934 LINE",
"209 1243 LINE SMOOTH",
"209 1279 OFFCURVE",
"234 1304 QCURVE SMOOTH",
"258 1329 OFFCURVE",
"328 1329 OFFCURVE",
"353 1304 QCURVE",
"377 1278 OFFCURVE",
"377 1243 QCURVE SMOOTH",
"377 969 LINE",
"633 317 LINE",
"889 967 LINE",
"889 1243 LINE SMOOTH",
"889 1279 OFFCURVE",
"914 1304 QCURVE SMOOTH",
"938 1329 OFFCURVE",
"1008 1329 OFFCURVE",
"1033 1304 QCURVE",
"1057 1278 OFFCURVE",
"1057 1243 QCURVE SMOOTH"
);
}
);
width = 1237;
}
);
note = V;
unicode = 0056;
},
{
glyphname = W;
layers = (
{
layerId = "A424063B-2B4F-44F1-8843-9BD652D5D076";
paths = (
{
closed = 1;
nodes = (
"715 250 LINE",
"764 168 LINE",
"834 168 LINE",
"885 252 LINE",
"885 1243 LINE SMOOTH",
"885 1278 OFFCURVE",
"911 1304 QCURVE SMOOTH",
"936 1329 OFFCURVE",
"971 1329 QCURVE SMOOTH",
"1005 1329 OFFCURVE",
"1055 1279 OFFCURVE",
"1055 1245 QCURVE SMOOTH",
"1055 225 LINE SMOOTH",
"1055 206 OFFCURVE",
"1034 172 QCURVE SMOOTH",
"956 43 LINE SMOOTH",
"932 0 OFFCURVE",
"883 0 QCURVE SMOOTH",
"725 0 LINE SMOOTH",
"650 0 OFFCURVE",
"629 68 QCURVE",
"606 0 OFFCURVE",
"537 0 QCURVE SMOOTH",
"389 0 LINE SMOOTH",
"326 0 OFFCURVE",
"297 47 QCURVE SMOOTH",
"225 168 LINE SMOOTH",
"205 202 OFFCURVE",
"205 225 QCURVE SMOOTH",
"205 1243 LINE SMOOTH",
"205 1278 OFFCURVE",
"231 1304 QCURVE SMOOTH",
"256 1329 OFFCURVE",
"291 1329 QCURVE SMOOTH",
"324 1329 OFFCURVE",
"349 1304 QCURVE",
"373 1278 OFFCURVE",
"373 1243 QCURVE SMOOTH",
"373 248 LINE",
"422 168 LINE",
"494 168 LINE",
"547 252 LINE",
"547 809 LINE SMOOTH",
"547 844 OFFCURVE",
"572 869 QCURVE SMOOTH",
"596 893 OFFCURVE",
"631 893 QCURVE SMOOTH",
"666 893 OFFCURVE",
"691 869 QCURVE",
"715 844 OFFCURVE",
"715 809 QCURVE SMOOTH"
);
}
);
width = 1237;
}
);
note = W;
unicode = 0057;
},
{
glyphname = X;
layers = (
{
layerId = "A424063B-2B4F-44F1-8843-9BD652D5D076";
paths = (
{
closed = 1;
nodes = (
"644 498 LINE",
"377 41 LINE SMOOTH",
"355 1 OFFCURVE",
"306 1 QCURVE SMOOTH",
"271 1 OFFCURVE",
"219 53 OFFCURVE",
"219 84 QCURVE SMOOTH",
"219 108 OFFCURVE",
"234 133 QCURVE SMOOTH",
"547 664 LINE",
"240 1192 LINE SMOOTH",
"222 1224 OFFCURVE",
"222 1249 QCURVE SMOOTH",
"222 1281 OFFCURVE",
"247 1306 QCURVE SMOOTH",
"272 1330 OFFCURVE",
"305 1330 QCURVE SMOOTH",
"355 1330 OFFCURVE",
"377 1290 QCURVE SMOOTH",
"648 834 LINE",
"914 1288 LINE",
"940 1329 OFFCURVE",
"985 1329 QCURVE SMOOTH",
"1020 1329 OFFCURVE",
"1072 1281 OFFCURVE",
"1072 1247 QCURVE SMOOTH",
"1072 1224 OFFCURVE",
"1059 1202 QCURVE SMOOTH",
"744 666 LINE",
"1057 127 LINE",
"1069 108 OFFCURVE",
"1069 84 QCURVE SMOOTH",
"1069 48 OFFCURVE",
"1045 24 QCURVE SMOOTH",
"1020 0 OFFCURVE",
"985 0 QCURVE SMOOTH",
"936 0 OFFCURVE",
"912 41 QCURVE SMOOTH"
);
}
);
width = 1237;
}
);
note = X;
unicode = 0058;
},
{
glyphname = Y;
layers = (
{
layerId = "A424063B-2B4F-44F1-8843-9BD652D5D076";
paths = (
{
closed = 1;
nodes = (
"717 637 LINE",
"717 84 LINE SMOOTH",
"717 49 OFFCURVE",
"692 25 QCURVE SMOOTH",
"667 0 OFFCURVE",
"633 0 QCURVE SMOOTH",
"597 0 OFFCURVE",
"572 25 QCURVE SMOOTH",
"547 49 OFFCURVE",
"547 84 QCURVE SMOOTH",
"547 637 LINE",
"209 1065 LINE",
"209 1243 LINE SMOOTH",
"209 1279 OFFCURVE",
"234 1304 QCURVE SMOOTH",
"258 1329 OFFCURVE",
"293 1329 QCURVE SMOOTH",
"329 1329 OFFCURVE",
"379 1279 OFFCURVE",
"379 1243 QCURVE SMOOTH",
"379 1128 LINE",
"631 803 LINE",
"887 1126 LINE",
"887 1243 LINE SMOOTH",
"887 1279 OFFCURVE",
"937 1329 OFFCURVE",
"971 1329 QCURVE SMOOTH",
"1004 1329 OFFCURVE",
"1030 1306 QCURVE",
"1055 1282 OFFCURVE",
"1055 1243 QCURVE SMOOTH",
"1055 1067 OFFCURVE",
"1055 1067 QCURVE"
);
}
);
width = 1237;
}
);
note = Y;
unicode = 0059;
},
{
glyphname = Z;
layers = (
{
layerId = "A424063B-2B4F-44F1-8843-9BD652D5D076";
paths = (
{
closed = 1;
nodes = (
"1053 1329 LINE",
"1053 1221 LINE",
"436 168 LINE",
"969 168 LINE SMOOTH",
"1004 168 OFFCURVE",
"1029 144 QCURVE",
"1053 118 OFFCURVE",
"1053 84 QCURVE SMOOTH",
"1053 50 OFFCURVE",
"1003 0 OFFCURVE",
"969 0 QCURVE SMOOTH",
"205 0 LINE",
"205 111 LINE",
"821 1159 LINE",
"287 1159 LINE SMOOTH",
"253 1159 OFFCURVE",
"229 1185 QCURVE SMOOTH",
"205 1210 OFFCURVE",
"205 1245 QCURVE SMOOTH",
"205 1278 OFFCURVE",
"229 1304 QCURVE SMOOTH",
"253 1329 OFFCURVE",
"287 1329 QCURVE SMOOTH"
);
}
);
width = 1237;
}
);
note = Z;
unicode = 005A;
},
{
glyphname = bracketleft;
layers = (
{
layerId = "A424063B-2B4F-44F1-8843-9BD652D5D076";
paths = (
{
closed = 1;
nodes = (
"631 170 LINE",
"969 170 LINE SMOOTH",
"1004 170 OFFCURVE",
"1029 146 QCURVE",
"1053 120 OFFCURVE",
"1053 86 QCURVE SMOOTH",
"1053 51 OFFCURVE",
"1029 27 QCURVE SMOOTH",
"1004 2 OFFCURVE",
"969 2 QCURVE SMOOTH",
"291 2 LINE SMOOTH",
"257 2 OFFCURVE",
"207 52 OFFCURVE",
"207 86 QCURVE SMOOTH",
"207 1245 LINE SMOOTH",
"207 1281 OFFCURVE",
"232 1306 QCURVE SMOOTH",
"256 1331 OFFCURVE",
"291 1331 QCURVE SMOOTH",
"969 1331 LINE SMOOTH",
"1003 1331 OFFCURVE",
"1053 1281 OFFCURVE",
"1053 1247 QCURVE SMOOTH",
"1053 1212 OFFCURVE",
"1029 1187 QCURVE SMOOTH",
"1003 1161 OFFCURVE",
"969 1161 QCURVE SMOOTH",
"631 1161 OFFCURVE",
"631 1161 QCURVE"
);
},
{
closed = 1;
nodes = (
"463 170 LINE",
"463 1161 LINE",
"375 1161 LINE",
"375 170 LINE"
);
}
);
width = 1237;
}
);
note = bracketleft;
unicode = 005B;
},
{
glyphname = backslash;
layers = (
{
layerId = "A424063B-2B4F-44F1-8843-9BD652D5D076";
paths = (
{
closed = 1;
nodes = (
"250 1184 LINE SMOOTH",
"229 1222 OFFCURVE",
"229 1252 QCURVE SMOOTH",
"229 1287 OFFCURVE",
"257 1309 QCURVE",
"286 1330 OFFCURVE",
"318 1330 QCURVE SMOOTH",
"354 1330 OFFCURVE",
"371 1303 QCURVE SMOOTH",
"1051 145 LINE SMOOTH",
"1073 110 OFFCURVE",
"1073 79 QCURVE SMOOTH",
"1073 44 OFFCURVE",
"1045 22 QCURVE SMOOTH",
"1016 -1 OFFCURVE",
"984 -1 QCURVE SMOOTH",
"949 -1 OFFCURVE",
"932 25 QCURVE"
);
}
);
width = 1237;
}
);
note = backslash;
unicode = 005C;
},
{
glyphname = bracketright;
layers = (
{
layerId = "A424063B-2B4F-44F1-8843-9BD652D5D076";
paths = (
{
closed = 1;
nodes = (
"627 1161 LINE",
"291 1161 LINE SMOOTH",
"255 1161 OFFCURVE",
"230 1186 QCURVE SMOOTH",
"205 1210 OFFCURVE",
"205 1245 QCURVE SMOOTH",
"205 1278 OFFCURVE",
"231 1304 QCURVE SMOOTH",
"256 1329 OFFCURVE",
"291 1329 QCURVE SMOOTH",
"967 1329 LINE SMOOTH",
"1002 1329 OFFCURVE",
"1028 1305 QCURVE",
"1053 1280 OFFCURVE",
"1053 1245 QCURVE SMOOTH",
"1053 86 LINE SMOOTH",
"1053 51 OFFCURVE",
"1028 27 QCURVE SMOOTH",
"1003 2 OFFCURVE",
"969 2 QCURVE SMOOTH",
"291 2 LINE SMOOTH",
"256 2 OFFCURVE",
"232 28 QCURVE",
"207 53 OFFCURVE",
"207 88 QCURVE SMOOTH",
"207 122 OFFCURVE",
"232 146 QCURVE SMOOTH",
"256 170 OFFCURVE",
"291 170 QCURVE SMOOTH",
"627 170 OFFCURVE",
"627 170 QCURVE"
);
},
{
closed = 1;
nodes = (
"797 1161 LINE",
"797 170 LINE",
"885 170 LINE",
"885 1161 LINE"
);
}
);
width = 1237;
}
);
note = bracketright;
unicode = 005D;
},
{
glyphname = asciicircum;
layers = (
{
layerId = "A424063B-2B4F-44F1-8843-9BD652D5D076";
paths = (
{
closed = 1;
nodes = (
"571 991 LINE SMOOTH",
"596 1040 OFFCURVE",
"698 1040 OFFCURVE",
"723 991 QCURVE SMOOTH",
"1054 356 LINE SMOOTH",
"1071 325 OFFCURVE",
"1071 300 QCURVE SMOOTH",
"1071 269 OFFCURVE",
"1047 245 QCURVE SMOOTH",
"1022 220 OFFCURVE",
"988 220 QCURVE SMOOTH",
"942 220 OFFCURVE",
"917 256 QCURVE SMOOTH",
"647 659 LINE",
"378 256 LINE",
"352 220 OFFCURVE",
"306 220 QCURVE SMOOTH",
"272 220 OFFCURVE",
"248 244 QCURVE SMOOTH",
"223 268 OFFCURVE",
"223 299 QCURVE SMOOTH",
"223 327 OFFCURVE",
"239 356 QCURVE SMOOTH"
);
}
);
width = 1237;
}
);
note = asciicircum;
unicode = 005E;
},
{
glyphname = underscore;
layers = (
{
layerId = "A424063B-2B4F-44F1-8843-9BD652D5D076";
paths = (
{
closed = 1;
nodes = (
"1247 -256 OFFCURVE",
"1247 -256 QCURVE SMOOTH",
"-10 -256 OFFCURVE",
"-10 -256 QCURVE",
"-10 -86 OFFCURVE",
"-10 -86 QCURVE",
"1247 -86 OFFCURVE",
"1247 -86 QCURVE"
);
}
);
width = 1237;
}
);
note = underscore;
unicode = 005F;
},
{
glyphname = grave;
layers = (
{
layerId = "A424063B-2B4F-44F1-8843-9BD652D5D076";
paths = (
{
closed = 1;
nodes = (
"815 1180 LINE",
"862 1156 OFFCURVE",
"862 1104 QCURVE SMOOTH",
"862 1071 OFFCURVE",
"839 1045 QCURVE SMOOTH",
"816 1018 OFFCURVE",
"780 1018 QCURVE SMOOTH",
"762 1018 OFFCURVE",
"743 1026 QCURVE SMOOTH",
"438 1167 LINE",
"391 1191 OFFCURVE",
"391 1243 QCURVE SMOOTH",
"391 1275 OFFCURVE",
"414 1303 QCURVE",
"437 1329 OFFCURVE",
"473 1329 QCURVE SMOOTH",
"491 1329 OFFCURVE",
"510 1321 QCURVE SMOOTH"
);
}
);
width = 1237;
}
);
note = grave;
unicode = 0060;
},
{
glyphname = a;
layers = (
{
layerId = "A424063B-2B4F-44F1-8843-9BD652D5D076";
paths = (
{
closed = 1;
nodes = (
"786 606 LINE SMOOTH",
"813 606 OFFCURVE",
"864 594 QCURVE",
"862 713 LINE",
"862 748 OFFCURVE",
"838 773 QCURVE",
"812 797 OFFCURVE",
"778 797 QCURVE SMOOTH",
"459 797 LINE SMOOTH",
"425 797 OFFCURVE",
"375 847 OFFCURVE",
"375 881 QCURVE SMOOTH",
"375 916 OFFCURVE",
"400 941 QCURVE SMOOTH",
"424 965 OFFCURVE",
"459 965 QCURVE SMOOTH",
"778 965 LINE SMOOTH",
"883 965 OFFCURVE",
"1029 819 OFFCURVE",
"1032 713 QCURVE SMOOTH",
"1053 84 LINE SMOOTH",
"1053 49 OFFCURVE",
"1028 25 QCURVE SMOOTH",
"1003 0 OFFCURVE",
"969 0 QCURVE SMOOTH",
"933 0 OFFCURVE",
"908 25 QCURVE SMOOTH",
"883 49 OFFCURVE",
"883 84 QCURVE",
"741 0 LINE",
"457 0 LINE SMOOTH",
"351 0 OFFCURVE",
"203 148 OFFCURVE",
"203 254 QCURVE SMOOTH",
"203 352 OFFCURVE",
"203 352 QCURVE",
"203 457 OFFCURVE",
"278 532 QCURVE SMOOTH",
"352 606 OFFCURVE",
"457 606 QCURVE SMOOTH"
);
},
{
closed = 1;
nodes = (
"877 279 LINE",
"872 350 LINE SMOOTH",
"870 387 OFFCURVE",
"847 410 QCURVE SMOOTH",
"823 434 OFFCURVE",
"788 434 QCURVE SMOOTH",
"457 434 LINE SMOOTH",
"422 434 OFFCURVE",
"398 410 QCURVE SMOOTH",
"373 385 OFFCURVE",
"373 350 QCURVE SMOOTH",
"373 256 LINE SMOOTH",
"373 222 OFFCURVE",
"423 172 OFFCURVE",
"457 172 QCURVE SMOOTH",
"694 172 LINE"
);
}
);
width = 1237;
}
);
note = a;
unicode = 0061;
},
{
glyphname = b;
layers = (
{
layerId = "A424063B-2B4F-44F1-8843-9BD652D5D076";
paths = (
{
closed = 1;
nodes = (
"379 850 LINE",
"453 909 LINE SMOOTH",
"523 967 OFFCURVE",
"598 967 QCURVE SMOOTH",
"752 967 LINE SMOOTH",
"838 967 OFFCURVE",
"903 909 QCURVE SMOOTH",
"983 840 LINE SMOOTH",
"1015 812 OFFCURVE",
"1038 757 QCURVE SMOOTH",
"1059 703 OFFCURVE",
"1059 651 QCURVE SMOOTH",
"1059 311 LINE SMOOTH",
"1059 266 OFFCURVE",
"1039 214 QCURVE SMOOTH",
"1020 164 OFFCURVE",
"993 139 QCURVE SMOOTH",
"920 70 LINE SMOOTH",
"891 42 OFFCURVE",
"840 22 QCURVE SMOOTH",
"789 0 OFFCURVE",
"752 0 QCURVE SMOOTH",
"608 0 LINE SMOOTH",
"504 0 OFFCURVE",
"379 117 QCURVE",
"379 84 LINE SMOOTH",
"379 49 OFFCURVE",
"355 25 QCURVE SMOOTH",
"330 0 OFFCURVE",
"260 0 OFFCURVE",
"236 25 QCURVE",
"211 49 OFFCURVE",
"211 84 QCURVE SMOOTH",
"211 1245 LINE SMOOTH",
"211 1280 OFFCURVE",
"236 1305 QCURVE",
"262 1329 OFFCURVE",
"295 1329 QCURVE SMOOTH",
"330 1329 OFFCURVE",
"355 1305 QCURVE",
"379 1280 OFFCURVE",
"379 1245 QCURVE SMOOTH"
);
},
{
closed = 1;
nodes = (
"623 797 LINE SMOOTH",
"581 797 OFFCURVE",
"559 778 QCURVE SMOOTH",
"408 649 LINE SMOOTH",
"379 623 OFFCURVE",
"379 571 QCURVE SMOOTH",
"379 381 LINE SMOOTH",
"379 340 OFFCURVE",
"412 311 QCURVE SMOOTH",
"547 197 LINE",
"576 170 OFFCURVE",
"608 170 QCURVE SMOOTH",
"745 170 LINE SMOOTH",
"774 170 OFFCURVE",
"795 188 QCURVE SMOOTH",
"862 248 LINE",
"889 268 OFFCURVE",
"889 305 QCURVE SMOOTH",
"889 659 LINE SMOOTH",
"889 700 OFFCURVE",
"862 723 QCURVE SMOOTH",
"801 774 LINE SMOOTH",
"772 797 OFFCURVE",
"739 797 QCURVE SMOOTH"
);
}
);
width = 1237;
}
);
note = b;
unicode = 0062;
},
{
glyphname = c;
layers = (
{
layerId = "A424063B-2B4F-44F1-8843-9BD652D5D076";
paths = (
{
closed = 1;
nodes = (
"612 0 LINE SMOOTH",
"518 0 OFFCURVE",
"450 57 QCURVE SMOOTH",
"287 199 LINE SMOOTH",
"209 264 OFFCURVE",
"209 375 QCURVE SMOOTH",
"209 594 LINE",
"205 700 OFFCURVE",
"297 780 QCURVE SMOOTH",
"444 907 LINE SMOOTH",
"514 965 OFFCURVE",
"596 965 QCURVE SMOOTH",
"973 965 LINE SMOOTH",
"1008 965 OFFCURVE",
"1033 941 QCURVE",
"1057 916 OFFCURVE",
"1057 881 QCURVE SMOOTH",
"1057 845 OFFCURVE",
"1033 821 QCURVE SMOOTH",
"1008 797 OFFCURVE",
"973 797 QCURVE SMOOTH",
"612 797 LINE SMOOTH",
"578 797 OFFCURVE",
"547 770 QCURVE SMOOTH",
"412 655 LINE SMOOTH",
"379 626 OFFCURVE",
"379 580 QCURVE SMOOTH",
"379 375 LINE SMOOTH",
"379 342 OFFCURVE",
"405 319 QCURVE SMOOTH",
"553 193 LINE SMOOTH",
"581 168 OFFCURVE",
"627 168 QCURVE SMOOTH",
"971 168 LINE SMOOTH",
"1004 168 OFFCURVE",
"1030 144 QCURVE",
"1055 119 OFFCURVE",
"1055 49 OFFCURVE",
"1031 25 QCURVE SMOOTH",
"1006 0 OFFCURVE",
"971 0 QCURVE SMOOTH"
);
}
);
width = 1237;
}
);
note = c;
unicode = 0063;
},
{
glyphname = d;
layers = (
{
layerId = "A424063B-2B4F-44F1-8843-9BD652D5D076";
paths = (
{
closed = 1;
nodes = (
"883 848 LINE",
"883 1245 LINE SMOOTH",
"883 1280 OFFCURVE",
"907 1305 QCURVE SMOOTH",
"931 1329 OFFCURVE",
"965 1329 QCURVE SMOOTH",
"1000 1329 OFFCURVE",
"1026 1305 QCURVE",
"1051 1280 OFFCURVE",
"1051 1245 QCURVE SMOOTH",
"1051 84 LINE SMOOTH",
"1051 49 OFFCURVE",
"1026 25 QCURVE SMOOTH",
"1001 0 OFFCURVE",
"967 0 QCURVE SMOOTH",
"931 0 OFFCURVE",
"907 25 QCURVE SMOOTH",
"883 49 OFFCURVE",
"883 84 QCURVE SMOOTH",
"883 121 LINE",
"761 0 OFFCURVE",
"653 0 QCURVE SMOOTH",
"510 0 LINE SMOOTH",
"424 0 OFFCURVE",
"338 74 QCURVE SMOOTH",
"268 133 LINE",
"244 155 OFFCURVE",
"223 210 QCURVE SMOOTH",
"201 263 OFFCURVE",
"201 311 QCURVE SMOOTH",
"201 653 LINE SMOOTH",
"201 710 OFFCURVE",
"225 764 QCURVE SMOOTH",
"249 817 OFFCURVE",
"281 844 QCURVE SMOOTH",
"350 903 LINE SMOOTH",
"423 967 OFFCURVE",
"524 967 QCURVE SMOOTH",
"645 967 LINE SMOOTH",
"745 967 OFFCURVE",
"825 897 QCURVE SMOOTH"
);
},
{
closed = 1;
nodes = (
"522 797 LINE SMOOTH",
"485 797 OFFCURVE",
"455 770 QCURVE SMOOTH",
"401 723 LINE SMOOTH",
"373 698 OFFCURVE",
"373 659 QCURVE SMOOTH",
"373 303 LINE SMOOTH",
"373 268 OFFCURVE",
"406 240 QCURVE SMOOTH",
"461 193 LINE SMOOTH",
"487 170 OFFCURVE",
"516 170 QCURVE SMOOTH",
"653 170 LINE SMOOTH",
"680 170 OFFCURVE",
"717 201 QCURVE SMOOTH",
"850 311 LINE SMOOTH",
"883 340 OFFCURVE",
"883 383 QCURVE SMOOTH",
"883 565 LINE SMOOTH",
"883 626 OFFCURVE",
"848 655 QCURVE SMOOTH",
"711 772 LINE",
"685 797 OFFCURVE",
"639 797 QCURVE SMOOTH"
);
}
);
width = 1237;
}
);
note = d;
unicode = 0064;
},
{
glyphname = e;
layers = (
{
layerId = "A424063B-2B4F-44F1-8843-9BD652D5D076";
paths = (
{
closed = 1;
nodes = (
"1053 446 LINE SMOOTH",
"1053 412 OFFCURVE",
"1003 362 OFFCURVE",
"969 362 QCURVE SMOOTH",
"375 362 LINE",
"375 313 LINE SMOOTH",
"375 270 OFFCURVE",
"412 240 QCURVE SMOOTH",
"461 199 LINE",
"501 168 OFFCURVE",
"537 168 QCURVE SMOOTH",
"969 168 LINE SMOOTH",
"1002 168 OFFCURVE",
"1028 144 QCURVE",
"1053 119 OFFCURVE",
"1053 84 QCURVE SMOOTH",
"1053 50 OFFCURVE",
"1003 0 OFFCURVE",
"969 0 QCURVE SMOOTH",
"526 0 LINE SMOOTH",
"481 0 OFFCURVE",
"434 19 QCURVE SMOOTH",
"385 37 OFFCURVE",
"362 57 QCURVE SMOOTH",
"287 123 LINE SMOOTH",
"251 153 OFFCURVE",
"229 201 QCURVE SMOOTH",
"205 250 OFFCURVE",
"205 293 QCURVE SMOOTH",
"205 678 LINE SMOOTH",
"205 710 OFFCURVE",
"231 767 QCURVE SMOOTH",
"257 823 OFFCURVE",
"295 854 QCURVE SMOOTH",
"365 909 LINE SMOOTH",
"435 965 OFFCURVE",
"518 965 QCURVE SMOOTH",
"754 965 LINE SMOOTH",
"842 965 OFFCURVE",
"922 891 QCURVE SMOOTH",
"985 831 OFFCURVE",
"985 831 QCURVE",
"1053 769 OFFCURVE",
"1053 649 QCURVE SMOOTH"
);
},
{
closed = 1;
nodes = (
"377 532 LINE",
"887 532 LINE",
"887 649 LINE SMOOTH",
"887 695 OFFCURVE",
"858 721 QCURVE SMOOTH",
"809 764 LINE SMOOTH",
"772 795 OFFCURVE",
"741 795 QCURVE SMOOTH",
"530 795 LINE SMOOTH",
"490 795 OFFCURVE",
"459 768 QCURVE SMOOTH",
"410 727 LINE",
"377 702 OFFCURVE",
"377 662 QCURVE SMOOTH"
);
}
);
width = 1237;
}
);
note = e;
unicode = 0065;
},
{
glyphname = f;
layers = (
{
layerId = "A424063B-2B4F-44F1-8843-9BD652D5D076";
paths = (
{
closed = 1;
nodes = (
"590 797 LINE",
"590 84 LINE SMOOTH",
"590 49 OFFCURVE",
"565 25 QCURVE SMOOTH",
"540 0 OFFCURVE",
"506 0 QCURVE SMOOTH",
"470 0 OFFCURVE",
"445 25 QCURVE SMOOTH",
"420 49 OFFCURVE",
"420 84 QCURVE SMOOTH",
"420 797 LINE",
"334 797 LINE SMOOTH",
"299 797 OFFCURVE",
"275 822 QCURVE SMOOTH",
"250 847 OFFCURVE",
"250 881 QCURVE SMOOTH",
"250 914 OFFCURVE",
"273 940 QCURVE SMOOTH",
"295 965 OFFCURVE",
"334 965 QCURVE SMOOTH",
"422 965 LINE",
"422 1030 LINE SMOOTH",
"422 1158 OFFCURVE",
"511 1244 QCURVE SMOOTH",
"599 1329 OFFCURVE",
"731 1329 QCURVE SMOOTH",
"928 1329 LINE SMOOTH",
"963 1329 OFFCURVE",
"988 1304 QCURVE",
"1012 1278 OFFCURVE",
"1012 1243 QCURVE SMOOTH",
"1012 1209 OFFCURVE",
"962 1159 OFFCURVE",
"928 1159 QCURVE SMOOTH",
"731 1159 LINE SMOOTH",
"671 1159 OFFCURVE",
"632 1123 QCURVE SMOOTH",
"592 1087 OFFCURVE",
"592 1030 QCURVE SMOOTH",
"592 965 LINE",
"760 965 LINE SMOOTH",
"794 966 OFFCURVE",
"844 916 OFFCURVE",
"844 881 QCURVE SMOOTH",
"844 847 OFFCURVE",
"794 797 OFFCURVE",
"760 797 QCURVE SMOOTH"
);
}
);
width = 1237;
}
);
note = f;
unicode = 0066;
},
{
glyphname = g;
layers = (
{
layerId = "A424063B-2B4F-44F1-8843-9BD652D5D076";
paths = (
{
closed = 1;
nodes = (
"371 -360 LINE SMOOTH",
"336 -360 OFFCURVE",
"312 -336 QCURVE SMOOTH",
"287 -312 OFFCURVE",
"287 -276 QCURVE SMOOTH",
"287 -241 OFFCURVE",
"312 -217 QCURVE SMOOTH",
"336 -193 OFFCURVE",
"371 -193 QCURVE SMOOTH",
"735 -193 LINE SMOOTH",
"769 -193 OFFCURVE",
"797 -168 QCURVE SMOOTH",
"854 -119 LINE",
"883 -96 OFFCURVE",
"883 -61 QCURVE SMOOTH",
"883 195 LINE",
"764 76 OFFCURVE",
"653 76 QCURVE SMOOTH",
"524 76 LINE SMOOTH",
"424 76 OFFCURVE",
"344 145 QCURVE SMOOTH",
"281 201 LINE",
"252 225 OFFCURVE",
"228 277 QCURVE SMOOTH",
"205 328 OFFCURVE",
"205 375 QCURVE SMOOTH",
"205 653 LINE SMOOTH",
"205 711 OFFCURVE",
"228 765 QCURVE SMOOTH",
"252 820 OFFCURVE",
"281 844 QCURVE SMOOTH",
"350 903 LINE SMOOTH",
"423 967 OFFCURVE",
"524 967 QCURVE SMOOTH",
"645 967 LINE SMOOTH",
"745 967 OFFCURVE",
"825 897 QCURVE SMOOTH",
"883 848 LINE",
"881 881 LINE",
"881 915 OFFCURVE",
"931 965 OFFCURVE",
"965 965 QCURVE SMOOTH",
"1000 965 OFFCURVE",
"1026 941 QCURVE",
"1051 916 OFFCURVE",
"1051 881 QCURVE SMOOTH",
"1051 -61 LINE SMOOTH",
"1051 -167 OFFCURVE",
"965 -244 QCURVE SMOOTH",
"897 -303 OFFCURVE",
"897 -303 QCURVE",
"870 -327 OFFCURVE",
"824 -343 QCURVE SMOOTH",
"775 -360 OFFCURVE",
"735 -360 QCURVE SMOOTH"
);
},
{
closed = 1;
nodes = (
"526 799 LINE SMOOTH",
"490 799 OFFCURVE",
"455 770 QCURVE SMOOTH",
"403 727 LINE SMOOTH",
"373 702 OFFCURVE",
"373 659 QCURVE SMOOTH",
"373 379 LINE SMOOTH",
"373 345 OFFCURVE",
"406 315 QCURVE SMOOTH",
"461 266 LINE SMOOTH",
"486 244 OFFCURVE",
"516 244 QCURVE SMOOTH",
"653 244 LINE SMOOTH",
"683 244 OFFCURVE",
"719 274 QCURVE SMOOTH",
"852 387 LINE SMOOTH",
"883 414 OFFCURVE",
"883 453 QCURVE SMOOTH",
"883 580 LINE SMOOTH",
"883 626 OFFCURVE",
"848 655 QCURVE SMOOTH",
"711 772 LINE",
"682 799 OFFCURVE",
"639 799 QCURVE SMOOTH"
);
}
);
width = 1237;
}
);
note = g;
unicode = 0067;
},
{
glyphname = h;
layers = (
{
layerId = "A424063B-2B4F-44F1-8843-9BD652D5D076";
paths = (
{
closed = 1;
nodes = (
"205 1245 LINE SMOOTH",
"205 1279 OFFCURVE",
"230 1303 QCURVE SMOOTH",
"254 1327 OFFCURVE",
"289 1327 QCURVE SMOOTH",
"324 1327 OFFCURVE",
"349 1303 QCURVE",
"373 1278 OFFCURVE",
"373 1243 QCURVE SMOOTH",
"373 819 LINE",
"508 907 LINE SMOOTH",
"599 965 OFFCURVE",
"672 965 QCURVE SMOOTH",
"776 965 LINE SMOOTH",
"880 965 OFFCURVE",
"953 892 QCURVE SMOOTH",
"1027 818 OFFCURVE",
"1030 713 QCURVE SMOOTH",
"1051 84 LINE SMOOTH",
"1053 49 OFFCURVE",
"1027 25 QCURVE",
"1002 0 OFFCURVE",
"932 0 OFFCURVE",
"908 26 QCURVE SMOOTH",
"885 51 OFFCURVE",
"883 84 QCURVE SMOOTH",
"862 715 LINE SMOOTH",
"860 750 OFFCURVE",
"836 774 QCURVE SMOOTH",
"811 799 OFFCURVE",
"776 799 QCURVE SMOOTH",
"682 799 LINE SMOOTH",
"649 799 OFFCURVE",
"612 774 QCURVE SMOOTH",
"373 618 LINE",
"373 84 LINE SMOOTH",
"373 49 OFFCURVE",
"349 25 QCURVE SMOOTH",
"324 0 OFFCURVE",
"254 0 OFFCURVE",
"230 25 QCURVE",
"205 49 OFFCURVE",
"205 84 QCURVE SMOOTH"
);
}
);
width = 1237;
}
);
note = h;
unicode = 0068;
},
{
glyphname = i;
layers = (
{
layerId = "A424063B-2B4F-44F1-8843-9BD652D5D076";
paths = (
{
closed = 1;
nodes = (
"631 1403 LINE SMOOTH",
"666 1403 OFFCURVE",
"691 1379 QCURVE",
"715 1354 OFFCURVE",
"715 1319 QCURVE SMOOTH",
"715 1247 LINE SMOOTH",
"715 1212 OFFCURVE",
"691 1187 QCURVE SMOOTH",
"665 1161 OFFCURVE",
"631 1161 QCURVE SMOOTH",
"541 1161 LINE SMOOTH",
"505 1161 OFFCURVE",
"481 1187 QCURVE",
"455 1213 OFFCURVE",
"457 1245 QCURVE",
"459 1319 OFFCURVE",
"459 1319 QCURVE",
"459 1354 OFFCURVE",
"484 1379 QCURVE SMOOTH",
"508 1403 OFFCURVE",
"543 1403 QCURVE SMOOTH"
);
},
{
closed = 1;
nodes = (
"373 2 LINE SMOOTH",
"338 2 OFFCURVE",
"314 27 QCURVE",
"289 51 OFFCURVE",
"289 86 QCURVE SMOOTH",
"289 120 OFFCURVE",
"314 145 QCURVE SMOOTH",
"338 170 OFFCURVE",
"373 170 QCURVE SMOOTH",
"545 170 LINE",
"545 797 LINE",
"375 797 LINE SMOOTH",
"340 797 OFFCURVE",
"316 822 QCURVE SMOOTH",
"291 847 OFFCURVE",
"291 881 QCURVE SMOOTH",
"291 917 OFFCURVE",
"316 942 QCURVE SMOOTH",
"340 967 OFFCURVE",
"375 967 QCURVE SMOOTH",
"631 967 LINE SMOOTH",
"666 967 OFFCURVE",
"691 942 QCURVE",
"715 916 OFFCURVE",
"715 881 QCURVE SMOOTH",
"715 170 LINE",
"883 170 LINE SMOOTH",
"918 170 OFFCURVE",
"944 146 QCURVE",
"969 121 OFFCURVE",
"969 51 OFFCURVE",
"944 27 QCURVE SMOOTH",
"919 2 OFFCURVE",
"885 2 QCURVE SMOOTH"
);
}
);
width = 1237;
}
);
note = i;
unicode = 0069;
},
{
glyphname = j;
layers = (
{
layerId = "A424063B-2B4F-44F1-8843-9BD652D5D076";
paths = (
{
closed = 1;
nodes = (
"889 1399 LINE SMOOTH",
"923 1399 OFFCURVE",
"973 1349 OFFCURVE",
"973 1315 QCURVE SMOOTH",
"973 1241 LINE SMOOTH",
"973 1208 OFFCURVE",
"949 1182 QCURVE",
"924 1157 OFFCURVE",
"889 1157 QCURVE SMOOTH",
"799 1157 LINE SMOOTH",
"764 1157 OFFCURVE",
"740 1182 QCURVE",
"715 1206 OFFCURVE",
"715 1241 QCURVE SMOOTH",
"715 1315 OFFCURVE",
"715 1315 QCURVE",
"716 1350 OFFCURVE",
"741 1374 QCURVE SMOOTH",
"766 1399 OFFCURVE",
"799 1399 QCURVE SMOOTH"
);
},
{
closed = 1;
nodes = (
"541 -360 LINE SMOOTH",
"440 -360 OFFCURVE",
"363 -286 QCURVE SMOOTH",
"287 -213 OFFCURVE",
"287 -129 QCURVE SMOOTH",
"287 -99 OFFCURVE",
"337 -49 OFFCURVE",
"373 -49 QCURVE SMOOTH",
"410 -49 OFFCURVE",
"427 -66 QCURVE SMOOTH",
"443 -83 OFFCURVE",
"456 -119 QCURVE SMOOTH",
"470 -155 OFFCURVE",
"487 -174 QCURVE SMOOTH",
"505 -193 OFFCURVE",
"549 -193 QCURVE SMOOTH",
"717 -193 LINE SMOOTH",
"752 -193 OFFCURVE",
"777 -168 QCURVE SMOOTH",
"801 -144 OFFCURVE",
"801 -109 QCURVE SMOOTH",
"801 797 LINE",
"545 797 LINE SMOOTH",
"510 797 OFFCURVE",
"486 821 QCURVE SMOOTH",
"461 845 OFFCURVE",
"461 881 QCURVE SMOOTH",
"461 915 OFFCURVE",
"486 940 QCURVE SMOOTH",
"510 965 OFFCURVE",
"545 965 QCURVE SMOOTH",
"887 965 LINE SMOOTH",
"922 965 OFFCURVE",
"947 940 QCURVE",
"971 914 OFFCURVE",
"971 879 QCURVE SMOOTH",
"971 -109 LINE SMOOTH",
"971 -212 OFFCURVE",
"823 -360 OFFCURVE",
"719 -360 QCURVE SMOOTH"
);
}
);
width = 1237;
}
);
note = j;
unicode = 006A;
},
{
glyphname = k;
layers = (
{
layerId = "A424063B-2B4F-44F1-8843-9BD652D5D076";
paths = (
{
closed = 1;
nodes = (
"207 1243 LINE SMOOTH",
"207 1279 OFFCURVE",
"232 1304 QCURVE SMOOTH",
"256 1329 OFFCURVE",
"326 1329 OFFCURVE",
"351 1304 QCURVE",
"375 1278 OFFCURVE",
"375 1243 QCURVE SMOOTH",
"375 557 LINE",
"827 942 LINE SMOOTH",
"856 966 OFFCURVE",
"890 966 QCURVE SMOOTH",
"926 966 OFFCURVE",
"974 916 OFFCURVE",
"974 844 OFFCURVE",
"948 821 QCURVE SMOOTH",
"596 522 LINE",
"1030 141 LINE",
"1056 120 OFFCURVE",
"1056 52 OFFCURVE",
"1032 27 QCURVE",
"1008 0 OFFCURVE",
"973 0 QCURVE SMOOTH",
"939 0 OFFCURVE",
"911 23 QCURVE SMOOTH",
"463 412 LINE",
"375 338 LINE",
"375 84 LINE SMOOTH",
"375 49 OFFCURVE",
"351 25 QCURVE SMOOTH",
"326 0 OFFCURVE",
"256 0 OFFCURVE",
"232 25 QCURVE",
"207 49 OFFCURVE",
"207 84 QCURVE SMOOTH"
);
}
);
width = 1237;
}
);
note = k;
unicode = 006B;
},
{
glyphname = l;
layers = (
{
layerId = "A424063B-2B4F-44F1-8843-9BD652D5D076";
paths = (
{
closed = 1;
nodes = (
"377 0 LINE SMOOTH",
"342 0 OFFCURVE",
"318 26 QCURVE",
"293 51 OFFCURVE",
"293 86 QCURVE SMOOTH",
"293 120 OFFCURVE",
"318 145 QCURVE SMOOTH",
"342 170 OFFCURVE",
"377 170 QCURVE SMOOTH",
"545 170 LINE",
"545 1161 LINE",
"375 1161 LINE SMOOTH",
"340 1161 OFFCURVE",
"316 1186 QCURVE",
"291 1210 OFFCURVE",
"291 1280 OFFCURVE",
"316 1305 QCURVE SMOOTH",
"340 1329 OFFCURVE",
"375 1329 QCURVE SMOOTH",
"631 1329 LINE SMOOTH",
"665 1329 OFFCURVE",
"715 1279 OFFCURVE",
"715 1245 QCURVE SMOOTH",
"715 170 LINE",
"885 170 LINE SMOOTH",
"919 170 OFFCURVE",
"969 120 OFFCURVE",
"969 86 QCURVE SMOOTH",
"969 52 OFFCURVE",
"945 26 QCURVE",
"919 0 OFFCURVE",
"885 0 QCURVE SMOOTH"
);
}
);
width = 1237;
}
);
note = l;
unicode = 006C;
},
{
glyphname = m;
layers = (
{
layerId = "A424063B-2B4F-44F1-8843-9BD652D5D076";
paths = (
{
closed = 1;
nodes = (
"186 881 LINE SMOOTH",
"186 916 OFFCURVE",
"211 941 QCURVE SMOOTH",
"235 965 OFFCURVE",
"270 965 QCURVE SMOOTH",
"336 965 OFFCURVE",
"352 901 QCURVE",
"422 967 OFFCURVE",
"508 967 QCURVE SMOOTH",
"609 967 OFFCURVE",
"674 881 QCURVE",
"754 967 OFFCURVE",
"850 967 QCURVE SMOOTH",
"928 967 OFFCURVE",
"986 912 QCURVE SMOOTH",
"1042 857 OFFCURVE",
"1047 770 QCURVE SMOOTH",
"1071 84 LINE",
"1071 50 OFFCURVE",
"1021 0 OFFCURVE",
"987 0 QCURVE SMOOTH",
"952 0 OFFCURVE",
"902 50 OFFCURVE",
"901 84 QCURVE SMOOTH",
"881 743 LINE SMOOTH",
"880 797 OFFCURVE",
"848 797 QCURVE SMOOTH",
"831 797 OFFCURVE",
"813 782 QCURVE SMOOTH",
"713 698 LINE",
"713 84 LINE SMOOTH",
"713 50 OFFCURVE",
"689 26 QCURVE SMOOTH",
"664 2 OFFCURVE",
"629 2 QCURVE SMOOTH",
"595 2 OFFCURVE",
"570 27 QCURVE SMOOTH",
"545 51 OFFCURVE",
"545 86 QCURVE SMOOTH",
"545 754 LINE SMOOTH",
"545 797 OFFCURVE",
"508 797 QCURVE SMOOTH",
"489 797 OFFCURVE",
"475 784 QCURVE",
"354 682 LINE",
"354 84 LINE SMOOTH",
"354 50 OFFCURVE",
"306 0 OFFCURVE",
"272 0 QCURVE SMOOTH",
"237 0 OFFCURVE",
"212 25 QCURVE SMOOTH",
"186 51 OFFCURVE",
"186 84 QCURVE SMOOTH"
);
}
);
width = 1237;
}
);
note = m;
unicode = 006D;
},
{
glyphname = n;
layers = (
{
layerId = "A424063B-2B4F-44F1-8843-9BD652D5D076";
paths = (
{
closed = 1;
nodes = (
"375 621 LINE",
"375 84 LINE SMOOTH",
"375 50 OFFCURVE",
"325 0 OFFCURVE",
"257 0 OFFCURVE",
"207 50 OFFCURVE",
"207 84 QCURVE SMOOTH",
"207 881 LINE SMOOTH",
"207 917 OFFCURVE",
"232 942 QCURVE SMOOTH",
"256 967 OFFCURVE",
"291 967 QCURVE SMOOTH",
"325 967 OFFCURVE",
"375 917 OFFCURVE",
"375 881 QCURVE SMOOTH",
"375 825 LINE",
"528 918 LINE SMOOTH",
"604 967 OFFCURVE",
"702 967 QCURVE SMOOTH",
"780 967 LINE SMOOTH",
"879 967 OFFCURVE",
"953 896 QCURVE SMOOTH",
"1025 827 OFFCURVE",
"1030 721 QCURVE SMOOTH",
"1053 84 LINE SMOOTH",
"1054 50 OFFCURVE",
"1004 0 OFFCURVE",
"969 0 QCURVE SMOOTH",
"937 0 OFFCURVE",
"911 23 QCURVE SMOOTH",
"887 45 OFFCURVE",
"885 84 QCURVE SMOOTH",
"860 711 LINE SMOOTH",
"857 799 OFFCURVE",
"768 799 QCURVE SMOOTH",
"686 799 OFFCURVE",
"686 799 QCURVE SMOOTH",
"648 799 OFFCURVE",
"604 770 QCURVE SMOOTH"
);
}
);
width = 1237;
}
);
note = n;
unicode = 006E;
},
{
glyphname = o;
layers = (
{
layerId = "A424063B-2B4F-44F1-8843-9BD652D5D076";
paths = (
{
closed = 1;
nodes = (
"1053 307 LINE SMOOTH",
"1053 194 OFFCURVE",
"947 98 QCURVE SMOOTH",
"840 2 OFFCURVE",
"727 2 QCURVE SMOOTH",
"530 2 LINE SMOOTH",
"416 2 OFFCURVE",
"310 100 QCURVE SMOOTH",
"205 198 OFFCURVE",
"205 307 QCURVE SMOOTH",
"205 662 LINE SMOOTH",
"205 773 OFFCURVE",
"308 870 QCURVE SMOOTH",
"409 967 OFFCURVE",
"530 967 QCURVE SMOOTH",
"727 967 LINE SMOOTH",
"841 969 OFFCURVE",
"1053 777 OFFCURVE",
"1053 662 QCURVE SMOOTH"
);
},
{
closed = 1;
nodes = (
"375 315 LINE SMOOTH",
"375 269 OFFCURVE",
"408 242 QCURVE SMOOTH",
"471 188 LINE SMOOTH",
"492 170 OFFCURVE",
"530 170 QCURVE SMOOTH",
"725 170 LINE SMOOTH",
"769 170 OFFCURVE",
"803 201 QCURVE SMOOTH",
"854 246 LINE",
"885 270 OFFCURVE",
"885 313 QCURVE SMOOTH",
"885 653 LINE SMOOTH",
"885 703 OFFCURVE",
"854 727 QCURVE SMOOTH",
"795 774 LINE",
"766 799 OFFCURVE",
"725 799 QCURVE SMOOTH",
"551 799 LINE SMOOTH",
"494 799 OFFCURVE",
"463 772 QCURVE SMOOTH",
"406 723 LINE SMOOTH",
"375 698 OFFCURVE",
"375 655 QCURVE SMOOTH"
);
}
);
width = 1237;
}
);
note = o;
unicode = 006F;
},
{
glyphname = p;
layers = (
{
layerId = "A424063B-2B4F-44F1-8843-9BD652D5D076";
paths = (
{
closed = 1;
nodes = (
"377 96 LINE",
"377 -276 LINE SMOOTH",
"377 -312 OFFCURVE",
"353 -337 QCURVE SMOOTH",
"328 -362 OFFCURVE",
"258 -362 OFFCURVE",
"233 -337 QCURVE SMOOTH",
"207 -311 OFFCURVE",
"207 -276 QCURVE SMOOTH",
"207 922 LINE SMOOTH",
"207 956 OFFCURVE",
"257 1006 OFFCURVE",
"293 1006 QCURVE SMOOTH",
"327 1006 OFFCURVE",
"377 956 OFFCURVE",
"377 922 QCURVE SMOOTH",
"377 868 LINE",
"498 1004 OFFCURVE",
"618 1004 QCURVE SMOOTH",
"657 1004 LINE SMOOTH",
"746 1004 OFFCURVE",
"821 938 QCURVE SMOOTH",
"961 817 LINE SMOOTH",
"1053 737 OFFCURVE",
"1053 614 QCURVE SMOOTH",
"1053 352 LINE SMOOTH",
"1053 228 OFFCURVE",
"954 143 QCURVE SMOOTH",
"817 25 LINE SMOOTH",
"749 -37 OFFCURVE",
"645 -37 QCURVE SMOOTH",
"608 -37 LINE SMOOTH",
"510 -37 OFFCURVE",
"442 31 QCURVE SMOOTH"
);
},
{
closed = 1;
nodes = (
"657 133 LINE SMOOTH",
"689 133 OFFCURVE",
"723 164 QCURVE SMOOTH",
"854 279 LINE",
"887 304 OFFCURVE",
"887 350 QCURVE SMOOTH",
"887 621 LINE SMOOTH",
"887 661 OFFCURVE",
"850 692 QCURVE SMOOTH",
"709 813 LINE SMOOTH",
"685 834 OFFCURVE",
"657 834 QCURVE SMOOTH",
"608 834 LINE SMOOTH",
"580 834 OFFCURVE",
"535 788 QCURVE SMOOTH",
"410 664 LINE SMOOTH",
"377 631 OFFCURVE",
"377 590 QCURVE SMOOTH",
"377 375 LINE SMOOTH",
"377 336 OFFCURVE",
"414 299 QCURVE SMOOTH",
"535 178 LINE SMOOTH",
"580 133 OFFCURVE",
"614 133 QCURVE SMOOTH"
);
}
);
width = 1237;
}
);
note = p;
unicode = 0070;
},
{
glyphname = q;
layers = (
{
layerId = "A424063B-2B4F-44F1-8843-9BD652D5D076";
paths = (
{
closed = 1;
nodes = (
"885 121 LINE",
"821 68 LINE SMOOTH",
"738 0 OFFCURVE",
"645 0 QCURVE SMOOTH",
"532 0 LINE SMOOTH",
"432 0 OFFCURVE",
"365 57 QCURVE SMOOTH",
"287 123 LINE SMOOTH",
"252 152 OFFCURVE",
"230 204 QCURVE SMOOTH",
"207 256 OFFCURVE",
"207 303 QCURVE SMOOTH",
"207 653 LINE SMOOTH",
"207 773 OFFCURVE",
"281 838 QCURVE SMOOTH",
"342 891 LINE SMOOTH",
"424 967 OFFCURVE",
"530 967 QCURVE SMOOTH",
"653 967 LINE SMOOTH",
"758 967 OFFCURVE",
"885 848 QCURVE",
"885 883 LINE SMOOTH",
"885 918 OFFCURVE",
"910 943 QCURVE SMOOTH",
"934 967 OFFCURVE",
"969 967 QCURVE SMOOTH",
"1004 967 OFFCURVE",
"1029 943 QCURVE",
"1053 918 OFFCURVE",
"1053 883 QCURVE SMOOTH",
"1053 -274 LINE SMOOTH",
"1053 -310 OFFCURVE",
"1029 -335 QCURVE SMOOTH",
"1004 -360 OFFCURVE",
"934 -360 OFFCURVE",
"910 -335 QCURVE SMOOTH",
"885 -310 OFFCURVE",
"885 -274 QCURVE SMOOTH"
);
},
{
closed = 1;
nodes = (
"641 170 LINE SMOOTH",
"684 170 OFFCURVE",
"707 188 QCURVE",
"858 317 LINE SMOOTH",
"885 341 OFFCURVE",
"885 395 QCURVE SMOOTH",
"885 588 LINE SMOOTH",
"885 621 OFFCURVE",
"850 653 QCURVE SMOOTH",
"723 766 LINE",
"692 797 OFFCURVE",
"655 797 QCURVE SMOOTH",
"518 797 LINE SMOOTH",
"489 797 OFFCURVE",
"469 778 QCURVE",
"406 723 LINE SMOOTH",
"375 696 OFFCURVE",
"375 662 QCURVE SMOOTH",
"375 307 LINE SMOOTH",
"375 274 OFFCURVE",
"410 242 QCURVE SMOOTH",
"465 193 LINE",
"494 170 OFFCURVE",
"524 170 QCURVE SMOOTH"
);
}
);
width = 1237;
}
);
note = q;
unicode = 0071;
},
{
glyphname = r;
layers = (
{
layerId = "A424063B-2B4F-44F1-8843-9BD652D5D076";
paths = (
{
closed = 1;
nodes = (
"207 881 LINE SMOOTH",
"207 917 OFFCURVE",
"232 942 QCURVE SMOOTH",
"256 967 OFFCURVE",
"326 967 OFFCURVE",
"351 942 QCURVE",
"375 916 OFFCURVE",
"375 881 QCURVE SMOOTH",
"375 776 LINE",
"512 893 LINE SMOOTH",
"598 965 OFFCURVE",
"678 965 QCURVE SMOOTH",
"801 965 LINE SMOOTH",
"905 965 OFFCURVE",
"1053 817 OFFCURVE",
"1053 713 QCURVE SMOOTH",
"1053 668 LINE SMOOTH",
"1053 632 OFFCURVE",
"1029 607 QCURVE SMOOTH",
"1004 582 OFFCURVE",
"934 582 OFFCURVE",
"910 607 QCURVE",
"885 631 OFFCURVE",
"885 666 QCURVE SMOOTH",
"885 713 LINE SMOOTH",
"885 748 OFFCURVE",
"861 773 QCURVE",
"836 797 OFFCURVE",
"801 797 QCURVE SMOOTH",
"692 797 LINE SMOOTH",
"657 797 OFFCURVE",
"614 760 QCURVE SMOOTH",
"375 553 LINE",
"375 84 LINE SMOOTH",
"375 49 OFFCURVE",
"350 25 QCURVE SMOOTH",
"325 0 OFFCURVE",
"291 0 QCURVE SMOOTH",
"256 0 OFFCURVE",
"232 25 QCURVE",
"207 49 OFFCURVE",
"207 84 QCURVE SMOOTH"
);
}
);
width = 1237;
}
);
note = r;
unicode = 0072;
},
{
glyphname = s;
layers = (
{
layerId = "A424063B-2B4F-44F1-8843-9BD652D5D076";
paths = (
{
closed = 1;
nodes = (
"827 965 LINE SMOOTH",
"916 965 OFFCURVE",
"986 912 QCURVE SMOOTH",
"1055 858 OFFCURVE",
"1055 807 QCURVE SMOOTH",
"1055 770 OFFCURVE",
"1030 748 QCURVE SMOOTH",
"1004 725 OFFCURVE",
"973 725 QCURVE SMOOTH",
"933 725 OFFCURVE",
"867 797 OFFCURVE",
"831 797 QCURVE SMOOTH",
"451 797 LINE SMOOTH",
"395 797 OFFCURVE",
"395 750 QCURVE SMOOTH",
"395 716 OFFCURVE",
"432 700 QCURVE SMOOTH",
"879 502 LINE SMOOTH",
"948 471 OFFCURVE",
"991 406 QCURVE SMOOTH",
"1034 339 OFFCURVE",
"1034 258 QCURVE SMOOTH",
"1034 150 OFFCURVE",
"958 75 QCURVE SMOOTH",
"882 0 OFFCURVE",
"784 0 QCURVE SMOOTH",
"444 0 LINE SMOOTH",
"357 0 OFFCURVE",
"281 53 QCURVE SMOOTH",
"205 105 OFFCURVE",
"205 156 QCURVE SMOOTH",
"205 190 OFFCURVE",
"230 215 QCURVE SMOOTH",
"254 240 OFFCURVE",
"293 240 QCURVE SMOOTH",
"324 240 OFFCURVE",
"362 204 QCURVE SMOOTH",
"398 168 OFFCURVE",
"467 168 QCURVE SMOOTH",
"780 168 LINE SMOOTH",
"816 168 OFFCURVE",
"842 197 QCURVE SMOOTH",
"867 225 OFFCURVE",
"867 262 QCURVE SMOOTH",
"867 318 OFFCURVE",
"811 344 QCURVE SMOOTH",
"360 547 LINE SMOOTH",
"294 576 OFFCURVE",
"260 631 QCURVE SMOOTH",
"225 687 OFFCURVE",
"225 743 QCURVE SMOOTH",
"225 833 OFFCURVE",
"288 899 QCURVE SMOOTH",
"350 965 OFFCURVE",
"442 965 QCURVE SMOOTH"
);
}
);
width = 1237;
}
);
note = s;
unicode = 0073;
},
{
glyphname = t;
layers = (
{
layerId = "A424063B-2B4F-44F1-8843-9BD652D5D076";
paths = (
{
closed = 1;
nodes = (
"629 0 LINE SMOOTH",
"526 0 OFFCURVE",
"450 74 QCURVE SMOOTH",
"375 148 OFFCURVE",
"375 252 QCURVE SMOOTH",
"375 797 LINE",
"289 797 LINE SMOOTH",
"254 797 OFFCURVE",
"230 821 QCURVE SMOOTH",
"205 845 OFFCURVE",
"205 881 QCURVE SMOOTH",
"205 916 OFFCURVE",
"230 941 QCURVE SMOOTH",
"254 965 OFFCURVE",
"289 965 QCURVE SMOOTH",
"377 965 LINE",
"377 1171 LINE SMOOTH",
"377 1206 OFFCURVE",
"402 1231 QCURVE SMOOTH",
"426 1255 OFFCURVE",
"461 1255 QCURVE SMOOTH",
"495 1255 OFFCURVE",
"545 1205 OFFCURVE",
"545 1171 QCURVE SMOOTH",
"545 965 LINE",
"883 965 LINE SMOOTH",
"917 965 OFFCURVE",
"967 915 OFFCURVE",
"967 881 QCURVE SMOOTH",
"967 846 OFFCURVE",
"942 822 QCURVE SMOOTH",
"917 797 OFFCURVE",
"883 797 QCURVE SMOOTH",
"543 797 LINE",
"543 252 LINE SMOOTH",
"543 219 OFFCURVE",
"569 193 QCURVE SMOOTH",
"594 168 OFFCURVE",
"629 168 QCURVE SMOOTH",
"793 168 LINE SMOOTH",
"860 168 OFFCURVE",
"882 241 QCURVE SMOOTH",
"904 313 OFFCURVE",
"967 313 QCURVE SMOOTH",
"1004 313 OFFCURVE",
"1028 289 QCURVE",
"1051 263 OFFCURVE",
"1051 227 QCURVE SMOOTH",
"1051 152 OFFCURVE",
"980 76 QCURVE SMOOTH",
"908 0 OFFCURVE",
"797 0 QCURVE SMOOTH"
);
}
);
width = 1237;
}
);
note = t;
unicode = 0074;
},
{
glyphname = u;
layers = (
{
layerId = "A424063B-2B4F-44F1-8843-9BD652D5D076";
paths = (
{
closed = 1;
nodes = (
"606 170 LINE",
"889 350 LINE",
"889 881 LINE SMOOTH",
"889 917 OFFCURVE",
"914 942 QCURVE SMOOTH",
"938 967 OFFCURVE",
"1008 967 OFFCURVE",
"1033 942 QCURVE",
"1057 916 OFFCURVE",
"1057 881 QCURVE SMOOTH",
"1057 84 LINE SMOOTH",
"1057 50 OFFCURVE",
"1007 0 OFFCURVE",
"939 0 OFFCURVE",
"889 50 OFFCURVE",
"889 84 QCURVE SMOOTH",
"889 150 LINE",
"743 55 LINE SMOOTH",
"658 0 OFFCURVE",
"569 0 QCURVE SMOOTH",
"491 0 LINE SMOOTH",
"388 0 OFFCURVE",
"314 72 QCURVE SMOOTH",
"239 145 OFFCURVE",
"235 248 QCURVE SMOOTH",
"211 881 LINE SMOOTH",
"209 914 OFFCURVE",
"235 940 QCURVE SMOOTH",
"260 965 OFFCURVE",
"295 965 QCURVE SMOOTH",
"329 965 OFFCURVE",
"354 940 QCURVE SMOOTH",
"378 915 OFFCURVE",
"379 881 QCURVE SMOOTH",
"401 260 LINE SMOOTH",
"404 170 OFFCURVE",
"504 170 QCURVE SMOOTH"
);
}
);
width = 1237;
}
);
note = u;
unicode = 0075;
},
{
glyphname = v;
layers = (
{
layerId = "A424063B-2B4F-44F1-8843-9BD652D5D076";
paths = (
{
closed = 1;
nodes = (
"1053 721 LINE",
"762 59 LINE",
"733 0 OFFCURVE",
"688 0 QCURVE SMOOTH",
"580 0 LINE SMOOTH",
"521 0 OFFCURVE",
"494 61 QCURVE SMOOTH",
"205 719 LINE",
"205 881 LINE SMOOTH",
"205 916 OFFCURVE",
"230 941 QCURVE SMOOTH",
"254 965 OFFCURVE",
"289 965 QCURVE SMOOTH",
"324 965 OFFCURVE",
"349 941 QCURVE",
"373 916 OFFCURVE",
"373 881 QCURVE SMOOTH",
"373 752 LINE",
"629 176 LINE",
"883 754 LINE",
"883 881 LINE SMOOTH",
"883 916 OFFCURVE",
"908 941 QCURVE",
"934 965 OFFCURVE",
"969 965 QCURVE SMOOTH",
"1004 965 OFFCURVE",
"1029 941 QCURVE",
"1053 916 OFFCURVE",
"1053 881 QCURVE SMOOTH"
);
}
);
width = 1237;
}
);
note = v;
unicode = 0076;
},
{
glyphname = w;
layers = (
{
layerId = "A424063B-2B4F-44F1-8843-9BD652D5D076";
paths = (
{
closed = 1;
nodes = (
"714 391 LINE",
"826 199 LINE",
"884 391 LINE",
"902 881 LINE SMOOTH",
"903 914 OFFCURVE",
"929 940 QCURVE SMOOTH",
"953 965 OFFCURVE",
"986 965 QCURVE SMOOTH",
"1020 965 OFFCURVE",
"1046 941 QCURVE SMOOTH",
"1072 916 OFFCURVE",
"1070 881 QCURVE SMOOTH",
"1052 358 LINE",
"962 61 LINE SMOOTH",
"943 0 OFFCURVE",
"884 0 QCURVE SMOOTH",
"794 0 LINE SMOOTH",
"747 0 OFFCURVE",
"720 47 QCURVE SMOOTH",
"628 205 LINE",
"536 49 LINE SMOOTH",
"505 0 OFFCURVE",
"462 0 QCURVE SMOOTH",
"374 0 LINE SMOOTH",
"345 0 OFFCURVE",
"322 17 QCURVE",
"298 33 OFFCURVE",
"292 57 QCURVE SMOOTH",
"204 365 LINE",
"185 881 LINE SMOOTH",
"184 914 OFFCURVE",
"210 940 QCURVE SMOOTH",
"235 965 OFFCURVE",
"271 965 QCURVE SMOOTH",
"302 965 OFFCURVE",
"328 942 QCURVE",
"352 918 OFFCURVE",
"353 881 QCURVE SMOOTH",
"372 389 LINE",
"427 201 LINE",
"544 397 LINE",
"544 592 LINE SMOOTH",
"544 627 OFFCURVE",
"569 652 QCURVE SMOOTH",
"594 676 OFFCURVE",
"630 676 QCURVE SMOOTH",
"664 676 OFFCURVE",
"689 652 QCURVE SMOOTH",
"714 627 OFFCURVE",
"714 592 QCURVE SMOOTH"
);
}
);
width = 1237;
}
);
note = w;
unicode = 0077;
},
{
glyphname = x;
layers = (
{
layerId = "A424063B-2B4F-44F1-8843-9BD652D5D076";
paths = (
{
closed = 1;
nodes = (
"645 362 LINE",
"370 35 LINE",
"343 0 OFFCURVE",
"303 0 QCURVE SMOOTH",
"267 0 OFFCURVE",
"219 50 OFFCURVE",
"219 86 QCURVE SMOOTH",
"219 118 OFFCURVE",
"235 137 QCURVE SMOOTH",
"536 498 LINE",
"258 829 LINE SMOOTH",
"239 851 OFFCURVE",
"239 879 QCURVE SMOOTH",
"239 912 OFFCURVE",
"263 939 QCURVE SMOOTH",
"286 965 OFFCURVE",
"323 965 QCURVE SMOOTH",
"366 965 OFFCURVE",
"391 934 QCURVE SMOOTH",
"645 629 LINE",
"905 936 LINE SMOOTH",
"929 965 OFFCURVE",
"965 965 QCURVE SMOOTH",
"998 965 OFFCURVE",
"1023 943 QCURVE SMOOTH",
"1049 920 OFFCURVE",
"1049 885 QCURVE SMOOTH",
"1049 852 OFFCURVE",
"1038 838 QCURVE SMOOTH",
"755 496 LINE",
"1052 137 LINE SMOOTH",
"1069 117 OFFCURVE",
"1069 90 QCURVE SMOOTH",
"1069 52 OFFCURVE",
"1044 27 QCURVE SMOOTH",
"1018 1 OFFCURVE",
"985 1 QCURVE SMOOTH",
"945 1 OFFCURVE",
"917 35 QCURVE SMOOTH"
);
}
);
width = 1237;
}
);
note = x;
unicode = 0078;
},
{
glyphname = y;
layers = (
{
layerId = "A424063B-2B4F-44F1-8843-9BD652D5D076";
paths = (
{
closed = 1;
nodes = (
"1055 719 LINE",
"602 -305 LINE",
"580 -360 OFFCURVE",
"522 -360 QCURVE SMOOTH",
"289 -360 LINE SMOOTH",
"254 -360 OFFCURVE",
"230 -336 QCURVE SMOOTH",
"205 -312 OFFCURVE",
"205 -276 QCURVE SMOOTH",
"205 -241 OFFCURVE",
"230 -217 QCURVE SMOOTH",
"254 -193 OFFCURVE",
"289 -193 QCURVE SMOOTH",
"469 -193 LINE",
"584 74 LINE",
"543 74 LINE SMOOTH",
"487 74 OFFCURVE",
"461 133 QCURVE SMOOTH",
"209 719 LINE",
"209 881 LINE SMOOTH",
"209 916 OFFCURVE",
"233 941 QCURVE SMOOTH",
"257 965 OFFCURVE",
"291 965 QCURVE SMOOTH",
"326 965 OFFCURVE",
"352 941 QCURVE",
"377 916 OFFCURVE",
"377 881 QCURVE SMOOTH",
"377 756 LINE",
"598 244 LINE",
"657 244 LINE",
"885 754 LINE",
"885 883 LINE SMOOTH",
"885 916 OFFCURVE",
"911 942 QCURVE SMOOTH",
"936 967 OFFCURVE",
"971 967 QCURVE SMOOTH",
"1005 967 OFFCURVE",
"1055 917 OFFCURVE",
"1055 883 QCURVE SMOOTH"
);
}
);
width = 1237;
}
);
note = y;
unicode = 0079;
},
{
glyphname = z;
layers = (
{
layerId = "A424063B-2B4F-44F1-8843-9BD652D5D076";
paths = (
{
closed = 1;
nodes = (
"1055 813 LINE SMOOTH",
"1055 774 OFFCURVE",
"1026 745 QCURVE SMOOTH",
"430 168 LINE",
"969 168 LINE SMOOTH",
"1004 168 OFFCURVE",
"1029 144 QCURVE",
"1053 118 OFFCURVE",
"1053 84 QCURVE SMOOTH",
"1053 49 OFFCURVE",
"1029 25 QCURVE SMOOTH",
"1004 0 OFFCURVE",
"969 0 QCURVE SMOOTH",
"293 0 LINE SMOOTH",
"257 0 OFFCURVE",
"232 25 QCURVE SMOOTH",
"207 49 OFFCURVE",
"207 84 QCURVE SMOOTH",
"207 156 LINE SMOOTH",
"207 192 OFFCURVE",
"252 236 QCURVE SMOOTH",
"836 797 LINE",
"332 797 LINE SMOOTH",
"297 797 OFFCURVE",
"273 822 QCURVE SMOOTH",
"248 847 OFFCURVE",
"248 883 QCURVE SMOOTH",
"248 917 OFFCURVE",
"298 967 OFFCURVE",
"332 967 QCURVE SMOOTH",
"971 967 OFFCURVE",
"971 967 QCURVE",
"1006 967 OFFCURVE",
"1031 942 QCURVE",
"1055 916 OFFCURVE",
"1055 881 QCURVE SMOOTH"
);
}
);
width = 1237;
}
);
note = z;
unicode = 007A;
},
{
glyphname = braceleft;
layers = (
{
layerId = "A424063B-2B4F-44F1-8843-9BD652D5D076";
paths = (
{
closed = 1;
nodes = (
"715 1161 LINE",
"715 834 LINE SMOOTH",
"715 731 OFFCURVE",
"647 666 QCURVE",
"715 604 OFFCURVE",
"715 498 QCURVE SMOOTH",
"715 170 LINE",
"971 170 LINE SMOOTH",
"1006 170 OFFCURVE",
"1031 146 QCURVE",
"1055 120 OFFCURVE",
"1055 86 QCURVE SMOOTH",
"1055 52 OFFCURVE",
"1005 2 OFFCURVE",
"971 2 QCURVE SMOOTH",
"715 2 LINE SMOOTH",
"646 2 OFFCURVE",
"597 53 QCURVE SMOOTH",
"547 105 OFFCURVE",
"547 170 QCURVE SMOOTH",
"547 492 LINE SMOOTH",
"547 526 OFFCURVE",
"521 555 QCURVE SMOOTH",
"496 582 OFFCURVE",
"461 582 QCURVE SMOOTH",
"293 582 LINE SMOOTH",
"258 582 OFFCURVE",
"234 606 QCURVE SMOOTH",
"209 630 OFFCURVE",
"209 666 QCURVE SMOOTH",
"209 701 OFFCURVE",
"234 726 QCURVE SMOOTH",
"258 750 OFFCURVE",
"293 750 QCURVE SMOOTH",
"461 750 LINE SMOOTH",
"496 750 OFFCURVE",
"521 777 QCURVE SMOOTH",
"547 805 OFFCURVE",
"547 840 QCURVE SMOOTH",
"547 1163 LINE SMOOTH",
"547 1227 OFFCURVE",
"597 1279 QCURVE SMOOTH",
"647 1329 OFFCURVE",
"715 1329 QCURVE SMOOTH",
"971 1329 LINE SMOOTH",
"1006 1329 OFFCURVE",
"1031 1305 QCURVE",
"1055 1280 OFFCURVE",
"1055 1245 QCURVE SMOOTH",
"1055 1210 OFFCURVE",
"1031 1186 QCURVE SMOOTH",
"1006 1161 OFFCURVE",
"971 1161 QCURVE SMOOTH"
);
}
);
width = 1237;
}
);
note = braceleft;
unicode = 007B;
},
{
glyphname = bar;
layers = (
{
layerId = "A424063B-2B4F-44F1-8843-9BD652D5D076";
paths = (
{
closed = 1;
nodes = (
"705 86 LINE SMOOTH",
"705 51 OFFCURVE",
"680 26 QCURVE SMOOTH",
"654 0 OFFCURVE",
"618 0 QCURVE SMOOTH",
"584 0 OFFCURVE",
"560 26 QCURVE",
"535 51 OFFCURVE",
"535 86 QCURVE SMOOTH",
"535 1247 LINE SMOOTH",
"535 1282 OFFCURVE",
"560 1306 QCURVE",
"586 1329 OFFCURVE",
"621 1329 QCURVE SMOOTH",
"654 1329 OFFCURVE",
"680 1306 QCURVE",
"705 1282 OFFCURVE",
"705 1247 QCURVE SMOOTH"
);
}
);
width = 1237;
}
);
note = bar;
unicode = 007C;
},
{
glyphname = braceright;
layers = (
{
layerId = "A424063B-2B4F-44F1-8843-9BD652D5D076";
paths = (
{
closed = 1;
nodes = (
"549 170 LINE",
"549 498 LINE SMOOTH",
"549 602 OFFCURVE",
"616 666 QCURVE",
"549 727 OFFCURVE",
"549 831 QCURVE SMOOTH",
"549 1161 LINE",
"293 1161 LINE SMOOTH",
"258 1161 OFFCURVE",
"234 1186 QCURVE",
"209 1210 OFFCURVE",
"209 1245 QCURVE SMOOTH",
"209 1279 OFFCURVE",
"234 1304 QCURVE SMOOTH",
"258 1329 OFFCURVE",
"293 1329 QCURVE SMOOTH",
"549 1329 LINE SMOOTH",
"618 1329 OFFCURVE",
"667 1278 QCURVE SMOOTH",
"717 1226 OFFCURVE",
"717 1161 QCURVE SMOOTH",
"717 838 LINE SMOOTH",
"717 803 OFFCURVE",
"743 777 QCURVE",
"768 750 OFFCURVE",
"803 750 QCURVE SMOOTH",
"971 750 LINE SMOOTH",
"1006 750 OFFCURVE",
"1031 726 QCURVE",
"1055 700 OFFCURVE",
"1055 666 QCURVE SMOOTH",
"1055 630 OFFCURVE",
"1031 605 QCURVE SMOOTH",
"1006 580 OFFCURVE",
"971 580 QCURVE SMOOTH",
"803 580 LINE SMOOTH",
"768 580 OFFCURVE",
"742 554 QCURVE SMOOTH",
"717 528 OFFCURVE",
"717 492 QCURVE SMOOTH",
"717 168 LINE SMOOTH",
"717 105 OFFCURVE",
"667 53 QCURVE SMOOTH",
"616 2 OFFCURVE",
"549 2 QCURVE SMOOTH",
"293 2 LINE SMOOTH",
"258 2 OFFCURVE",
"234 27 QCURVE",
"209 51 OFFCURVE",
"209 121 OFFCURVE",
"234 146 QCURVE SMOOTH",
"258 170 OFFCURVE",
"293 170 QCURVE SMOOTH"
);
}
);
width = 1237;
}
);
note = braceright;
unicode = 007D;
},
{
glyphname = asciitilde;
layers = (
{
layerId = "A424063B-2B4F-44F1-8843-9BD652D5D076";
paths = (
{
closed = 1;
nodes = (
"909 516 LINE",
"879 502 OFFCURVE",
"864 502 QCURVE SMOOTH",
"811 502 LINE SMOOTH",
"804 502 OFFCURVE",
"784 508 QCURVE SMOOTH",
"528 594 LINE",
"504 594 LINE",
"377 516 LINE SMOOTH",
"354 502 OFFCURVE",
"330 502 QCURVE SMOOTH",
"296 502 OFFCURVE",
"271 529 QCURVE SMOOTH",
"246 555 OFFCURVE",
"246 590 QCURVE SMOOTH",
"246 633 OFFCURVE",
"287 659 QCURVE SMOOTH",
"438 752 LINE SMOOTH",
"458 764 OFFCURVE",
"483 764 QCURVE SMOOTH",
"537 764 LINE SMOOTH",
"552 764 OFFCURVE",
"563 760 QCURVE SMOOTH",
"825 672 LINE",
"840 672 LINE",
"971 752 LINE SMOOTH",
"994 766 OFFCURVE",
"1017 766 QCURVE SMOOTH",
"1052 766 OFFCURVE",
"1077 739 QCURVE SMOOTH",
"1102 713 OFFCURVE",
"1102 677 QCURVE SMOOTH",
"1102 634 OFFCURVE",
"1061 608 QCURVE SMOOTH"
);
}
);
width = 1237;
}
);
note = asciitilde;
unicode = 007E;
},
{
glyphname = exclamdown;
layers = (
{
layerId = "A424063B-2B4F-44F1-8843-9BD652D5D076";
paths = (
{
closed = 1;
nodes = (
"752 807 LINE SMOOTH",
"752 773 OFFCURVE",
"702 723 OFFCURVE",
"666 723 QCURVE SMOOTH",
"586 723 LINE SMOOTH",
"549 723 OFFCURVE",
"525 750 QCURVE",
"500 776 OFFCURVE",
"500 809 QCURVE SMOOTH",
"500 881 LINE SMOOTH",
"500 916 OFFCURVE",
"525 941 QCURVE SMOOTH",
"549 965 OFFCURVE",
"584 965 QCURVE SMOOTH",
"668 965 LINE SMOOTH",
"702 965 OFFCURVE",
"728 941 QCURVE",
"752 916 OFFCURVE",
"752 881 QCURVE SMOOTH"
);
},
{
closed = 1;
nodes = (
"754 -276 LINE SMOOTH",
"756 -310 OFFCURVE",
"731 -335 QCURVE",
"706 -362 OFFCURVE",
"670 -362 QCURVE SMOOTH",
"586 -362 LINE SMOOTH",
"551 -362 OFFCURVE",
"525 -336 QCURVE SMOOTH",
"500 -311 OFFCURVE",
"502 -279 QCURVE SMOOTH",
"543 375 LINE SMOOTH",
"546 412 OFFCURVE",
"570 436 QCURVE SMOOTH",
"593 459 OFFCURVE",
"629 459 QCURVE SMOOTH",
"663 459 OFFCURVE",
"687 434 QCURVE SMOOTH",
"712 408 OFFCURVE",
"713 375 QCURVE SMOOTH"
);
}
);
width = 1237;
}
);
note = exclamdown;
unicode = 00A1;
},
{
glyphname = cent;
layers = (
{
layerId = "A424063B-2B4F-44F1-8843-9BD652D5D076";
paths = (
{
closed = 1;
nodes = (
"717 965 LINE",
"973 965 LINE SMOOTH",
"1008 965 OFFCURVE",
"1033 941 QCURVE",
"1057 916 OFFCURVE",
"1057 881 QCURVE SMOOTH",
"1057 845 OFFCURVE",
"1033 821 QCURVE SMOOTH",
"1008 797 OFFCURVE",
"973 797 QCURVE SMOOTH",
"612 797 LINE SMOOTH",
"578 797 OFFCURVE",
"547 770 QCURVE SMOOTH",
"412 655 LINE SMOOTH",
"379 626 OFFCURVE",
"379 580 QCURVE SMOOTH",
"379 375 LINE SMOOTH",
"379 342 OFFCURVE",
"405 319 QCURVE SMOOTH",
"553 193 LINE SMOOTH",
"581 168 OFFCURVE",
"627 168 QCURVE SMOOTH",
"971 168 LINE SMOOTH",
"1004 168 OFFCURVE",
"1030 144 QCURVE",
"1055 119 OFFCURVE",
"1055 49 OFFCURVE",
"1031 25 QCURVE SMOOTH",
"1006 0 OFFCURVE",
"971 0 QCURVE SMOOTH",
"717 0 LINE",
"717 -203 LINE SMOOTH",
"717 -238 OFFCURVE",
"692 -263 QCURVE SMOOTH",
"666 -289 OFFCURVE",
"596 -289 OFFCURVE",
"572 -263 QCURVE",
"547 -238 OFFCURVE",
"547 -203 QCURVE SMOOTH",
"547 8 LINE",
"490 23 OFFCURVE",
"450 57 QCURVE SMOOTH",
"287 199 LINE SMOOTH",
"209 264 OFFCURVE",
"209 375 QCURVE SMOOTH",
"209 594 LINE",
"205 700 OFFCURVE",
"297 780 QCURVE SMOOTH",
"444 907 LINE SMOOTH",
"494 948 OFFCURVE",
"547 958 QCURVE",
"547 1171 LINE SMOOTH",
"547 1206 OFFCURVE",
"572 1230 QCURVE",
"598 1253 OFFCURVE",
"633 1253 QCURVE SMOOTH",
"666 1253 OFFCURVE",
"692 1230 QCURVE",
"717 1206 OFFCURVE",
"717 1171 QCURVE SMOOTH"
);
}
);
width = 1237;
}
);
note = cent;
unicode = 00A2;
},
{
glyphname = sterling;
layers = (
{
layerId = "A424063B-2B4F-44F1-8843-9BD652D5D076";
paths = (
{
closed = 1;
nodes = (
"283 2 LINE SMOOTH",
"249 2 OFFCURVE",
"199 52 OFFCURVE",
"199 86 QCURVE SMOOTH",
"199 120 OFFCURVE",
"223 146 QCURVE",
"247 170 OFFCURVE",
"283 170 QCURVE SMOOTH",
"389 170 LINE",
"512 584 LINE",
"285 584 LINE SMOOTH",
"250 584 OFFCURVE",
"226 609 QCURVE SMOOTH",
"201 634 OFFCURVE",
"201 670 QCURVE SMOOTH",
"201 704 OFFCURVE",
"226 729 QCURVE SMOOTH",
"250 754 OFFCURVE",
"285 754 QCURVE SMOOTH",
"561 754 LINE",
"674 1130 LINE SMOOTH",
"734 1331 OFFCURVE",
"944 1331 QCURVE SMOOTH",
"1053 1331 OFFCURVE",
"1053 1247 QCURVE SMOOTH",
"1053 1212 OFFCURVE",
"1029 1187 QCURVE SMOOTH",
"1003 1161 OFFCURVE",
"969 1161 QCURVE SMOOTH",
"926 1161 LINE SMOOTH",
"859 1161 OFFCURVE",
"838 1090 QCURVE SMOOTH",
"737 752 LINE",
"963 752 LINE SMOOTH",
"998 752 OFFCURVE",
"1024 728 QCURVE",
"1049 703 OFFCURVE",
"1049 668 QCURVE SMOOTH",
"1049 634 OFFCURVE",
"999 584 OFFCURVE",
"965 584 QCURVE SMOOTH",
"688 584 LINE",
"567 170 LINE",
"963 170 LINE SMOOTH",
"998 170 OFFCURVE",
"1024 146 QCURVE",
"1049 121 OFFCURVE",
"1049 86 QCURVE SMOOTH",
"1049 52 OFFCURVE",
"999 2 OFFCURVE",
"963 2 QCURVE SMOOTH"
);
}
);
width = 1237;
}
);
note = sterling;
unicode = 00A3;
},
{
glyphname = currency;
layers = (
{
layerId = "A424063B-2B4F-44F1-8843-9BD652D5D076";
paths = (
{
closed = 1;
nodes = (
"1082 274 LINE SMOOTH",
"1106 250 OFFCURVE",
"1106 180 OFFCURVE",
"1082 156 QCURVE SMOOTH",
"1057 131 OFFCURVE",
"1022 131 QCURVE SMOOTH",
"988 131 OFFCURVE",
"963 156 QCURVE SMOOTH",
"867 252 LINE",
"802 205 OFFCURVE",
"711 205 QCURVE SMOOTH",
"596 205 LINE SMOOTH",
"508 205 OFFCURVE",
"441 250 QCURVE",
"344 156 LINE",
"320 131 OFFCURVE",
"250 131 OFFCURVE",
"226 156 QCURVE",
"201 180 OFFCURVE",
"201 250 OFFCURVE",
"226 274 QCURVE SMOOTH",
"316 365 LINE",
"271 430 OFFCURVE",
"271 528 QCURVE SMOOTH",
"271 641 LINE SMOOTH",
"271 742 OFFCURVE",
"316 803 QCURVE",
"226 893 LINE SMOOTH",
"201 918 OFFCURVE",
"201 952 QCURVE SMOOTH",
"201 987 OFFCURVE",
"226 1012 QCURVE SMOOTH",
"250 1036 OFFCURVE",
"320 1036 OFFCURVE",
"344 1012 QCURVE SMOOTH",
"439 918 LINE",
"506 965 OFFCURVE",
"596 965 QCURVE SMOOTH",
"711 965 LINE SMOOTH",
"801 965 OFFCURVE",
"869 918 QCURVE",
"963 1012 LINE SMOOTH",
"988 1036 OFFCURVE",
"1022 1036 QCURVE SMOOTH",
"1056 1036 OFFCURVE",
"1082 1012 QCURVE",
"1106 986 OFFCURVE",
"1106 952 QCURVE SMOOTH",
"1106 918 OFFCURVE",
"1082 893 QCURVE SMOOTH",
"992 803 LINE",
"1037 742 OFFCURVE",
"1037 641 QCURVE SMOOTH",
"1037 528 OFFCURVE",
"1037 528 QCURVE",
"1037 430 OFFCURVE",
"992 365 QCURVE"
);
},
{
closed = 1;
nodes = (
"867 621 LINE SMOOTH",
"867 696 OFFCURVE",
"836 721 QCURVE SMOOTH",
"779 770 LINE",
"750 797 OFFCURVE",
"691 797 QCURVE SMOOTH",
"617 797 LINE SMOOTH",
"560 797 OFFCURVE",
"529 770 QCURVE SMOOTH",
"471 721 LINE",
"441 692 OFFCURVE",
"441 621 QCURVE SMOOTH",
"441 549 LINE SMOOTH",
"441 474 OFFCURVE",
"471 449 QCURVE SMOOTH",
"529 399 LINE SMOOTH",
"561 373 OFFCURVE",
"617 373 QCURVE SMOOTH",
"691 373 LINE SMOOTH",
"747 373 OFFCURVE",
"779 399 QCURVE",
"836 449 LINE SMOOTH",
"867 477 OFFCURVE",
"867 549 QCURVE SMOOTH"
);
}
);
width = 1237;
}
);
note = currency;
unicode = 00A4;
},
{
glyphname = yen;
layers = (
{
layerId = "A424063B-2B4F-44F1-8843-9BD652D5D076";
paths = (
{
closed = 1;
nodes = (
"713 606 LINE",
"975 606 LINE SMOOTH",
"1011 606 OFFCURVE",
"1061 556 OFFCURVE",
"1061 522 QCURVE SMOOTH",
"1061 487 OFFCURVE",
"1036 462 QCURVE SMOOTH",
"1010 436 OFFCURVE",
"975 436 QCURVE SMOOTH",
"713 436 LINE",
"713 88 LINE SMOOTH",
"713 53 OFFCURVE",
"689 29 QCURVE SMOOTH",
"664 4 OFFCURVE",
"594 4 OFFCURVE",
"570 29 QCURVE",
"545 53 OFFCURVE",
"545 88 QCURVE SMOOTH",
"545 436 LINE",
"287 436 LINE SMOOTH",
"254 436 OFFCURVE",
"228 462 QCURVE SMOOTH",
"203 487 OFFCURVE",
"203 557 OFFCURVE",
"228 582 QCURVE",
"254 606 OFFCURVE",
"287 606 QCURVE SMOOTH",
"545 606 LINE",
"545 645 LINE",
"223 1192 LINE SMOOTH",
"205 1224 OFFCURVE",
"205 1251 QCURVE SMOOTH",
"205 1282 OFFCURVE",
"255 1332 OFFCURVE",
"290 1332 QCURVE SMOOTH",
"339 1332 OFFCURVE",
"360 1296 QCURVE SMOOTH",
"631 838 LINE",
"899 1290 LINE SMOOTH",
"922 1329 OFFCURVE",
"970 1329 QCURVE SMOOTH",
"1010 1329 OFFCURVE",
"1033 1302 QCURVE SMOOTH",
"1055 1276 OFFCURVE",
"1055 1240 QCURVE SMOOTH",
"1055 1222 OFFCURVE",
"1047 1206 QCURVE",
"713 649 OFFCURVE",
"713 649 QCURVE"
);
}
);
width = 1237;
}
);
note = yen;
unicode = 00A5;
},
{
glyphname = brokenbar;
layers = (
{
layerId = "A424063B-2B4F-44F1-8843-9BD652D5D076";
paths = (
{
closed = 1;
nodes = (
"705 870 LINE SMOOTH",
"705 835 OFFCURVE",
"680 810 QCURVE SMOOTH",
"654 784 OFFCURVE",
"618 784 QCURVE SMOOTH",
"584 784 OFFCURVE",
"560 810 QCURVE",
"535 835 OFFCURVE",
"535 870 QCURVE SMOOTH",
"535 1247 LINE SMOOTH",
"535 1282 OFFCURVE",
"560 1306 QCURVE",
"586 1329 OFFCURVE",
"621 1329 QCURVE SMOOTH",
"654 1329 OFFCURVE",
"680 1306 QCURVE",
"705 1282 OFFCURVE",
"705 1247 QCURVE SMOOTH"
);
},
{
closed = 1;
nodes = (
"705 86 LINE SMOOTH",
"705 51 OFFCURVE",
"680 26 QCURVE SMOOTH",
"654 0 OFFCURVE",
"618 0 QCURVE SMOOTH",
"584 0 OFFCURVE",
"560 26 QCURVE",
"535 51 OFFCURVE",
"535 86 QCURVE SMOOTH",
"535 463 LINE SMOOTH",
"535 497 OFFCURVE",
"560 521 QCURVE SMOOTH",
"586 545 OFFCURVE",
"621 545 QCURVE SMOOTH",
"654 545 OFFCURVE",
"680 521 QCURVE SMOOTH",
"705 497 OFFCURVE",
"705 463 QCURVE SMOOTH"
);
}
);
width = 1237;
}
);
note = brokenbar;
unicode = 00A6;
},
{
glyphname = section;
layers = (
{
layerId = "A424063B-2B4F-44F1-8843-9BD652D5D076";
paths = (
{
closed = 1;
nodes = (
"408 846 LINE",
"260 1012 LINE",
"207 1079 OFFCURVE",
"207 1141 QCURVE SMOOTH",
"207 1217 OFFCURVE",
"319 1329 OFFCURVE",
"397 1329 QCURVE SMOOTH",
"834 1329 LINE SMOOTH",
"915 1329 OFFCURVE",
"986 1262 QCURVE SMOOTH",
"1057 1194 OFFCURVE",
"1057 1098 QCURVE SMOOTH",
"1057 1062 OFFCURVE",
"1007 1012 OFFCURVE",
"975 1012 QCURVE SMOOTH",
"933 1012 OFFCURVE",
"899 1052 OFFCURVE",
"886 1105 QCURVE SMOOTH",
"871 1159 OFFCURVE",
"821 1159 QCURVE SMOOTH",
"416 1159 LINE SMOOTH",
"387 1159 OFFCURVE",
"387 1141 QCURVE SMOOTH",
"387 1126 OFFCURVE",
"399 1112 QCURVE SMOOTH",
"1001 436 LINE SMOOTH",
"1055 378 OFFCURVE",
"1055 309 QCURVE SMOOTH",
"1055 235 OFFCURVE",
"1002 179 QCURVE SMOOTH",
"948 123 OFFCURVE",
"881 123 QCURVE SMOOTH",
"850 123 LINE",
"1001 -47 LINE SMOOTH",
"1055 -106 OFFCURVE",
"1055 -174 QCURVE SMOOTH",
"1055 -248 OFFCURVE",
"1002 -304 QCURVE SMOOTH",
"948 -360 OFFCURVE",
"881 -360 QCURVE SMOOTH",
"428 -360 LINE SMOOTH",
"338 -360 OFFCURVE",
"272 -291 QCURVE SMOOTH",
"205 -223 OFFCURVE",
"205 -139 QCURVE SMOOTH",
"205 -45 OFFCURVE",
"293 -45 QCURVE SMOOTH",
"327 -45 OFFCURVE",
"351 -69 QCURVE SMOOTH",
"375 -94 OFFCURVE",
"375 -127 QCURVE SMOOTH",
"375 -154 OFFCURVE",
"394 -172 QCURVE SMOOTH",
"412 -190 OFFCURVE",
"440 -190 QCURVE SMOOTH",
"848 -190 LINE SMOOTH",
"874 -190 OFFCURVE",
"874 -170 QCURVE SMOOTH",
"874 -156 OFFCURVE",
"862 -143 QCURVE SMOOTH",
"260 528 LINE",
"207 596 OFFCURVE",
"207 657 QCURVE SMOOTH",
"207 734 OFFCURVE",
"319 846 OFFCURVE",
"397 846 QCURVE SMOOTH"
);
},
{
closed = 1;
nodes = (
"698 293 LINE",
"848 293 LINE SMOOTH",
"874 293 OFFCURVE",
"874 313 QCURVE SMOOTH",
"874 326 OFFCURVE",
"862 340 QCURVE SMOOTH",
"561 676 LINE",
"416 676 LINE SMOOTH",
"387 676 OFFCURVE",
"387 657 QCURVE SMOOTH",
"387 642 OFFCURVE",
"399 629 QCURVE SMOOTH"
);
}
);
width = 1237;
}
);
note = section;
unicode = 00A7;
},
{
glyphname = dieresis;
layers = (
{
layerId = "A424063B-2B4F-44F1-8843-9BD652D5D076";
paths = (
{
closed = 1;
nodes = (
"1049 1102 LINE SMOOTH",
"1049 1067 OFFCURVE",
"1025 1043 QCURVE SMOOTH",
"1000 1018 OFFCURVE",
"965 1018 QCURVE SMOOTH",
"929 1018 OFFCURVE",
"905 1043 QCURVE SMOOTH",
"881 1067 OFFCURVE",
"881 1102 QCURVE SMOOTH",
"881 1245 LINE SMOOTH",
"881 1281 OFFCURVE",
"906 1306 QCURVE SMOOTH",
"930 1331 OFFCURVE",
"965 1331 QCURVE SMOOTH",
"999 1331 OFFCURVE",
"1049 1281 OFFCURVE",
"1049 1245 QCURVE SMOOTH"
);
},
{
closed = 1;
nodes = (
"371 1102 LINE SMOOTH",
"371 1067 OFFCURVE",
"347 1043 QCURVE SMOOTH",
"322 1018 OFFCURVE",
"252 1018 OFFCURVE",
"228 1043 QCURVE",
"203 1067 OFFCURVE",
"203 1102 QCURVE SMOOTH",
"203 1245 LINE SMOOTH",
"203 1280 OFFCURVE",
"228 1305 QCURVE SMOOTH",
"252 1329 OFFCURVE",
"287 1329 QCURVE SMOOTH",
"322 1329 OFFCURVE",
"347 1305 QCURVE",
"371 1280 OFFCURVE",
"371 1245 QCURVE SMOOTH"
);
}
);
width = 1237;
}
);
note = dieresis;
unicode = 00A8;
},
{
glyphname = copyright;
layers = (
{
layerId = "A424063B-2B4F-44F1-8843-9BD652D5D076";
paths = (
{
closed = 1;
nodes = (
"1067 303 LINE SMOOTH",
"1067 196 OFFCURVE",
"968 99 QCURVE SMOOTH",
"868 0 OFFCURVE",
"739 0 QCURVE SMOOTH",
"498 0 LINE SMOOTH",
"369 0 OFFCURVE",
"270 99 QCURVE SMOOTH",
"170 196 OFFCURVE",
"170 303 QCURVE SMOOTH",
"170 1026 LINE SMOOTH",
"170 1132 OFFCURVE",
"270 1231 QCURVE SMOOTH",
"370 1329 OFFCURVE",
"498 1329 QCURVE SMOOTH",
"739 1329 LINE SMOOTH",
"867 1329 OFFCURVE",
"968 1231 QCURVE SMOOTH",
"1067 1132 OFFCURVE",
"1067 1026 QCURVE SMOOTH"
);
},
{
closed = 1;
nodes = (
"981 1022 LINE SMOOTH",
"981 1103 OFFCURVE",
"935 1150 QCURVE SMOOTH",
"888 1198 OFFCURVE",
"858 1221 QCURVE SMOOTH",
"829 1243 OFFCURVE",
"735 1243 QCURVE SMOOTH",
"502 1243 LINE SMOOTH",
"402 1243 OFFCURVE",
"367 1214 QCURVE SMOOTH",
"334 1185 OFFCURVE",
"295 1140 QCURVE SMOOTH",
"256 1096 OFFCURVE",
"256 1022 QCURVE SMOOTH",
"256 307 LINE SMOOTH",
"256 229 OFFCURVE",
"303 180 QCURVE SMOOTH",
"348 133 OFFCURVE",
"379 109 QCURVE SMOOTH",
"410 86 OFFCURVE",
"502 86 QCURVE SMOOTH",
"735 86 LINE SMOOTH",
"836 86 OFFCURVE",
"870 116 QCURVE SMOOTH",
"899 140 OFFCURVE",
"943 189 QCURVE SMOOTH",
"981 233 OFFCURVE",
"981 307 QCURVE SMOOTH"
);
},
{
closed = 1;
nodes = (
"629 924 LINE SMOOTH",
"613 924 OFFCURVE",
"594 887 QCURVE SMOOTH",
"496 705 LINE",
"489 695 OFFCURVE",
"489 666 QCURVE SMOOTH",
"489 641 OFFCURVE",
"500 621 QCURVE SMOOTH",
"594 442 LINE SMOOTH",
"613 408 OFFCURVE",
"629 408 QCURVE SMOOTH",
"795 408 LINE SMOOTH",
"834 408 OFFCURVE",
"856 386 QCURVE SMOOTH",
"879 363 OFFCURVE",
"879 333 QCURVE SMOOTH",
"879 301 OFFCURVE",
"856 280 QCURVE",
"834 258 OFFCURVE",
"795 258 QCURVE SMOOTH",
"641 258 LINE SMOOTH",
"593 258 OFFCURVE",
"541 289 QCURVE SMOOTH",
"487 319 OFFCURVE",
"463 365 QCURVE SMOOTH",
"365 551 LINE",
"340 619 OFFCURVE",
"340 666 QCURVE SMOOTH",
"340 738 OFFCURVE",
"367 788 QCURVE SMOOTH",
"463 967 LINE",
"484 1010 OFFCURVE",
"535 1042 QCURVE SMOOTH",
"585 1073 OFFCURVE",
"635 1073 QCURVE SMOOTH",
"797 1073 LINE SMOOTH",
"836 1073 OFFCURVE",
"858 1052 QCURVE SMOOTH",
"881 1029 OFFCURVE",
"881 967 OFFCURVE",
"858 946 QCURVE",
"836 924 OFFCURVE",
"797 924 QCURVE SMOOTH"
);
}
);
width = 1237;
}
);
note = copyright;
unicode = 00A9;
},
{
glyphname = ordfeminine;
layers = (
{
layerId = "A424063B-2B4F-44F1-8843-9BD652D5D076";
paths = (
{
closed = 1;
nodes = (
"786 970 LINE SMOOTH",
"813 970 OFFCURVE",
"864 958 QCURVE",
"862 1077 LINE",
"862 1112 OFFCURVE",
"838 1137 QCURVE",
"812 1161 OFFCURVE",
"778 1161 QCURVE SMOOTH",
"459 1161 LINE SMOOTH",
"425 1161 OFFCURVE",
"375 1211 OFFCURVE",
"375 1245 QCURVE SMOOTH",
"375 1280 OFFCURVE",
"400 1305 QCURVE SMOOTH",
"424 1329 OFFCURVE",
"459 1329 QCURVE SMOOTH",
"778 1329 LINE SMOOTH",
"883 1329 OFFCURVE",
"1029 1183 OFFCURVE",
"1032 1077 QCURVE SMOOTH",
"1053 448 LINE SMOOTH",
"1053 413 OFFCURVE",
"1028 389 QCURVE SMOOTH",
"1003 364 OFFCURVE",
"969 364 QCURVE SMOOTH",
"933 364 OFFCURVE",
"908 389 QCURVE SMOOTH",
"883 413 OFFCURVE",
"883 448 QCURVE",
"741 364 LINE",
"457 364 LINE SMOOTH",
"351 364 OFFCURVE",
"203 512 OFFCURVE",
"203 618 QCURVE SMOOTH",
"203 716 OFFCURVE",
"203 716 QCURVE",
"203 821 OFFCURVE",
"278 896 QCURVE SMOOTH",
"352 970 OFFCURVE",
"457 970 QCURVE SMOOTH"
);
},
{
closed = 1;
nodes = (
"877 643 LINE",
"872 714 LINE SMOOTH",
"870 751 OFFCURVE",
"847 774 QCURVE SMOOTH",
"823 798 OFFCURVE",
"788 798 QCURVE SMOOTH",
"457 798 LINE SMOOTH",
"422 798 OFFCURVE",
"398 774 QCURVE SMOOTH",
"373 749 OFFCURVE",
"373 714 QCURVE SMOOTH",
"373 620 LINE SMOOTH",
"373 586 OFFCURVE",
"423 536 OFFCURVE",
"457 536 QCURVE SMOOTH",
"694 536 LINE"
);
}
);
width = 1237;
}
);
note = ordfeminine;
unicode = 00AA;
},
{
glyphname = guillemotleft;
layers = (
{
layerId = "A424063B-2B4F-44F1-8843-9BD652D5D076";
paths = (
{
closed = 1;
nodes = (
"1020 305 LINE",
"1028 286 OFFCURVE",
"1028 269 QCURVE SMOOTH",
"1028 233 OFFCURVE",
"1002 210 QCURVE SMOOTH",
"975 186 OFFCURVE",
"942 186 QCURVE SMOOTH",
"889 186 OFFCURVE",
"866 233 QCURVE SMOOTH",
"725 539 LINE",
"717 560 OFFCURVE",
"717 575 QCURVE SMOOTH",
"717 594 OFFCURVE",
"725 612 QCURVE SMOOTH",
"866 918 LINE",
"890 965 OFFCURVE",
"942 965 QCURVE SMOOTH",
"974 965 OFFCURVE",
"1002 942 QCURVE",
"1028 918 OFFCURVE",
"1028 882 QCURVE SMOOTH",
"1028 865 OFFCURVE",
"1020 846 QCURVE SMOOTH",
"895 575 OFFCURVE",
"895 575 QCURVE"
);
},
{
closed = 1;
nodes = (
"510 305 LINE",
"518 286 OFFCURVE",
"518 269 QCURVE SMOOTH",
"518 233 OFFCURVE",
"492 210 QCURVE SMOOTH",
"465 186 OFFCURVE",
"432 186 QCURVE SMOOTH",
"379 186 OFFCURVE",
"356 233 QCURVE SMOOTH",
"215 539 LINE",
"207 560 OFFCURVE",
"207 575 QCURVE SMOOTH",
"207 594 OFFCURVE",
"215 612 QCURVE SMOOTH",
"356 918 LINE",
"380 965 OFFCURVE",
"432 965 QCURVE SMOOTH",
"464 965 OFFCURVE",
"492 942 QCURVE",
"518 918 OFFCURVE",
"518 882 QCURVE SMOOTH",
"518 865 OFFCURVE",
"510 846 QCURVE SMOOTH",
"385 575 LINE"
);
}
);
width = 1237;
}
);
note = guillemotleft;
unicode = 00AB;
},
{
glyphname = logicalnot;
layers = (
{
layerId = "A424063B-2B4F-44F1-8843-9BD652D5D076";
paths = (
{
closed = 1;
nodes = (
"1047 328 LINE SMOOTH",
"1047 294 OFFCURVE",
"997 244 OFFCURVE",
"963 244 QCURVE SMOOTH",
"927 244 OFFCURVE",
"902 269 QCURVE SMOOTH",
"877 293 OFFCURVE",
"877 328 QCURVE SMOOTH",
"877 584 LINE",
"276 584 LINE SMOOTH",
"241 584 OFFCURVE",
"193 632 OFFCURVE",
"193 668 QCURVE SMOOTH",
"193 702 OFFCURVE",
"217 728 QCURVE",
"241 752 OFFCURVE",
"276 752 QCURVE SMOOTH",
"961 752 LINE SMOOTH",
"996 752 OFFCURVE",
"1022 728 QCURVE",
"1047 703 OFFCURVE",
"1047 668 QCURVE SMOOTH"
);
}
);
width = 1237;
}
);
note = logicalnot;
unicode = 00AC;
},
{
glyphname = uni00AD;
layers = (
{
layerId = "A424063B-2B4F-44F1-8843-9BD652D5D076";
paths = (
{
closed = 1;
nodes = (
"1053 596 LINE SMOOTH",
"1053 562 OFFCURVE",
"1029 536 QCURVE",
"1003 510 OFFCURVE",
"969 510 QCURVE SMOOTH",
"291 510 LINE SMOOTH",
"256 510 OFFCURVE",
"232 536 QCURVE",
"207 561 OFFCURVE",
"207 596 QCURVE SMOOTH",
"207 670 LINE SMOOTH",
"207 705 OFFCURVE",
"232 730 QCURVE SMOOTH",
"256 754 OFFCURVE",
"291 754 QCURVE SMOOTH",
"969 754 OFFCURVE",
"969 754 QCURVE",
"1001 754 OFFCURVE",
"1027 731 QCURVE SMOOTH",
"1053 707 OFFCURVE",
"1053 670 QCURVE SMOOTH"
);
}
);
width = 1237;
}
);
note = uni00AD;
unicode = 00AD;
},
{
glyphname = registered;
layers = (
{
layerId = "A424063B-2B4F-44F1-8843-9BD652D5D076";
paths = (
{
closed = 1;
nodes = (
"1067 303 LINE SMOOTH",
"1067 196 OFFCURVE",
"968 99 QCURVE SMOOTH",
"868 0 OFFCURVE",
"739 0 QCURVE SMOOTH",
"498 0 LINE SMOOTH",
"369 0 OFFCURVE",
"270 99 QCURVE SMOOTH",
"170 196 OFFCURVE",
"170 303 QCURVE SMOOTH",
"170 1026 LINE SMOOTH",
"170 1132 OFFCURVE",
"270 1231 QCURVE SMOOTH",
"370 1329 OFFCURVE",
"498 1329 QCURVE SMOOTH",
"739 1329 LINE SMOOTH",
"867 1329 OFFCURVE",
"968 1231 QCURVE SMOOTH",
"1067 1132 OFFCURVE",
"1067 1026 QCURVE SMOOTH"
);
},
{
closed = 1;
nodes = (
"981 1022 LINE SMOOTH",
"981 1103 OFFCURVE",
"935 1150 QCURVE SMOOTH",
"888 1198 OFFCURVE",
"858 1221 QCURVE SMOOTH",
"829 1243 OFFCURVE",
"735 1243 QCURVE SMOOTH",
"502 1243 LINE SMOOTH",
"402 1243 OFFCURVE",
"367 1214 QCURVE SMOOTH",
"334 1185 OFFCURVE",
"295 1140 QCURVE SMOOTH",
"256 1096 OFFCURVE",
"256 1022 QCURVE SMOOTH",
"256 307 LINE SMOOTH",
"256 229 OFFCURVE",
"303 180 QCURVE SMOOTH",
"348 133 OFFCURVE",
"379 109 QCURVE SMOOTH",
"410 86 OFFCURVE",
"502 86 QCURVE SMOOTH",
"735 86 LINE SMOOTH",
"836 86 OFFCURVE",
"870 116 QCURVE SMOOTH",
"899 140 OFFCURVE",
"943 189 QCURVE SMOOTH",
"981 233 OFFCURVE",
"981 307 QCURVE SMOOTH"
);
},
{
closed = 1;
nodes = (
"367 1073 LINE",
"653 1073 LINE SMOOTH",
"758 1073 OFFCURVE",
"831 998 QCURVE SMOOTH",
"905 922 OFFCURVE",
"905 819 QCURVE SMOOTH",
"905 622 OFFCURVE",
"725 578 QCURVE",
"860 391 LINE SMOOTH",
"883 359 OFFCURVE",
"883 324 QCURVE SMOOTH",
"883 295 OFFCURVE",
"864 276 QCURVE SMOOTH",
"844 256 OFFCURVE",
"815 256 QCURVE SMOOTH",
"776 256 OFFCURVE",
"743 301 QCURVE SMOOTH",
"553 567 LINE",
"516 567 LINE",
"516 330 LINE SMOOTH",
"516 298 OFFCURVE",
"495 277 QCURVE",
"472 256 OFFCURVE",
"408 256 OFFCURVE",
"388 277 QCURVE SMOOTH",
"367 298 OFFCURVE",
"367 330 QCURVE SMOOTH"
);
},
{
closed = 1;
nodes = (
"514 715 LINE",
"653 715 LINE SMOOTH",
"758 715 OFFCURVE",
"758 819 QCURVE SMOOTH",
"758 866 OFFCURVE",
"729 897 QCURVE",
"698 926 OFFCURVE",
"653 926 QCURVE SMOOTH",
"514 926 LINE"
);
}
);
width = 1237;
}
);
note = registered;
unicode = 00AE;
},
{
glyphname = macron;
layers = (
{
layerId = "A424063B-2B4F-44F1-8843-9BD652D5D076";
paths = (
{
closed = 1;
nodes = (
"1247 1415 OFFCURVE",
"1247 1415 QCURVE SMOOTH",
"-10 1415 OFFCURVE",
"-10 1415 QCURVE",
"-10 1585 OFFCURVE",
"-10 1585 QCURVE",
"1247 1585 OFFCURVE",
"1247 1585 QCURVE"
);
}
);
width = 1237;
}
);
note = macron;
unicode = 00AF;
},
{
glyphname = degree;
layers = (
{
layerId = "A424063B-2B4F-44F1-8843-9BD652D5D076";
paths = (
{
closed = 1;
nodes = (
"1012 874 LINE SMOOTH",
"1012 762 OFFCURVE",
"906 666 QCURVE SMOOTH",
"800 569 OFFCURVE",
"686 569 QCURVE SMOOTH",
"571 569 LINE SMOOTH",
"457 569 OFFCURVE",
"351 667 QCURVE SMOOTH",
"246 764 OFFCURVE",
"246 874 QCURVE SMOOTH",
"246 1024 LINE SMOOTH",
"246 1137 OFFCURVE",
"454 1329 OFFCURVE",
"571 1329 QCURVE SMOOTH",
"686 1329 LINE SMOOTH",
"800 1329 OFFCURVE",
"907 1234 QCURVE SMOOTH",
"1012 1140 OFFCURVE",
"1012 1024 QCURVE SMOOTH"
);
},
{
closed = 1;
nodes = (
"844 1016 LINE SMOOTH",
"844 1065 OFFCURVE",
"813 1090 QCURVE SMOOTH",
"754 1137 LINE SMOOTH",
"724 1161 OFFCURVE",
"684 1161 QCURVE SMOOTH",
"592 1161 LINE SMOOTH",
"536 1161 OFFCURVE",
"504 1135 QCURVE SMOOTH",
"446 1085 LINE SMOOTH",
"416 1060 OFFCURVE",
"416 1018 QCURVE SMOOTH",
"416 883 LINE SMOOTH",
"416 836 OFFCURVE",
"449 809 QCURVE SMOOTH",
"512 756 LINE",
"532 737 OFFCURVE",
"571 737 QCURVE SMOOTH",
"684 737 LINE SMOOTH",
"728 737 OFFCURVE",
"762 768 QCURVE SMOOTH",
"813 813 LINE",
"844 837 OFFCURVE",
"844 881 QCURVE SMOOTH"
);
}
);
width = 1237;
}
);
note = degree;
unicode = 00B0;
},
{
glyphname = plusminus;
layers = (
{
layerId = "A424063B-2B4F-44F1-8843-9BD652D5D076";
paths = (
{
closed = 1;
nodes = (
"702 752 LINE",
"961 752 LINE SMOOTH",
"996 752 OFFCURVE",
"1022 728 QCURVE",
"1047 703 OFFCURVE",
"1047 633 OFFCURVE",
"1022 609 QCURVE SMOOTH",
"997 584 OFFCURVE",
"961 584 QCURVE SMOOTH",
"705 584 LINE",
"705 326 LINE SMOOTH",
"705 290 OFFCURVE",
"655 240 OFFCURVE",
"618 240 QCURVE SMOOTH",
"584 240 OFFCURVE",
"560 265 QCURVE SMOOTH",
"535 290 OFFCURVE",
"535 326 QCURVE SMOOTH",
"535 584 LINE",
"276 584 LINE SMOOTH",
"242 584 OFFCURVE",
"218 609 QCURVE",
"193 633 OFFCURVE",
"193 668 QCURVE SMOOTH",
"193 702 OFFCURVE",
"218 727 QCURVE SMOOTH",
"242 752 OFFCURVE",
"276 752 QCURVE SMOOTH",
"535 752 LINE",
"535 1010 LINE SMOOTH",
"535 1044 OFFCURVE",
"560 1068 QCURVE SMOOTH",
"586 1092 OFFCURVE",
"621 1092 QCURVE SMOOTH",
"655 1092 OFFCURVE",
"679 1068 QCURVE",
"702 1043 OFFCURVE",
"702 1010 QCURVE SMOOTH"
);
},
{
closed = 1;
nodes = (
"961 168 LINE SMOOTH",
"996 168 OFFCURVE",
"1022 144 QCURVE",
"1047 119 OFFCURVE",
"1047 49 OFFCURVE",
"1022 25 QCURVE SMOOTH",
"997 0 OFFCURVE",
"961 0 QCURVE SMOOTH",
"276 0 LINE SMOOTH",
"242 0 OFFCURVE",
"218 25 QCURVE",
"193 49 OFFCURVE",
"193 119 OFFCURVE",
"218 144 QCURVE SMOOTH",
"242 168 OFFCURVE",
"276 168 QCURVE SMOOTH"
);
}
);
width = 1237;
}
);
note = plusminus;
unicode = 00B1;
},
{
glyphname = uni00B2;
layers = (
{
layerId = "A424063B-2B4F-44F1-8843-9BD652D5D076";
paths = (
{
closed = 1;
nodes = (
"893 1077 LINE SMOOTH",
"893 1025 OFFCURVE",
"850 982 QCURVE SMOOTH",
"806 938 OFFCURVE",
"754 938 QCURVE SMOOTH",
"543 938 LINE",
"543 842 LINE",
"797 842 LINE SMOOTH",
"830 842 OFFCURVE",
"850 821 QCURVE",
"870 798 OFFCURVE",
"870 738 OFFCURVE",
"850 716 QCURVE SMOOTH",
"831 694 OFFCURVE",
"797 694 QCURVE SMOOTH",
"469 694 LINE SMOOTH",
"395 694 OFFCURVE",
"395 768 QCURVE SMOOTH",
"395 946 LINE SMOOTH",
"395 998 OFFCURVE",
"439 1042 QCURVE SMOOTH",
"482 1085 OFFCURVE",
"535 1085 QCURVE SMOOTH",
"745 1085 LINE",
"745 1182 LINE",
"479 1182 LINE SMOOTH",
"446 1182 OFFCURVE",
"426 1203 QCURVE SMOOTH",
"406 1225 OFFCURVE",
"406 1285 OFFCURVE",
"426 1308 QCURVE",
"446 1329 OFFCURVE",
"479 1329 QCURVE SMOOTH",
"754 1329 LINE SMOOTH",
"807 1329 OFFCURVE",
"893 1243 OFFCURVE",
"893 1190 QCURVE SMOOTH"
);
}
);
width = 1237;
}
);
note = uni00B2;
unicode = 00B2;
},
{
glyphname = uni00B3;
layers = (
{
layerId = "A424063B-2B4F-44F1-8843-9BD652D5D076";
paths = (
{
closed = 1;
nodes = (
"966 834 LINE SMOOTH",
"966 781 OFFCURVE",
"923 738 QCURVE SMOOTH",
"879 694 OFFCURVE",
"827 694 QCURVE SMOOTH",
"552 694 LINE SMOOTH",
"518 694 OFFCURVE",
"499 716 QCURVE SMOOTH",
"479 738 OFFCURVE",
"479 798 OFFCURVE",
"499 821 QCURVE SMOOTH",
"518 842 OFFCURVE",
"552 842 QCURVE SMOOTH",
"818 842 LINE",
"818 938 LINE",
"704 938 LINE SMOOTH",
"669 938 OFFCURVE",
"650 960 QCURVE SMOOTH",
"630 982 OFFCURVE",
"630 1042 OFFCURVE",
"650 1064 QCURVE SMOOTH",
"670 1085 OFFCURVE",
"704 1085 QCURVE SMOOTH",
"818 1085 LINE",
"818 1182 LINE",
"552 1182 LINE SMOOTH",
"518 1182 OFFCURVE",
"499 1203 QCURVE SMOOTH",
"479 1225 OFFCURVE",
"479 1285 OFFCURVE",
"499 1308 QCURVE SMOOTH",
"518 1329 OFFCURVE",
"552 1329 QCURVE SMOOTH",
"827 1329 LINE SMOOTH",
"880 1329 OFFCURVE",
"966 1243 OFFCURVE",
"966 1190 QCURVE SMOOTH",
"966 1077 LINE SMOOTH",
"966 1040 OFFCURVE",
"941 1012 QCURVE",
"966 984 OFFCURVE",
"966 946 QCURVE SMOOTH"
);
}
);
width = 1237;
}
);
note = uni00B3;
unicode = 00B3;
},
{
glyphname = acute;
layers = (
{
layerId = "A424063B-2B4F-44F1-8843-9BD652D5D076";
paths = (
{
closed = 1;
nodes = (
"743 1321 LINE SMOOTH",
"762 1329 OFFCURVE",
"780 1329 QCURVE SMOOTH",
"816 1329 OFFCURVE",
"839 1303 QCURVE",
"862 1275 OFFCURVE",
"862 1243 QCURVE SMOOTH",
"862 1190 OFFCURVE",
"815 1167 QCURVE SMOOTH",
"510 1026 LINE SMOOTH",
"491 1018 OFFCURVE",
"473 1018 QCURVE SMOOTH",
"436 1018 OFFCURVE",
"414 1045 QCURVE",
"391 1071 OFFCURVE",
"391 1104 QCURVE SMOOTH",
"391 1157 OFFCURVE",
"438 1180 QCURVE SMOOTH"
);
}
);
width = 1237;
}
);
note = acute;
unicode = 00B4;
},
{
glyphname = mu;
layers = (
{
layerId = "A424063B-2B4F-44F1-8843-9BD652D5D076";
paths = (
{
closed = 1;
nodes = (
"1058 84 LINE SMOOTH",
"1058 50 OFFCURVE",
"1008 0 OFFCURVE",
"940 0 OFFCURVE",
"890 50 OFFCURVE",
"890 84 QCURVE SMOOTH",
"890 150 LINE",
"744 55 LINE SMOOTH",
"659 0 OFFCURVE",
"570 0 QCURVE SMOOTH",
"468 0 LINE SMOOTH",
"423 0 OFFCURVE",
"378 16 QCURVE",
"378 -276 LINE SMOOTH",
"378 -312 OFFCURVE",
"354 -336 QCURVE",
"328 -360 OFFCURVE",
"294 -360 QCURVE SMOOTH",
"257 -360 OFFCURVE",
"234 -331 QCURVE SMOOTH",
"210 -302 OFFCURVE",
"210 -276 QCURVE SMOOTH",
"210 881 LINE",
"207 914 OFFCURVE",
"233 940 QCURVE SMOOTH",
"258 965 OFFCURVE",
"294 965 QCURVE SMOOTH",
"331 965 OFFCURVE",
"355 937 QCURVE",
"378 908 OFFCURVE",
"378 881 QCURVE SMOOTH",
"378 260 LINE SMOOTH",
"381 170 OFFCURVE",
"480 170 QCURVE SMOOTH",
"607 170 LINE",
"890 350 LINE",
"890 881 LINE SMOOTH",
"890 917 OFFCURVE",
"915 942 QCURVE SMOOTH",
"939 967 OFFCURVE",
"1009 967 OFFCURVE",
"1034 942 QCURVE",
"1058 916 OFFCURVE",
"1058 881 QCURVE SMOOTH"
);
}
);
width = 1237;
}
);
note = mu;
unicode = 00B5;
},
{
glyphname = paragraph;
layers = (
{
layerId = "A424063B-2B4F-44F1-8843-9BD652D5D076";
paths = (
{
closed = 1;
nodes = (
"1034 84 LINE SMOOTH",
"1034 49 OFFCURVE",
"1009 25 QCURVE SMOOTH",
"984 0 OFFCURVE",
"948 0 QCURVE SMOOTH",
"913 0 OFFCURVE",
"889 25 QCURVE",
"864 49 OFFCURVE",
"864 84 QCURVE SMOOTH",
"864 1159 LINE",
"694 1159 LINE",
"694 84 LINE SMOOTH",
"694 49 OFFCURVE",
"669 25 QCURVE SMOOTH",
"644 0 OFFCURVE",
"608 0 QCURVE SMOOTH",
"573 0 OFFCURVE",
"549 25 QCURVE",
"524 49 OFFCURVE",
"524 84 QCURVE SMOOTH",
"524 508 LINE",
"438 508 LINE SMOOTH",
"334 508 OFFCURVE",
"186 656 OFFCURVE",
"186 760 QCURVE SMOOTH",
"186 1075 LINE SMOOTH",
"186 1179 OFFCURVE",
"261 1254 QCURVE SMOOTH",
"334 1329 OFFCURVE",
"438 1329 QCURVE SMOOTH",
"1034 1329 OFFCURVE",
"1034 1329 QCURVE"
);
}
);
width = 1237;
}
);
note = paragraph;
unicode = 00B6;
},
{
glyphname = cedilla;
layers = (
{
layerId = "A424063B-2B4F-44F1-8843-9BD652D5D076";
paths = (
{
closed = 1;
nodes = (
"883 -274 LINE SMOOTH",
"883 -310 OFFCURVE",
"859 -335 QCURVE SMOOTH",
"834 -360 OFFCURVE",
"799 -360 QCURVE SMOOTH",
"459 -360 LINE SMOOTH",
"425 -360 OFFCURVE",
"375 -310 OFFCURVE",
"375 -276 QCURVE SMOOTH",
"375 -240 OFFCURVE",
"400 -215 QCURVE SMOOTH",
"424 -190 OFFCURVE",
"459 -190 QCURVE SMOOTH",
"715 -190 OFFCURVE",
"715 -190 QCURVE",
"715 0 OFFCURVE",
"715 0 QCURVE",
"883 0 OFFCURVE",
"883 0 QCURVE"
);
}
);
width = 1237;
}
);
note = cedilla;
unicode = 00B8;
},
{
glyphname = uni00B9;
layers = (
{
layerId = "A424063B-2B4F-44F1-8843-9BD652D5D076";
paths = (
{
closed = 1;
nodes = (
"551 694 LINE SMOOTH",
"517 694 OFFCURVE",
"498 716 QCURVE",
"477 737 OFFCURVE",
"477 768 QCURVE SMOOTH",
"477 798 OFFCURVE",
"498 821 QCURVE SMOOTH",
"518 842 OFFCURVE",
"551 842 QCURVE SMOOTH",
"641 842 LINE",
"641 1182 LINE",
"551 1182 LINE SMOOTH",
"518 1182 OFFCURVE",
"498 1203 QCURVE SMOOTH",
"477 1224 OFFCURVE",
"477 1286 OFFCURVE",
"498 1308 QCURVE SMOOTH",
"518 1329 OFFCURVE",
"551 1329 QCURVE SMOOTH",
"715 1329 LINE SMOOTH",
"789 1329 OFFCURVE",
"789 1255 QCURVE SMOOTH",
"789 842 LINE",
"879 842 LINE SMOOTH",
"912 842 OFFCURVE",
"933 821 QCURVE",
"953 798 OFFCURVE",
"953 738 OFFCURVE",
"933 716 QCURVE SMOOTH",
"912 694 OFFCURVE",
"879 694 QCURVE SMOOTH"
);
}
);
width = 1237;
}
);
note = uni00B9;
unicode = 00B9;
},
{
glyphname = ordmasculine;
layers = (
{
layerId = "A424063B-2B4F-44F1-8843-9BD652D5D076";
paths = (
{
closed = 1;
nodes = (
"1053 671 LINE SMOOTH",
"1053 558 OFFCURVE",
"947 462 QCURVE SMOOTH",
"840 366 OFFCURVE",
"727 366 QCURVE SMOOTH",
"530 366 LINE SMOOTH",
"416 366 OFFCURVE",
"310 464 QCURVE SMOOTH",
"205 562 OFFCURVE",
"205 671 QCURVE SMOOTH",
"205 1026 LINE SMOOTH",
"205 1137 OFFCURVE",
"308 1234 QCURVE SMOOTH",
"409 1331 OFFCURVE",
"530 1331 QCURVE SMOOTH",
"727 1331 LINE SMOOTH",
"841 1333 OFFCURVE",
"1053 1141 OFFCURVE",
"1053 1026 QCURVE SMOOTH"
);
},
{
closed = 1;
nodes = (
"375 679 LINE SMOOTH",
"375 633 OFFCURVE",
"408 606 QCURVE SMOOTH",
"471 552 LINE SMOOTH",
"492 534 OFFCURVE",
"530 534 QCURVE SMOOTH",
"725 534 LINE SMOOTH",
"769 534 OFFCURVE",
"803 565 QCURVE SMOOTH",
"854 610 LINE",
"885 634 OFFCURVE",
"885 677 QCURVE SMOOTH",
"885 1017 LINE SMOOTH",
"885 1067 OFFCURVE",
"854 1091 QCURVE SMOOTH",
"795 1138 LINE",
"766 1163 OFFCURVE",
"725 1163 QCURVE SMOOTH",
"551 1163 LINE SMOOTH",
"494 1163 OFFCURVE",
"463 1136 QCURVE SMOOTH",
"406 1087 LINE SMOOTH",
"375 1062 OFFCURVE",
"375 1019 QCURVE SMOOTH"
);
}
);
width = 1237;
}
);
note = ordmasculine;
unicode = 00BA;
},
{
glyphname = guillemotright;
layers = (
{
layerId = "A424063B-2B4F-44F1-8843-9BD652D5D076";
paths = (
{
closed = 1;
nodes = (
"860 575 LINE",
"735 846 LINE SMOOTH",
"727 864 OFFCURVE",
"727 882 QCURVE SMOOTH",
"727 918 OFFCURVE",
"754 942 QCURVE SMOOTH",
"780 965 OFFCURVE",
"813 965 QCURVE SMOOTH",
"866 965 OFFCURVE",
"889 918 QCURVE SMOOTH",
"1030 612 LINE",
"1038 591 OFFCURVE",
"1038 575 QCURVE SMOOTH",
"1038 557 OFFCURVE",
"1030 539 QCURVE SMOOTH",
"889 233 LINE",
"865 186 OFFCURVE",
"813 186 QCURVE SMOOTH",
"780 186 OFFCURVE",
"754 210 QCURVE",
"727 232 OFFCURVE",
"727 269 QCURVE SMOOTH",
"727 286 OFFCURVE",
"735 305 QCURVE"
);
},
{
closed = 1;
nodes = (
"350 575 LINE",
"225 846 LINE SMOOTH",
"217 864 OFFCURVE",
"217 882 QCURVE SMOOTH",
"217 918 OFFCURVE",
"244 942 QCURVE SMOOTH",
"270 965 OFFCURVE",
"303 965 QCURVE SMOOTH",
"356 965 OFFCURVE",
"379 918 QCURVE SMOOTH",
"520 612 LINE",
"528 591 OFFCURVE",
"528 575 QCURVE SMOOTH",
"528 557 OFFCURVE",
"520 539 QCURVE SMOOTH",
"379 233 LINE",
"355 186 OFFCURVE",
"303 186 QCURVE SMOOTH",
"270 186 OFFCURVE",
"244 210 QCURVE",
"217 232 OFFCURVE",
"217 269 QCURVE SMOOTH",
"217 286 OFFCURVE",
"225 305 QCURVE"
);
}
);
width = 1237;
}
);
note = guillemotright;
unicode = 00BB;
},
{
glyphname = onequarter;
layers = (
{
layerId = "A424063B-2B4F-44F1-8843-9BD652D5D076";
paths = (
{
closed = 1;
nodes = (
"124 694 LINE SMOOTH",
"90 694 OFFCURVE",
"71 716 QCURVE",
"50 737 OFFCURVE",
"50 768 QCURVE SMOOTH",
"50 798 OFFCURVE",
"71 821 QCURVE SMOOTH",
"90 842 OFFCURVE",
"124 842 QCURVE SMOOTH",
"214 842 LINE",
"214 1182 LINE",
"124 1182 LINE SMOOTH",
"90 1182 OFFCURVE",
"71 1203 QCURVE",
"50 1224 OFFCURVE",
"50 1286 OFFCURVE",
"71 1308 QCURVE SMOOTH",
"90 1329 OFFCURVE",
"124 1329 QCURVE SMOOTH",
"288 1329 LINE SMOOTH",
"362 1329 OFFCURVE",
"362 1255 QCURVE SMOOTH",
"362 842 LINE",
"452 842 LINE SMOOTH",
"485 842 OFFCURVE",
"506 821 QCURVE",
"526 798 OFFCURVE",
"526 738 OFFCURVE",
"506 716 QCURVE SMOOTH",
"485 694 OFFCURVE",
"452 694 QCURVE SMOOTH"
);
},
{
closed = 1;
nodes = (
"148 35 LINE SMOOTH",
"126 10 OFFCURVE",
"66 10 OFFCURVE",
"43 34 QCURVE SMOOTH",
"20 57 OFFCURVE",
"20 86 QCURVE SMOOTH",
"20 114 OFFCURVE",
"41 137 QCURVE SMOOTH",
"1131 1294 LINE SMOOTH",
"1153 1319 OFFCURVE",
"1213 1319 OFFCURVE",
"1259 1273 OFFCURVE",
"1259 1243 QCURVE SMOOTH",
"1259 1214 OFFCURVE",
"1238 1192 QCURVE SMOOTH"
);
},
{
closed = 1;
nodes = (
"1195 147 LINE",
"1195 74 LINE SMOOTH",
"1195 40 OFFCURVE",
"1174 20 QCURVE",
"1151 0 OFFCURVE",
"1091 0 OFFCURVE",
"1069 20 QCURVE SMOOTH",
"1047 39 OFFCURVE",
"1047 74 QCURVE SMOOTH",
"1047 147 LINE",
"783 147 LINE SMOOTH",
"709 147 OFFCURVE",
"709 221 QCURVE SMOOTH",
"709 561 LINE SMOOTH",
"709 596 OFFCURVE",
"731 615 QCURVE SMOOTH",
"753 635 OFFCURVE",
"813 635 OFFCURVE",
"836 615 QCURVE SMOOTH",
"857 596 OFFCURVE",
"857 561 QCURVE SMOOTH",
"857 295 LINE",
"1047 295 LINE",
"1047 541 LINE SMOOTH",
"1047 575 OFFCURVE",
"1069 594 QCURVE SMOOTH",
"1091 614 OFFCURVE",
"1151 614 OFFCURVE",
"1174 594 QCURVE",
"1195 574 OFFCURVE",
"1195 541 QCURVE SMOOTH",
"1195 295 LINE",
"1215 295 LINE SMOOTH",
"1250 295 OFFCURVE",
"1269 274 QCURVE SMOOTH",
"1289 251 OFFCURVE",
"1289 191 OFFCURVE",
"1269 169 QCURVE SMOOTH",
"1250 147 OFFCURVE",
"1215 147 QCURVE SMOOTH"
);
}
);
width = 1237;
}
);
note = onequarter;
unicode = 00BC;
},
{
glyphname = onehalf;
layers = (
{
layerId = "A424063B-2B4F-44F1-8843-9BD652D5D076";
paths = (
{
closed = 1;
nodes = (
"124 694 LINE SMOOTH",
"90 694 OFFCURVE",
"71 716 QCURVE",
"50 737 OFFCURVE",
"50 768 QCURVE SMOOTH",
"50 798 OFFCURVE",
"71 821 QCURVE SMOOTH",
"90 842 OFFCURVE",
"124 842 QCURVE SMOOTH",
"214 842 LINE",
"214 1182 LINE",
"124 1182 LINE SMOOTH",
"90 1182 OFFCURVE",
"71 1203 QCURVE",
"50 1224 OFFCURVE",
"50 1286 OFFCURVE",
"71 1308 QCURVE SMOOTH",
"90 1329 OFFCURVE",
"124 1329 QCURVE SMOOTH",
"288 1329 LINE SMOOTH",
"362 1329 OFFCURVE",
"362 1255 QCURVE SMOOTH",
"362 842 LINE",
"452 842 LINE SMOOTH",
"485 842 OFFCURVE",
"506 821 QCURVE",
"526 798 OFFCURVE",
"526 738 OFFCURVE",
"506 716 QCURVE SMOOTH",
"485 694 OFFCURVE",
"452 694 QCURVE SMOOTH"
);
},
{
closed = 1;
nodes = (
"148 35 LINE SMOOTH",
"126 10 OFFCURVE",
"66 10 OFFCURVE",
"43 34 QCURVE SMOOTH",
"20 57 OFFCURVE",
"20 86 QCURVE SMOOTH",
"20 114 OFFCURVE",
"41 137 QCURVE SMOOTH",
"1131 1294 LINE SMOOTH",
"1153 1319 OFFCURVE",
"1213 1319 OFFCURVE",
"1259 1273 OFFCURVE",
"1259 1243 QCURVE SMOOTH",
"1259 1214 OFFCURVE",
"1238 1192 QCURVE SMOOTH"
);
},
{
closed = 1;
nodes = (
"1207 383 LINE SMOOTH",
"1207 331 OFFCURVE",
"1164 288 QCURVE SMOOTH",
"1120 244 OFFCURVE",
"1068 244 QCURVE SMOOTH",
"857 244 LINE",
"857 148 LINE",
"1111 148 LINE SMOOTH",
"1144 148 OFFCURVE",
"1164 127 QCURVE",
"1184 104 OFFCURVE",
"1184 44 OFFCURVE",
"1164 22 QCURVE SMOOTH",
"1145 0 OFFCURVE",
"1111 0 QCURVE SMOOTH",
"783 0 LINE SMOOTH",
"709 0 OFFCURVE",
"709 74 QCURVE SMOOTH",
"709 252 LINE SMOOTH",
"709 304 OFFCURVE",
"753 348 QCURVE SMOOTH",
"796 391 OFFCURVE",
"849 391 QCURVE SMOOTH",
"1059 391 LINE",
"1059 488 LINE",
"793 488 LINE SMOOTH",
"760 488 OFFCURVE",
"740 509 QCURVE SMOOTH",
"720 531 OFFCURVE",
"720 591 OFFCURVE",
"740 614 QCURVE",
"760 635 OFFCURVE",
"793 635 QCURVE SMOOTH",
"1068 635 LINE SMOOTH",
"1121 635 OFFCURVE",
"1207 549 OFFCURVE",
"1207 496 QCURVE SMOOTH"
);
}
);
width = 1237;
}
);
note = onehalf;
unicode = 00BD;
},
{
glyphname = threequarters;
layers = (
{
layerId = "A424063B-2B4F-44F1-8843-9BD652D5D076";
paths = (
{
closed = 1;
nodes = (
"537 834 LINE SMOOTH",
"537 781 OFFCURVE",
"494 738 QCURVE SMOOTH",
"450 694 OFFCURVE",
"398 694 QCURVE SMOOTH",
"123 694 LINE SMOOTH",
"89 694 OFFCURVE",
"70 716 QCURVE SMOOTH",
"50 738 OFFCURVE",
"50 798 OFFCURVE",
"70 821 QCURVE",
"90 842 OFFCURVE",
"123 842 QCURVE SMOOTH",
"389 842 LINE",
"389 938 LINE",
"275 938 LINE SMOOTH",
"240 938 OFFCURVE",
"221 960 QCURVE SMOOTH",
"201 982 OFFCURVE",
"201 1042 OFFCURVE",
"221 1064 QCURVE SMOOTH",
"240 1085 OFFCURVE",
"275 1085 QCURVE SMOOTH",
"389 1085 LINE",
"389 1182 LINE",
"123 1182 LINE SMOOTH",
"90 1182 OFFCURVE",
"70 1203 QCURVE SMOOTH",
"50 1225 OFFCURVE",
"50 1285 OFFCURVE",
"70 1308 QCURVE",
"90 1329 OFFCURVE",
"123 1329 QCURVE SMOOTH",
"398 1329 LINE SMOOTH",
"451 1329 OFFCURVE",
"537 1243 OFFCURVE",
"537 1190 QCURVE SMOOTH",
"537 1077 LINE SMOOTH",
"537 1040 OFFCURVE",
"512 1012 QCURVE",
"537 984 OFFCURVE",
"537 946 QCURVE SMOOTH"
);
},
{
closed = 1;
nodes = (
"148 35 LINE SMOOTH",
"126 10 OFFCURVE",
"66 10 OFFCURVE",
"43 34 QCURVE SMOOTH",
"20 57 OFFCURVE",
"20 86 QCURVE SMOOTH",
"20 114 OFFCURVE",
"41 137 QCURVE SMOOTH",
"1131 1294 LINE SMOOTH",
"1153 1319 OFFCURVE",
"1213 1319 OFFCURVE",
"1259 1273 OFFCURVE",
"1259 1243 QCURVE SMOOTH",
"1259 1214 OFFCURVE",
"1238 1192 QCURVE SMOOTH"
);
},
{
closed = 1;
nodes = (
"1195 147 LINE",
"1195 74 LINE SMOOTH",
"1195 40 OFFCURVE",
"1174 20 QCURVE",
"1151 0 OFFCURVE",
"1091 0 OFFCURVE",
"1069 20 QCURVE SMOOTH",
"1047 39 OFFCURVE",
"1047 74 QCURVE SMOOTH",
"1047 147 LINE",
"783 147 LINE SMOOTH",
"709 147 OFFCURVE",
"709 221 QCURVE SMOOTH",
"709 561 LINE SMOOTH",
"709 596 OFFCURVE",
"731 615 QCURVE SMOOTH",
"753 635 OFFCURVE",
"813 635 OFFCURVE",
"836 615 QCURVE SMOOTH",
"857 596 OFFCURVE",
"857 561 QCURVE SMOOTH",
"857 295 LINE",
"1047 295 LINE",
"1047 541 LINE SMOOTH",
"1047 575 OFFCURVE",
"1069 594 QCURVE SMOOTH",
"1091 614 OFFCURVE",
"1151 614 OFFCURVE",
"1174 594 QCURVE",
"1195 574 OFFCURVE",
"1195 541 QCURVE SMOOTH",
"1195 295 LINE",
"1215 295 LINE SMOOTH",
"1250 295 OFFCURVE",
"1269 274 QCURVE SMOOTH",
"1289 251 OFFCURVE",
"1289 191 OFFCURVE",
"1269 169 QCURVE SMOOTH",
"1250 147 OFFCURVE",
"1215 147 QCURVE SMOOTH"
);
}
);
width = 1237;
}
);
note = threequarters;
unicode = 00BE;
},
{
glyphname = questiondown;
layers = (
{
layerId = "A424063B-2B4F-44F1-8843-9BD652D5D076";
paths = (
{
closed = 1;
nodes = (
"812 965 OFFCURVE",
"838 941 QCURVE",
"862 916 OFFCURVE",
"862 881 QCURVE SMOOTH",
"862 846 OFFCURVE",
"838 820 QCURVE",
"813 795 OFFCURVE",
"743 795 OFFCURVE",
"719 820 QCURVE SMOOTH",
"694 845 OFFCURVE",
"694 881 QCURVE SMOOTH",
"694 916 OFFCURVE",
"719 941 QCURVE SMOOTH",
"743 965 OFFCURVE",
"778 965 QCURVE SMOOTH"
);
},
{
closed = 1;
nodes = (
"492 -342 LINE SMOOTH",
"469 -362 OFFCURVE",
"436 -362 QCURVE SMOOTH",
"404 -362 OFFCURVE",
"385 -344 QCURVE",
"213 -195 LINE",
"184 -172 OFFCURVE",
"184 -131 QCURVE SMOOTH",
"184 12 LINE SMOOTH",
"184 50 OFFCURVE",
"207 70 QCURVE SMOOTH",
"692 487 LINE",
"692 592 LINE SMOOTH",
"692 626 OFFCURVE",
"742 676 OFFCURVE",
"776 676 QCURVE SMOOTH",
"811 676 OFFCURVE",
"836 651 QCURVE SMOOTH",
"860 626 OFFCURVE",
"860 592 QCURVE SMOOTH",
"860 453 LINE SMOOTH",
"860 408 OFFCURVE",
"834 385 QCURVE SMOOTH",
"354 -29 LINE",
"354 -90 LINE",
"438 -166 LINE",
"885 217 LINE SMOOTH",
"914 242 OFFCURVE",
"947 242 QCURVE SMOOTH",
"978 242 OFFCURVE",
"1004 219 QCURVE SMOOTH",
"1030 195 OFFCURVE",
"1030 157 QCURVE SMOOTH",
"1030 115 OFFCURVE",
"1008 96 QCURVE SMOOTH"
);
}
);
width = 1237;
}
);
note = questiondown;
unicode = 00BF;
},
{
glyphname = Agrave;
layers = (
{
layerId = "A424063B-2B4F-44F1-8843-9BD652D5D076";
paths = (
{
closed = 1;
nodes = (
"552 1266 LINE SMOOTH",
"572 1329 OFFCURVE",
"636 1329 QCURVE SMOOTH",
"697 1329 OFFCURVE",
"714 1276 QCURVE SMOOTH",
"1049 109 LINE",
"1053 97 OFFCURVE",
"1053 84 QCURVE SMOOTH",
"1053 49 OFFCURVE",
"1029 25 QCURVE SMOOTH",
"1005 0 OFFCURVE",
"974 0 QCURVE SMOOTH",
"908 0 OFFCURVE",
"890 61 QCURVE SMOOTH",
"822 289 LINE",
"439 289 LINE",
"365 45 LINE",
"362 28 OFFCURVE",
"340 15 QCURVE",
"318 0 OFFCURVE",
"292 0 QCURVE SMOOTH",
"255 0 OFFCURVE",
"207 50 OFFCURVE",
"207 86 QCURVE SMOOTH",
"207 99 OFFCURVE",
"212 117 QCURVE SMOOTH"
);
},
{
closed = 1;
nodes = (
"634 940 LINE",
"490 459 LINE",
"773 459 LINE"
);
},
{
closed = 1;
nodes = (
"812 1544 LINE",
"859 1520 OFFCURVE",
"859 1468 QCURVE SMOOTH",
"859 1435 OFFCURVE",
"836 1409 QCURVE",
"814 1382 OFFCURVE",
"777 1382 QCURVE SMOOTH",
"759 1382 OFFCURVE",
"740 1390 QCURVE SMOOTH",
"435 1531 LINE",
"388 1555 OFFCURVE",
"388 1607 QCURVE SMOOTH",
"388 1639 OFFCURVE",
"411 1667 QCURVE",
"434 1693 OFFCURVE",
"470 1693 QCURVE SMOOTH",
"488 1693 OFFCURVE",
"507 1685 QCURVE SMOOTH"
);
}
);
width = 1237;
}
);
note = Agrave;
unicode = 00C0;
},
{
glyphname = Aacute;
layers = (
{
layerId = "A424063B-2B4F-44F1-8843-9BD652D5D076";
paths = (
{
closed = 1;
nodes = (
"552 1266 LINE SMOOTH",
"572 1329 OFFCURVE",
"636 1329 QCURVE SMOOTH",
"697 1329 OFFCURVE",
"714 1276 QCURVE SMOOTH",
"1049 109 LINE",
"1053 97 OFFCURVE",
"1053 84 QCURVE SMOOTH",
"1053 49 OFFCURVE",
"1029 25 QCURVE SMOOTH",
"1005 0 OFFCURVE",
"974 0 QCURVE SMOOTH",
"908 0 OFFCURVE",
"890 61 QCURVE SMOOTH",
"822 289 LINE",
"439 289 LINE",
"365 45 LINE",
"362 28 OFFCURVE",
"340 15 QCURVE",
"318 0 OFFCURVE",
"292 0 QCURVE SMOOTH",
"255 0 OFFCURVE",
"207 50 OFFCURVE",
"207 86 QCURVE SMOOTH",
"207 99 OFFCURVE",
"212 117 QCURVE SMOOTH"
);
},
{
closed = 1;
nodes = (
"634 940 LINE",
"490 459 LINE",
"773 459 LINE"
);
},
{
closed = 1;
nodes = (
"740 1685 LINE SMOOTH",
"759 1693 OFFCURVE",
"777 1693 QCURVE SMOOTH",
"813 1693 OFFCURVE",
"836 1667 QCURVE",
"859 1639 OFFCURVE",
"859 1607 QCURVE SMOOTH",
"859 1554 OFFCURVE",
"812 1531 QCURVE SMOOTH",
"507 1390 LINE SMOOTH",
"488 1382 OFFCURVE",
"470 1382 QCURVE SMOOTH",
"434 1382 OFFCURVE",
"411 1409 QCURVE SMOOTH",
"388 1435 OFFCURVE",
"388 1468 QCURVE SMOOTH",
"388 1521 OFFCURVE",
"435 1544 QCURVE SMOOTH"
);
}
);
width = 1237;
}
);
note = Aacute;
unicode = 00C1;
},
{
glyphname = Acircumflex;
layers = (
{
layerId = "A424063B-2B4F-44F1-8843-9BD652D5D076";
paths = (
{
closed = 1;
nodes = (
"552 1266 LINE SMOOTH",
"572 1329 OFFCURVE",
"636 1329 QCURVE SMOOTH",
"697 1329 OFFCURVE",
"714 1276 QCURVE SMOOTH",
"1049 109 LINE",
"1053 97 OFFCURVE",
"1053 84 QCURVE SMOOTH",
"1053 49 OFFCURVE",
"1029 25 QCURVE SMOOTH",
"1005 0 OFFCURVE",
"974 0 QCURVE SMOOTH",
"908 0 OFFCURVE",
"890 61 QCURVE SMOOTH",
"822 289 LINE",
"439 289 LINE",
"365 45 LINE",
"362 28 OFFCURVE",
"340 15 QCURVE",
"318 0 OFFCURVE",
"292 0 QCURVE SMOOTH",
"255 0 OFFCURVE",
"207 50 OFFCURVE",
"207 86 QCURVE SMOOTH",
"207 99 OFFCURVE",
"212 117 QCURVE SMOOTH"
);
},
{
closed = 1;
nodes = (
"634 940 LINE",
"490 459 LINE",
"773 459 LINE"
);
},
{
closed = 1;
nodes = (
"623 1515 LINE",
"353 1390 LINE SMOOTH",
"335 1382 OFFCURVE",
"317 1382 QCURVE SMOOTH",
"280 1382 OFFCURVE",
"258 1409 QCURVE",
"234 1434 OFFCURVE",
"234 1468 QCURVE SMOOTH",
"234 1521 OFFCURVE",
"281 1544 QCURVE SMOOTH",
"587 1685 LINE",
"608 1693 OFFCURVE",
"623 1693 QCURVE SMOOTH",
"642 1693 OFFCURVE",
"660 1685 QCURVE SMOOTH",
"966 1544 LINE",
"1013 1520 OFFCURVE",
"1013 1468 QCURVE SMOOTH",
"1013 1435 OFFCURVE",
"990 1409 QCURVE SMOOTH",
"966 1382 OFFCURVE",
"930 1382 QCURVE SMOOTH",
"913 1382 OFFCURVE",
"894 1390 QCURVE SMOOTH"
);
}
);
width = 1237;
}
);
note = Acircumflex;
unicode = 00C2;
},
{
glyphname = Atilde;
layers = (
{
layerId = "A424063B-2B4F-44F1-8843-9BD652D5D076";
paths = (
{
closed = 1;
nodes = (
"552 1266 LINE SMOOTH",
"572 1329 OFFCURVE",
"636 1329 QCURVE SMOOTH",
"697 1329 OFFCURVE",
"714 1276 QCURVE SMOOTH",
"1049 109 LINE",
"1053 97 OFFCURVE",
"1053 84 QCURVE SMOOTH",
"1053 49 OFFCURVE",
"1029 25 QCURVE SMOOTH",
"1005 0 OFFCURVE",
"974 0 QCURVE SMOOTH",
"908 0 OFFCURVE",
"890 61 QCURVE SMOOTH",
"822 289 LINE",
"439 289 LINE",
"365 45 LINE",
"362 28 OFFCURVE",
"340 15 QCURVE",
"318 0 OFFCURVE",
"292 0 QCURVE SMOOTH",
"255 0 OFFCURVE",
"207 50 OFFCURVE",
"207 86 QCURVE SMOOTH",
"207 99 OFFCURVE",
"212 117 QCURVE SMOOTH"
);
},
{
closed = 1;
nodes = (
"634 940 LINE",
"490 459 LINE",
"773 459 LINE"
);
},
{
closed = 1;
nodes = (
"873 1444 LINE",
"843 1430 OFFCURVE",
"828 1430 QCURVE SMOOTH",
"775 1430 LINE SMOOTH",
"768 1430 OFFCURVE",
"748 1436 QCURVE SMOOTH",
"492 1522 LINE",
"468 1522 LINE",
"341 1444 LINE SMOOTH",
"318 1430 OFFCURVE",
"294 1430 QCURVE SMOOTH",
"260 1430 OFFCURVE",
"235 1457 QCURVE SMOOTH",
"210 1483 OFFCURVE",
"210 1519 QCURVE SMOOTH",
"210 1562 OFFCURVE",
"251 1588 QCURVE SMOOTH",
"402 1680 LINE SMOOTH",
"422 1692 OFFCURVE",
"447 1692 QCURVE SMOOTH",
"501 1692 LINE SMOOTH",
"516 1692 OFFCURVE",
"527 1688 QCURVE SMOOTH",
"789 1600 LINE",
"804 1600 LINE",
"935 1680 LINE SMOOTH",
"958 1694 OFFCURVE",
"981 1694 QCURVE SMOOTH",
"1016 1694 OFFCURVE",
"1041 1667 QCURVE SMOOTH",
"1066 1641 OFFCURVE",
"1066 1605 QCURVE SMOOTH",
"1066 1562 OFFCURVE",
"1025 1536 QCURVE SMOOTH"
);
}
);
width = 1237;
}
);
note = Atilde;
unicode = 00C3;
},
{
glyphname = Adieresis;
layers = (
{
layerId = "A424063B-2B4F-44F1-8843-9BD652D5D076";
paths = (
{
closed = 1;
nodes = (
"548 1266 LINE SMOOTH",
"568 1329 OFFCURVE",
"632 1329 QCURVE SMOOTH",
"693 1329 OFFCURVE",
"710 1276 QCURVE SMOOTH",
"1045 109 LINE",
"1049 97 OFFCURVE",
"1049 84 QCURVE SMOOTH",
"1049 49 OFFCURVE",
"1025 25 QCURVE SMOOTH",
"1001 0 OFFCURVE",
"970 0 QCURVE SMOOTH",
"904 0 OFFCURVE",
"886 61 QCURVE SMOOTH",
"818 289 LINE",
"435 289 LINE",
"361 45 LINE",
"358 28 OFFCURVE",
"336 15 QCURVE",
"314 0 OFFCURVE",
"288 0 QCURVE SMOOTH",
"251 0 OFFCURVE",
"203 50 OFFCURVE",
"203 86 QCURVE SMOOTH",
"203 99 OFFCURVE",
"208 117 QCURVE SMOOTH"
);
},
{
closed = 1;
nodes = (
"630 940 LINE",
"486 459 LINE",
"769 459 LINE"
);
},
{
closed = 1;
nodes = (
"1050 1466 LINE SMOOTH",
"1050 1431 OFFCURVE",
"1026 1407 QCURVE SMOOTH",
"1001 1382 OFFCURVE",
"966 1382 QCURVE SMOOTH",
"930 1382 OFFCURVE",
"906 1407 QCURVE SMOOTH",
"882 1431 OFFCURVE",
"882 1466 QCURVE SMOOTH",
"882 1609 LINE SMOOTH",
"882 1645 OFFCURVE",
"907 1670 QCURVE SMOOTH",
"931 1695 OFFCURVE",
"966 1695 QCURVE SMOOTH",
"1000 1695 OFFCURVE",
"1050 1645 OFFCURVE",
"1050 1609 QCURVE SMOOTH"
);
},
{
closed = 1;
nodes = (
"372 1466 LINE SMOOTH",
"372 1431 OFFCURVE",
"348 1407 QCURVE SMOOTH",
"323 1382 OFFCURVE",
"253 1382 OFFCURVE",
"229 1407 QCURVE",
"204 1431 OFFCURVE",
"204 1466 QCURVE SMOOTH",
"204 1609 LINE SMOOTH",
"204 1644 OFFCURVE",
"229 1669 QCURVE SMOOTH",
"253 1693 OFFCURVE",
"288 1693 QCURVE SMOOTH",
"322 1693 OFFCURVE",
"348 1669 QCURVE",
"372 1644 OFFCURVE",
"372 1609 QCURVE SMOOTH"
);
}
);
width = 1237;
}
);
note = Adieresis;
unicode = 00C4;
},
{
glyphname = Aring;
layers = (
{
layerId = "A424063B-2B4F-44F1-8843-9BD652D5D076";
paths = (
{
closed = 1;
nodes = (
"552 1266 LINE SMOOTH",
"572 1329 OFFCURVE",
"636 1329 QCURVE SMOOTH",
"697 1329 OFFCURVE",
"714 1276 QCURVE SMOOTH",
"1049 109 LINE",
"1053 97 OFFCURVE",
"1053 84 QCURVE SMOOTH",
"1053 49 OFFCURVE",
"1029 25 QCURVE SMOOTH",
"1005 0 OFFCURVE",
"974 0 QCURVE SMOOTH",
"908 0 OFFCURVE",
"890 61 QCURVE SMOOTH",
"822 289 LINE",
"439 289 LINE",
"365 45 LINE",
"362 28 OFFCURVE",
"340 15 QCURVE",
"318 0 OFFCURVE",
"292 0 QCURVE SMOOTH",
"255 0 OFFCURVE",
"207 50 OFFCURVE",
"207 86 QCURVE SMOOTH",
"207 99 OFFCURVE",
"212 117 QCURVE SMOOTH"
);
},
{
closed = 1;
nodes = (
"634 940 LINE",
"490 459 LINE",
"773 459 LINE"
);
},
{
closed = 1;
nodes = (
"816 1529 LINE SMOOTH",
"816 1473 OFFCURVE",
"763 1425 QCURVE SMOOTH",
"710 1376 OFFCURVE",
"652 1376 QCURVE SMOOTH",
"595 1376 LINE SMOOTH",
"538 1376 OFFCURVE",
"486 1424 QCURVE SMOOTH",
"433 1472 OFFCURVE",
"433 1529 QCURVE SMOOTH",
"433 1603 LINE SMOOTH",
"433 1660 OFFCURVE",
"485 1709 QCURVE SMOOTH",
"536 1757 OFFCURVE",
"595 1757 QCURVE SMOOTH",
"652 1757 LINE SMOOTH",
"711 1757 OFFCURVE",
"763 1708 QCURVE SMOOTH",
"816 1658 OFFCURVE",
"816 1603 QCURVE SMOOTH"
);
},
{
closed = 1;
nodes = (
"705 1591 LINE SMOOTH",
"705 1610 OFFCURVE",
"681 1628 QCURVE SMOOTH",
"656 1646 OFFCURVE",
"646 1646 QCURVE SMOOTH",
"609 1646 LINE SMOOTH",
"589 1646 OFFCURVE",
"567 1627 QCURVE SMOOTH",
"544 1607 OFFCURVE",
"544 1593 QCURVE SMOOTH",
"544 1542 LINE SMOOTH",
"544 1522 OFFCURVE",
"556 1513 QCURVE SMOOTH",
"580 1494 LINE SMOOTH",
"590 1486 OFFCURVE",
"603 1486 QCURVE SMOOTH",
"646 1486 LINE SMOOTH",
"665 1486 OFFCURVE",
"693 1517 QCURVE",
"705 1522 OFFCURVE",
"705 1542 QCURVE SMOOTH"
);
}
);
width = 1237;
}
);
note = Aring;
unicode = 00C5;
},
{
glyphname = AE;
layers = (
{
layerId = "A424063B-2B4F-44F1-8843-9BD652D5D076";
paths = (
{
closed = 1;
nodes = (
"724 2 LINE SMOOTH",
"688 2 OFFCURVE",
"663 27 QCURVE SMOOTH",
"638 51 OFFCURVE",
"638 86 QCURVE SMOOTH",
"638 291 LINE",
"464 291 LINE",
"384 68 LINE SMOOTH",
"358 2 OFFCURVE",
"298 2 QCURVE SMOOTH",
"264 2 OFFCURVE",
"238 26 QCURVE SMOOTH",
"213 50 OFFCURVE",
"213 86 QCURVE SMOOTH",
"213 104 OFFCURVE",
"220 121 QCURVE",
"642 1266 LINE SMOOTH",
"664 1329 OFFCURVE",
"732 1329 QCURVE SMOOTH",
"980 1329 LINE SMOOTH",
"1014 1329 OFFCURVE",
"1040 1305 QCURVE",
"1064 1280 OFFCURVE",
"1064 1245 QCURVE SMOOTH",
"1064 1210 OFFCURVE",
"1040 1186 QCURVE SMOOTH",
"1015 1161 OFFCURVE",
"980 1161 QCURVE SMOOTH",
"810 1161 LINE",
"810 750 LINE",
"980 750 LINE SMOOTH",
"1014 750 OFFCURVE",
"1040 726 QCURVE",
"1064 700 OFFCURVE",
"1064 666 QCURVE SMOOTH",
"1064 630 OFFCURVE",
"1040 606 QCURVE",
"1014 582 OFFCURVE",
"980 582 QCURVE SMOOTH",
"808 582 LINE",
"808 170 LINE",
"978 170 LINE SMOOTH",
"1014 170 OFFCURVE",
"1039 146 QCURVE SMOOTH",
"1064 121 OFFCURVE",
"1064 86 QCURVE SMOOTH",
"1064 52 OFFCURVE",
"1014 2 OFFCURVE",
"978 2 QCURVE SMOOTH"
);
},
{
closed = 1;
nodes = (
"527 461 LINE",
"638 461 LINE",
"638 764 LINE"
);
}
);
width = 1237;
}
);
note = AE;
unicode = 00C6;
},
{
glyphname = Ccedilla;
layers = (
{
layerId = "A424063B-2B4F-44F1-8843-9BD652D5D076";
paths = (
{
closed = 1;
nodes = (
"715 0 LINE",
"657 0 LINE SMOOTH",
"598 0 OFFCURVE",
"533 38 QCURVE SMOOTH",
"471 74 OFFCURVE",
"444 123 QCURVE SMOOTH",
"250 498 LINE SMOOTH",
"211 579 OFFCURVE",
"211 664 QCURVE SMOOTH",
"211 759 OFFCURVE",
"248 827 QCURVE SMOOTH",
"444 1198 LINE SMOOTH",
"472 1249 OFFCURVE",
"531 1290 QCURVE SMOOTH",
"590 1329 OFFCURVE",
"645 1329 QCURVE SMOOTH",
"977 1329 LINE SMOOTH",
"1012 1329 OFFCURVE",
"1037 1304 QCURVE",
"1061 1278 OFFCURVE",
"1061 1245 QCURVE SMOOTH",
"1061 1210 OFFCURVE",
"1037 1185 QCURVE SMOOTH",
"1011 1159 OFFCURVE",
"977 1159 QCURVE SMOOTH",
"657 1159 LINE SMOOTH",
"618 1159 OFFCURVE",
"592 1112 QCURVE SMOOTH",
"406 764 LINE SMOOTH",
"384 724 OFFCURVE",
"384 667 QCURVE SMOOTH",
"384 608 OFFCURVE",
"408 563 QCURVE SMOOTH",
"586 221 LINE SMOOTH",
"612 168 OFFCURVE",
"668 168 QCURVE SMOOTH",
"971 168 LINE SMOOTH",
"1006 168 OFFCURVE",
"1032 144 QCURVE",
"1057 119 OFFCURVE",
"1057 49 OFFCURVE",
"1032 25 QCURVE SMOOTH",
"1007 0 OFFCURVE",
"971 0 QCURVE SMOOTH",
"883 0 LINE",
"883 -274 LINE SMOOTH",
"883 -310 OFFCURVE",
"859 -335 QCURVE SMOOTH",
"834 -360 OFFCURVE",
"799 -360 QCURVE SMOOTH",
"459 -360 LINE SMOOTH",
"425 -360 OFFCURVE",
"375 -310 OFFCURVE",
"375 -276 QCURVE SMOOTH",
"375 -240 OFFCURVE",
"400 -215 QCURVE SMOOTH",
"424 -190 OFFCURVE",
"459 -190 QCURVE SMOOTH",
"715 -190 OFFCURVE",
"715 -190 QCURVE"
);
}
);
width = 1237;
}
);
note = Ccedilla;
unicode = 00C7;
},
{
glyphname = Egrave;
layers = (
{
layerId = "A424063B-2B4F-44F1-8843-9BD652D5D076";
paths = (
{
closed = 1;
nodes = (
"375 1159 LINE",
"375 750 LINE",
"631 750 LINE SMOOTH",
"665 750 OFFCURVE",
"715 700 OFFCURVE",
"715 666 QCURVE SMOOTH",
"715 630 OFFCURVE",
"691 605 QCURVE SMOOTH",
"666 580 OFFCURVE",
"631 580 QCURVE SMOOTH",
"375 580 LINE",
"375 168 LINE",
"971 168 LINE SMOOTH",
"1004 168 OFFCURVE",
"1030 144 QCURVE",
"1055 119 OFFCURVE",
"1055 49 OFFCURVE",
"1030 25 QCURVE SMOOTH",
"1005 0 OFFCURVE",
"969 0 QCURVE SMOOTH",
"207 0 LINE",
"207 1329 LINE",
"969 1329 LINE SMOOTH",
"1005 1329 OFFCURVE",
"1055 1279 OFFCURVE",
"1055 1243 QCURVE SMOOTH",
"1055 1209 OFFCURVE",
"1005 1159 OFFCURVE",
"969 1159 QCURVE SMOOTH"
);
},
{
closed = 1;
nodes = (
"807 1544 LINE",
"854 1520 OFFCURVE",
"854 1468 QCURVE SMOOTH",
"854 1435 OFFCURVE",
"831 1409 QCURVE SMOOTH",
"808 1382 OFFCURVE",
"772 1382 QCURVE SMOOTH",
"754 1382 OFFCURVE",
"735 1390 QCURVE SMOOTH",
"430 1531 LINE",
"383 1555 OFFCURVE",
"383 1607 QCURVE SMOOTH",
"383 1639 OFFCURVE",
"406 1667 QCURVE",
"429 1693 OFFCURVE",
"465 1693 QCURVE SMOOTH",
"483 1693 OFFCURVE",
"502 1685 QCURVE SMOOTH"
);
}
);
width = 1237;
}
);
note = Egrave;
unicode = 00C8;
},
{
glyphname = Eacute;
layers = (
{
layerId = "A424063B-2B4F-44F1-8843-9BD652D5D076";
paths = (
{
closed = 1;
nodes = (
"375 1159 LINE",
"375 750 LINE",
"631 750 LINE SMOOTH",
"665 750 OFFCURVE",
"715 700 OFFCURVE",
"715 666 QCURVE SMOOTH",
"715 630 OFFCURVE",
"691 605 QCURVE SMOOTH",
"666 580 OFFCURVE",
"631 580 QCURVE SMOOTH",
"375 580 LINE",
"375 168 LINE",
"971 168 LINE SMOOTH",
"1004 168 OFFCURVE",
"1030 144 QCURVE",
"1055 119 OFFCURVE",
"1055 49 OFFCURVE",
"1030 25 QCURVE SMOOTH",
"1005 0 OFFCURVE",
"969 0 QCURVE SMOOTH",
"207 0 LINE",
"207 1329 LINE",
"969 1329 LINE SMOOTH",
"1005 1329 OFFCURVE",
"1055 1279 OFFCURVE",
"1055 1243 QCURVE SMOOTH",
"1055 1209 OFFCURVE",
"1005 1159 OFFCURVE",
"969 1159 QCURVE SMOOTH"
);
},
{
closed = 1;
nodes = (
"735 1685 LINE SMOOTH",
"754 1693 OFFCURVE",
"772 1693 QCURVE SMOOTH",
"808 1693 OFFCURVE",
"831 1667 QCURVE",
"854 1639 OFFCURVE",
"854 1607 QCURVE SMOOTH",
"854 1554 OFFCURVE",
"807 1531 QCURVE SMOOTH",
"502 1390 LINE SMOOTH",
"483 1382 OFFCURVE",
"465 1382 QCURVE SMOOTH",
"428 1382 OFFCURVE",
"406 1409 QCURVE",
"383 1435 OFFCURVE",
"383 1468 QCURVE SMOOTH",
"383 1521 OFFCURVE",
"430 1544 QCURVE SMOOTH"
);
}
);
width = 1237;
}
);
note = Eacute;
unicode = 00C9;
},
{
glyphname = Ecircumflex;
layers = (
{
layerId = "A424063B-2B4F-44F1-8843-9BD652D5D076";
paths = (
{
closed = 1;
nodes = (
"375 1159 LINE",
"375 750 LINE",
"631 750 LINE SMOOTH",
"665 750 OFFCURVE",
"715 700 OFFCURVE",
"715 666 QCURVE SMOOTH",
"715 630 OFFCURVE",
"691 605 QCURVE SMOOTH",
"666 580 OFFCURVE",
"631 580 QCURVE SMOOTH",
"375 580 LINE",
"375 168 LINE",
"971 168 LINE SMOOTH",
"1004 168 OFFCURVE",
"1030 144 QCURVE",
"1055 119 OFFCURVE",
"1055 49 OFFCURVE",
"1030 25 QCURVE SMOOTH",
"1005 0 OFFCURVE",
"969 0 QCURVE SMOOTH",
"207 0 LINE",
"207 1329 LINE",
"969 1329 LINE SMOOTH",
"1005 1329 OFFCURVE",
"1055 1279 OFFCURVE",
"1055 1243 QCURVE SMOOTH",
"1055 1209 OFFCURVE",
"1005 1159 OFFCURVE",
"969 1159 QCURVE SMOOTH"
);
},
{
closed = 1;
nodes = (
"618 1515 LINE",
"348 1390 LINE SMOOTH",
"330 1382 OFFCURVE",
"312 1382 QCURVE SMOOTH",
"276 1382 OFFCURVE",
"253 1409 QCURVE",
"229 1434 OFFCURVE",
"229 1468 QCURVE SMOOTH",
"229 1521 OFFCURVE",
"276 1544 QCURVE SMOOTH",
"582 1685 LINE",
"603 1693 OFFCURVE",
"618 1693 QCURVE SMOOTH",
"637 1693 OFFCURVE",
"655 1685 QCURVE SMOOTH",
"961 1544 LINE",
"1008 1520 OFFCURVE",
"1008 1468 QCURVE SMOOTH",
"1008 1435 OFFCURVE",
"985 1409 QCURVE SMOOTH",
"961 1382 OFFCURVE",
"925 1382 QCURVE SMOOTH",
"908 1382 OFFCURVE",
"889 1390 QCURVE SMOOTH"
);
}
);
width = 1237;
}
);
note = Ecircumflex;
unicode = 00CA;
},
{
glyphname = Edieresis;
layers = (
{
layerId = "A424063B-2B4F-44F1-8843-9BD652D5D076";
paths = (
{
closed = 1;
nodes = (
"375 1159 LINE",
"375 750 LINE",
"631 750 LINE SMOOTH",
"665 750 OFFCURVE",
"715 700 OFFCURVE",
"715 666 QCURVE SMOOTH",
"715 630 OFFCURVE",
"691 605 QCURVE SMOOTH",
"666 580 OFFCURVE",
"631 580 QCURVE SMOOTH",
"375 580 LINE",
"375 168 LINE",
"971 168 LINE SMOOTH",
"1004 168 OFFCURVE",
"1030 144 QCURVE",
"1055 119 OFFCURVE",
"1055 49 OFFCURVE",
"1030 25 QCURVE SMOOTH",
"1005 0 OFFCURVE",
"969 0 QCURVE SMOOTH",
"207 0 LINE",
"207 1329 LINE",
"969 1329 LINE SMOOTH",
"1005 1329 OFFCURVE",
"1055 1279 OFFCURVE",
"1055 1243 QCURVE SMOOTH",
"1055 1209 OFFCURVE",
"1005 1159 OFFCURVE",
"969 1159 QCURVE SMOOTH"
);
},
{
closed = 1;
nodes = (
"1049 1466 LINE SMOOTH",
"1049 1431 OFFCURVE",
"1025 1407 QCURVE SMOOTH",
"1000 1382 OFFCURVE",
"965 1382 QCURVE SMOOTH",
"929 1382 OFFCURVE",
"905 1407 QCURVE SMOOTH",
"881 1431 OFFCURVE",
"881 1466 QCURVE SMOOTH",
"881 1609 LINE SMOOTH",
"881 1645 OFFCURVE",
"906 1670 QCURVE SMOOTH",
"930 1695 OFFCURVE",
"965 1695 QCURVE SMOOTH",
"999 1695 OFFCURVE",
"1049 1645 OFFCURVE",
"1049 1609 QCURVE SMOOTH"
);
},
{
closed = 1;
nodes = (
"371 1466 LINE SMOOTH",
"371 1431 OFFCURVE",
"347 1407 QCURVE SMOOTH",
"322 1382 OFFCURVE",
"252 1382 OFFCURVE",
"228 1407 QCURVE",
"203 1431 OFFCURVE",
"203 1466 QCURVE SMOOTH",
"203 1609 LINE SMOOTH",
"203 1644 OFFCURVE",
"228 1669 QCURVE SMOOTH",
"252 1693 OFFCURVE",
"287 1693 QCURVE SMOOTH",
"322 1693 OFFCURVE",
"347 1669 QCURVE",
"371 1644 OFFCURVE",
"371 1609 QCURVE SMOOTH"
);
}
);
width = 1237;
}
);
note = Edieresis;
unicode = 00CB;
},
{
glyphname = Igrave;
layers = (
{
layerId = "A424063B-2B4F-44F1-8843-9BD652D5D076";
paths = (
{
closed = 1;
nodes = (
"969 1329 LINE SMOOTH",
"1003 1329 OFFCURVE",
"1053 1279 OFFCURVE",
"1053 1245 QCURVE SMOOTH",
"1053 1210 OFFCURVE",
"1028 1185 QCURVE SMOOTH",
"1002 1159 OFFCURVE",
"969 1159 QCURVE SMOOTH",
"715 1159 LINE",
"715 168 LINE",
"969 168 LINE SMOOTH",
"1004 168 OFFCURVE",
"1029 144 QCURVE",
"1053 118 OFFCURVE",
"1053 84 QCURVE SMOOTH",
"1053 49 OFFCURVE",
"1028 25 QCURVE SMOOTH",
"1003 0 OFFCURVE",
"969 0 QCURVE SMOOTH",
"289 0 LINE SMOOTH",
"254 0 OFFCURVE",
"230 25 QCURVE",
"205 49 OFFCURVE",
"205 119 OFFCURVE",
"230 144 QCURVE SMOOTH",
"254 168 OFFCURVE",
"289 168 QCURVE SMOOTH",
"547 168 LINE",
"547 1159 LINE",
"289 1159 LINE SMOOTH",
"254 1159 OFFCURVE",
"230 1184 QCURVE SMOOTH",
"205 1209 OFFCURVE",
"205 1243 QCURVE SMOOTH",
"205 1279 OFFCURVE",
"230 1304 QCURVE SMOOTH",
"254 1329 OFFCURVE",
"289 1329 QCURVE SMOOTH"
);
},
{
closed = 1;
nodes = (
"807 1544 LINE",
"854 1520 OFFCURVE",
"854 1468 QCURVE SMOOTH",
"854 1435 OFFCURVE",
"831 1409 QCURVE SMOOTH",
"808 1382 OFFCURVE",
"772 1382 QCURVE SMOOTH",
"754 1382 OFFCURVE",
"735 1390 QCURVE SMOOTH",
"430 1531 LINE",
"383 1555 OFFCURVE",
"383 1607 QCURVE SMOOTH",
"383 1639 OFFCURVE",
"406 1667 QCURVE",
"429 1693 OFFCURVE",
"465 1693 QCURVE SMOOTH",
"483 1693 OFFCURVE",
"502 1685 QCURVE SMOOTH"
);
}
);
width = 1237;
}
);
note = Igrave;
unicode = 00CC;
},
{
glyphname = Iacute;
layers = (
{
layerId = "A424063B-2B4F-44F1-8843-9BD652D5D076";
paths = (
{
closed = 1;
nodes = (
"969 1329 LINE SMOOTH",
"1003 1329 OFFCURVE",
"1053 1279 OFFCURVE",
"1053 1245 QCURVE SMOOTH",
"1053 1210 OFFCURVE",
"1028 1185 QCURVE SMOOTH",
"1002 1159 OFFCURVE",
"969 1159 QCURVE SMOOTH",
"715 1159 LINE",
"715 168 LINE",
"969 168 LINE SMOOTH",
"1004 168 OFFCURVE",
"1029 144 QCURVE",
"1053 118 OFFCURVE",
"1053 84 QCURVE SMOOTH",
"1053 49 OFFCURVE",
"1028 25 QCURVE SMOOTH",
"1003 0 OFFCURVE",
"969 0 QCURVE SMOOTH",
"289 0 LINE SMOOTH",
"254 0 OFFCURVE",
"230 25 QCURVE",
"205 49 OFFCURVE",
"205 119 OFFCURVE",
"230 144 QCURVE SMOOTH",
"254 168 OFFCURVE",
"289 168 QCURVE SMOOTH",
"547 168 LINE",
"547 1159 LINE",
"289 1159 LINE SMOOTH",
"254 1159 OFFCURVE",
"230 1184 QCURVE SMOOTH",
"205 1209 OFFCURVE",
"205 1243 QCURVE SMOOTH",
"205 1279 OFFCURVE",
"230 1304 QCURVE SMOOTH",
"254 1329 OFFCURVE",
"289 1329 QCURVE SMOOTH"
);
},
{
closed = 1;
nodes = (
"735 1685 LINE SMOOTH",
"754 1693 OFFCURVE",
"772 1693 QCURVE SMOOTH",
"808 1693 OFFCURVE",
"831 1667 QCURVE",
"854 1639 OFFCURVE",
"854 1607 QCURVE SMOOTH",
"854 1554 OFFCURVE",
"807 1531 QCURVE SMOOTH",
"502 1390 LINE SMOOTH",
"483 1382 OFFCURVE",
"465 1382 QCURVE SMOOTH",
"428 1382 OFFCURVE",
"406 1409 QCURVE",
"383 1435 OFFCURVE",
"383 1468 QCURVE SMOOTH",
"383 1521 OFFCURVE",
"430 1544 QCURVE SMOOTH"
);
}
);
width = 1237;
}
);
note = Iacute;
unicode = 00CD;
},
{
glyphname = Icircumflex;
layers = (
{
layerId = "A424063B-2B4F-44F1-8843-9BD652D5D076";
paths = (
{
closed = 1;
nodes = (
"969 1329 LINE SMOOTH",
"1003 1329 OFFCURVE",
"1053 1279 OFFCURVE",
"1053 1245 QCURVE SMOOTH",
"1053 1210 OFFCURVE",
"1028 1185 QCURVE SMOOTH",
"1002 1159 OFFCURVE",
"969 1159 QCURVE SMOOTH",
"715 1159 LINE",
"715 168 LINE",
"969 168 LINE SMOOTH",
"1004 168 OFFCURVE",
"1029 144 QCURVE",
"1053 118 OFFCURVE",
"1053 84 QCURVE SMOOTH",
"1053 49 OFFCURVE",
"1028 25 QCURVE SMOOTH",
"1003 0 OFFCURVE",
"969 0 QCURVE SMOOTH",
"289 0 LINE SMOOTH",
"254 0 OFFCURVE",
"230 25 QCURVE",
"205 49 OFFCURVE",
"205 119 OFFCURVE",
"230 144 QCURVE SMOOTH",
"254 168 OFFCURVE",
"289 168 QCURVE SMOOTH",
"547 168 LINE",
"547 1159 LINE",
"289 1159 LINE SMOOTH",
"254 1159 OFFCURVE",
"230 1184 QCURVE SMOOTH",
"205 1209 OFFCURVE",
"205 1243 QCURVE SMOOTH",
"205 1279 OFFCURVE",
"230 1304 QCURVE SMOOTH",
"254 1329 OFFCURVE",
"289 1329 QCURVE SMOOTH"
);
},
{
closed = 1;
nodes = (
"618 1515 LINE",
"348 1390 LINE SMOOTH",
"330 1382 OFFCURVE",
"312 1382 QCURVE SMOOTH",
"276 1382 OFFCURVE",
"253 1409 QCURVE",
"229 1434 OFFCURVE",
"229 1468 QCURVE SMOOTH",
"229 1521 OFFCURVE",
"276 1544 QCURVE SMOOTH",
"582 1685 LINE",
"603 1693 OFFCURVE",
"618 1693 QCURVE SMOOTH",
"637 1693 OFFCURVE",
"655 1685 QCURVE SMOOTH",
"961 1544 LINE",
"1008 1520 OFFCURVE",
"1008 1468 QCURVE SMOOTH",
"1008 1435 OFFCURVE",
"985 1409 QCURVE SMOOTH",
"961 1382 OFFCURVE",
"925 1382 QCURVE SMOOTH",
"908 1382 OFFCURVE",
"889 1390 QCURVE SMOOTH"
);
}
);
width = 1237;
}
);
note = Icircumflex;
unicode = 00CE;
},
{
glyphname = Idieresis;
layers = (
{
layerId = "A424063B-2B4F-44F1-8843-9BD652D5D076";
paths = (
{
closed = 1;
nodes = (
"969 1329 LINE SMOOTH",
"1003 1329 OFFCURVE",
"1053 1279 OFFCURVE",
"1053 1245 QCURVE SMOOTH",
"1053 1210 OFFCURVE",
"1028 1185 QCURVE SMOOTH",
"1002 1159 OFFCURVE",
"969 1159 QCURVE SMOOTH",
"715 1159 LINE",
"715 168 LINE",
"969 168 LINE SMOOTH",
"1004 168 OFFCURVE",
"1029 144 QCURVE",
"1053 118 OFFCURVE",
"1053 84 QCURVE SMOOTH",
"1053 49 OFFCURVE",
"1028 25 QCURVE SMOOTH",
"1003 0 OFFCURVE",
"969 0 QCURVE SMOOTH",
"289 0 LINE SMOOTH",
"254 0 OFFCURVE",
"230 25 QCURVE",
"205 49 OFFCURVE",
"205 119 OFFCURVE",
"230 144 QCURVE SMOOTH",
"254 168 OFFCURVE",
"289 168 QCURVE SMOOTH",
"547 168 LINE",
"547 1159 LINE",
"289 1159 LINE SMOOTH",
"254 1159 OFFCURVE",
"230 1184 QCURVE SMOOTH",
"205 1209 OFFCURVE",
"205 1243 QCURVE SMOOTH",
"205 1279 OFFCURVE",
"230 1304 QCURVE SMOOTH",
"254 1329 OFFCURVE",
"289 1329 QCURVE SMOOTH"
);
},
{
closed = 1;
nodes = (
"1049 1466 LINE SMOOTH",
"1049 1431 OFFCURVE",
"1025 1407 QCURVE SMOOTH",
"1000 1382 OFFCURVE",
"965 1382 QCURVE SMOOTH",
"929 1382 OFFCURVE",
"905 1407 QCURVE SMOOTH",
"881 1431 OFFCURVE",
"881 1466 QCURVE SMOOTH",
"881 1609 LINE SMOOTH",
"881 1645 OFFCURVE",
"906 1670 QCURVE SMOOTH",
"930 1695 OFFCURVE",
"965 1695 QCURVE SMOOTH",
"999 1695 OFFCURVE",
"1049 1645 OFFCURVE",
"1049 1609 QCURVE SMOOTH"
);
},
{
closed = 1;
nodes = (
"371 1466 LINE SMOOTH",
"371 1431 OFFCURVE",
"347 1407 QCURVE SMOOTH",
"322 1382 OFFCURVE",
"252 1382 OFFCURVE",
"228 1407 QCURVE",
"203 1431 OFFCURVE",
"203 1466 QCURVE SMOOTH",
"203 1609 LINE SMOOTH",
"203 1644 OFFCURVE",
"228 1669 QCURVE SMOOTH",
"252 1693 OFFCURVE",
"287 1693 QCURVE SMOOTH",
"322 1693 OFFCURVE",
"347 1669 QCURVE",
"371 1644 OFFCURVE",
"371 1609 QCURVE SMOOTH"
);
}
);
width = 1237;
}
);
note = Idieresis;
unicode = 00CF;
},
{
glyphname = Eth;
layers = (
{
layerId = "A424063B-2B4F-44F1-8843-9BD652D5D076";
paths = (
{
closed = 1;
nodes = (
"375 1159 LINE",
"289 1159 LINE SMOOTH",
"254 1159 OFFCURVE",
"230 1185 QCURVE",
"205 1210 OFFCURVE",
"205 1245 QCURVE SMOOTH",
"205 1279 OFFCURVE",
"230 1304 QCURVE SMOOTH",
"254 1329 OFFCURVE",
"289 1329 QCURVE SMOOTH",
"621 1329 LINE SMOOTH",
"687 1327 OFFCURVE",
"748 1287 QCURVE SMOOTH",
"810 1246 OFFCURVE",
"838 1188 QCURVE SMOOTH",
"1004 852 LINE SMOOTH",
"1051 760 OFFCURVE",
"1051 662 QCURVE SMOOTH",
"1051 571 OFFCURVE",
"1001 473 QCURVE SMOOTH",
"834 141 LINE SMOOTH",
"803 77 OFFCURVE",
"742 39 QCURVE SMOOTH",
"682 0 OFFCURVE",
"608 0 QCURVE SMOOTH",
"287 0 LINE SMOOTH",
"252 0 OFFCURVE",
"228 25 QCURVE SMOOTH",
"203 50 OFFCURVE",
"203 84 QCURVE SMOOTH",
"203 120 OFFCURVE",
"228 145 QCURVE SMOOTH",
"252 170 OFFCURVE",
"287 170 QCURVE SMOOTH",
"375 170 LINE",
"375 584 LINE",
"287 584 LINE SMOOTH",
"253 584 OFFCURVE",
"228 609 QCURVE SMOOTH",
"203 633 OFFCURVE",
"203 668 QCURVE SMOOTH",
"203 702 OFFCURVE",
"253 752 OFFCURVE",
"287 752 QCURVE SMOOTH",
"375 752 OFFCURVE",
"375 752 QCURVE"
);
},
{
closed = 1;
nodes = (
"543 168 LINE",
"602 168 LINE SMOOTH",
"658 168 OFFCURVE",
"686 223 QCURVE SMOOTH",
"852 553 LINE SMOOTH",
"883 616 OFFCURVE",
"883 662 QCURVE SMOOTH",
"883 717 OFFCURVE",
"858 766 QCURVE SMOOTH",
"686 1108 LINE SMOOTH",
"659 1159 OFFCURVE",
"598 1159 QCURVE SMOOTH",
"543 1159 LINE",
"543 752 LINE",
"627 752 LINE SMOOTH",
"662 752 OFFCURVE",
"688 728 QCURVE",
"713 703 OFFCURVE",
"713 633 OFFCURVE",
"688 609 QCURVE SMOOTH",
"663 584 OFFCURVE",
"627 584 QCURVE SMOOTH",
"543 584 LINE"
);
}
);
width = 1237;
}
);
note = Eth;
unicode = 00D0;
},
{
glyphname = Ntilde;
layers = (
{
layerId = "A424063B-2B4F-44F1-8843-9BD652D5D076";
paths = (
{
closed = 1;
nodes = (
"1055 0 LINE",
"829 0 LINE",
"377 1032 LINE",
"377 84 LINE SMOOTH",
"377 49 OFFCURVE",
"353 25 QCURVE SMOOTH",
"328 0 OFFCURVE",
"258 0 OFFCURVE",
"234 25 QCURVE",
"209 49 OFFCURVE",
"209 84 QCURVE SMOOTH",
"209 1329 LINE",
"432 1329 LINE",
"885 299 LINE",
"885 1243 LINE SMOOTH",
"885 1278 OFFCURVE",
"911 1304 QCURVE SMOOTH",
"936 1329 OFFCURVE",
"1006 1329 OFFCURVE",
"1031 1304 QCURVE",
"1055 1278 OFFCURVE",
"1055 1243 QCURVE SMOOTH"
);
},
{
closed = 1;
nodes = (
"870 1444 LINE",
"840 1430 OFFCURVE",
"825 1430 QCURVE SMOOTH",
"772 1430 LINE SMOOTH",
"764 1430 OFFCURVE",
"745 1436 QCURVE SMOOTH",
"489 1522 LINE",
"465 1522 LINE",
"338 1444 LINE SMOOTH",
"315 1430 OFFCURVE",
"291 1430 QCURVE SMOOTH",
"258 1430 OFFCURVE",
"232 1457 QCURVE SMOOTH",
"207 1483 OFFCURVE",
"207 1519 QCURVE SMOOTH",
"207 1562 OFFCURVE",
"248 1588 QCURVE SMOOTH",
"399 1680 LINE SMOOTH",
"418 1692 OFFCURVE",
"444 1692 QCURVE SMOOTH",
"498 1692 LINE SMOOTH",
"513 1692 OFFCURVE",
"524 1688 QCURVE SMOOTH",
"786 1600 LINE",
"801 1600 LINE",
"932 1680 LINE SMOOTH",
"955 1694 OFFCURVE",
"978 1694 QCURVE SMOOTH",
"1012 1694 OFFCURVE",
"1038 1667 QCURVE SMOOTH",
"1063 1641 OFFCURVE",
"1063 1605 QCURVE SMOOTH",
"1063 1562 OFFCURVE",
"1022 1536 QCURVE SMOOTH"
);
}
);
width = 1237;
}
);
note = Ntilde;
unicode = 00D1;
},
{
glyphname = Ograve;
layers = (
{
layerId = "A424063B-2B4F-44F1-8843-9BD652D5D076";
paths = (
{
closed = 1;
nodes = (
"1014 829 LINE SMOOTH",
"1053 752 OFFCURVE",
"1053 662 QCURVE SMOOTH",
"1053 574 OFFCURVE",
"1014 496 QCURVE SMOOTH",
"829 123 LINE SMOOTH",
"770 0 OFFCURVE",
"629 0 QCURVE SMOOTH",
"562 0 OFFCURVE",
"509 35 QCURVE SMOOTH",
"456 69 OFFCURVE",
"428 123 QCURVE SMOOTH",
"242 496 LINE SMOOTH",
"205 569 OFFCURVE",
"205 662 QCURVE SMOOTH",
"205 756 OFFCURVE",
"242 829 QCURVE SMOOTH",
"428 1206 LINE SMOOTH",
"491 1329 OFFCURVE",
"629 1329 QCURVE SMOOTH",
"769 1329 OFFCURVE",
"829 1206 QCURVE SMOOTH"
);
},
{
closed = 1;
nodes = (
"399 768 LINE SMOOTH",
"375 716 OFFCURVE",
"375 664 QCURVE SMOOTH",
"375 608 OFFCURVE",
"399 559 QCURVE SMOOTH",
"578 201 LINE",
"592 168 OFFCURVE",
"629 168 QCURVE SMOOTH",
"662 168 OFFCURVE",
"678 201 QCURVE SMOOTH",
"858 559 LINE SMOOTH",
"883 610 OFFCURVE",
"883 664 QCURVE SMOOTH",
"883 719 OFFCURVE",
"858 768 QCURVE SMOOTH",
"682 1122 LINE",
"666 1161 OFFCURVE",
"592 1161 OFFCURVE",
"573 1122 QCURVE SMOOTH"
);
},
{
closed = 1;
nodes = (
"807 1544 LINE",
"854 1520 OFFCURVE",
"854 1468 QCURVE SMOOTH",
"854 1435 OFFCURVE",
"831 1409 QCURVE SMOOTH",
"808 1382 OFFCURVE",
"772 1382 QCURVE SMOOTH",
"754 1382 OFFCURVE",
"735 1390 QCURVE SMOOTH",
"430 1531 LINE",
"383 1555 OFFCURVE",
"383 1607 QCURVE SMOOTH",
"383 1639 OFFCURVE",
"406 1667 QCURVE",
"429 1693 OFFCURVE",
"465 1693 QCURVE SMOOTH",
"483 1693 OFFCURVE",
"502 1685 QCURVE SMOOTH"
);
}
);
width = 1237;
}
);
note = Ograve;
unicode = 00D2;
},
{
glyphname = Oacute;
layers = (
{
layerId = "A424063B-2B4F-44F1-8843-9BD652D5D076";
paths = (
{
closed = 1;
nodes = (
"1014 829 LINE SMOOTH",
"1053 752 OFFCURVE",
"1053 662 QCURVE SMOOTH",
"1053 574 OFFCURVE",
"1014 496 QCURVE SMOOTH",
"829 123 LINE SMOOTH",
"770 0 OFFCURVE",
"629 0 QCURVE SMOOTH",
"562 0 OFFCURVE",
"509 35 QCURVE SMOOTH",
"456 69 OFFCURVE",
"428 123 QCURVE SMOOTH",
"242 496 LINE SMOOTH",
"205 569 OFFCURVE",
"205 662 QCURVE SMOOTH",
"205 756 OFFCURVE",
"242 829 QCURVE SMOOTH",
"428 1206 LINE SMOOTH",
"491 1329 OFFCURVE",
"629 1329 QCURVE SMOOTH",
"769 1329 OFFCURVE",
"829 1206 QCURVE SMOOTH"
);
},
{
closed = 1;
nodes = (
"399 768 LINE SMOOTH",
"375 716 OFFCURVE",
"375 664 QCURVE SMOOTH",
"375 608 OFFCURVE",
"399 559 QCURVE SMOOTH",
"578 201 LINE",
"592 168 OFFCURVE",
"629 168 QCURVE SMOOTH",
"662 168 OFFCURVE",
"678 201 QCURVE SMOOTH",
"858 559 LINE SMOOTH",
"883 610 OFFCURVE",
"883 664 QCURVE SMOOTH",
"883 719 OFFCURVE",
"858 768 QCURVE SMOOTH",
"682 1122 LINE",
"666 1161 OFFCURVE",
"592 1161 OFFCURVE",
"573 1122 QCURVE SMOOTH"
);
},
{
closed = 1;
nodes = (
"735 1685 LINE SMOOTH",
"754 1693 OFFCURVE",
"772 1693 QCURVE SMOOTH",
"808 1693 OFFCURVE",
"831 1667 QCURVE",
"854 1639 OFFCURVE",
"854 1607 QCURVE SMOOTH",
"854 1554 OFFCURVE",
"807 1531 QCURVE SMOOTH",
"502 1390 LINE SMOOTH",
"483 1382 OFFCURVE",
"465 1382 QCURVE SMOOTH",
"428 1382 OFFCURVE",
"406 1409 QCURVE",
"383 1435 OFFCURVE",
"383 1468 QCURVE SMOOTH",
"383 1521 OFFCURVE",
"430 1544 QCURVE SMOOTH"
);
}
);
width = 1237;
}
);
note = Oacute;
unicode = 00D3;
},
{
glyphname = Ocircumflex;
layers = (
{
layerId = "A424063B-2B4F-44F1-8843-9BD652D5D076";
paths = (
{
closed = 1;
nodes = (
"1014 829 LINE SMOOTH",
"1053 752 OFFCURVE",
"1053 662 QCURVE SMOOTH",
"1053 574 OFFCURVE",
"1014 496 QCURVE SMOOTH",
"829 123 LINE SMOOTH",
"770 0 OFFCURVE",
"629 0 QCURVE SMOOTH",
"562 0 OFFCURVE",
"509 35 QCURVE SMOOTH",
"456 69 OFFCURVE",
"428 123 QCURVE SMOOTH",
"242 496 LINE SMOOTH",
"205 569 OFFCURVE",
"205 662 QCURVE SMOOTH",
"205 756 OFFCURVE",
"242 829 QCURVE SMOOTH",
"428 1206 LINE SMOOTH",
"491 1329 OFFCURVE",
"629 1329 QCURVE SMOOTH",
"769 1329 OFFCURVE",
"829 1206 QCURVE SMOOTH"
);
},
{
closed = 1;
nodes = (
"399 768 LINE SMOOTH",
"375 716 OFFCURVE",
"375 664 QCURVE SMOOTH",
"375 608 OFFCURVE",
"399 559 QCURVE SMOOTH",
"578 201 LINE",
"592 168 OFFCURVE",
"629 168 QCURVE SMOOTH",
"662 168 OFFCURVE",
"678 201 QCURVE SMOOTH",
"858 559 LINE SMOOTH",
"883 610 OFFCURVE",
"883 664 QCURVE SMOOTH",
"883 719 OFFCURVE",
"858 768 QCURVE SMOOTH",
"682 1122 LINE",
"666 1161 OFFCURVE",
"592 1161 OFFCURVE",
"573 1122 QCURVE SMOOTH"
);
},
{
closed = 1;
nodes = (
"618 1515 LINE",
"348 1390 LINE SMOOTH",
"330 1382 OFFCURVE",
"312 1382 QCURVE SMOOTH",
"276 1382 OFFCURVE",
"253 1409 QCURVE",
"229 1434 OFFCURVE",
"229 1468 QCURVE SMOOTH",
"229 1521 OFFCURVE",
"276 1544 QCURVE SMOOTH",
"582 1685 LINE",
"603 1693 OFFCURVE",
"618 1693 QCURVE SMOOTH",
"637 1693 OFFCURVE",
"655 1685 QCURVE SMOOTH",
"961 1544 LINE",
"1008 1520 OFFCURVE",
"1008 1468 QCURVE SMOOTH",
"1008 1435 OFFCURVE",
"985 1409 QCURVE SMOOTH",
"961 1382 OFFCURVE",
"925 1382 QCURVE SMOOTH",
"908 1382 OFFCURVE",
"889 1390 QCURVE SMOOTH"
);
}
);
width = 1237;
}
);
note = Ocircumflex;
unicode = 00D4;
},
{
glyphname = Otilde;
layers = (
{
layerId = "A424063B-2B4F-44F1-8843-9BD652D5D076";
paths = (
{
closed = 1;
nodes = (
"1014 829 LINE SMOOTH",
"1053 752 OFFCURVE",
"1053 662 QCURVE SMOOTH",
"1053 574 OFFCURVE",
"1014 496 QCURVE SMOOTH",
"829 123 LINE SMOOTH",
"770 0 OFFCURVE",
"629 0 QCURVE SMOOTH",
"562 0 OFFCURVE",
"509 35 QCURVE SMOOTH",
"456 69 OFFCURVE",
"428 123 QCURVE SMOOTH",
"242 496 LINE SMOOTH",
"205 569 OFFCURVE",
"205 662 QCURVE SMOOTH",
"205 756 OFFCURVE",
"242 829 QCURVE SMOOTH",
"428 1206 LINE SMOOTH",
"491 1329 OFFCURVE",
"629 1329 QCURVE SMOOTH",
"769 1329 OFFCURVE",
"829 1206 QCURVE SMOOTH"
);
},
{
closed = 1;
nodes = (
"399 768 LINE SMOOTH",
"375 716 OFFCURVE",
"375 664 QCURVE SMOOTH",
"375 608 OFFCURVE",
"399 559 QCURVE SMOOTH",
"578 201 LINE",
"592 168 OFFCURVE",
"629 168 QCURVE SMOOTH",
"662 168 OFFCURVE",
"678 201 QCURVE SMOOTH",
"858 559 LINE SMOOTH",
"883 610 OFFCURVE",
"883 664 QCURVE SMOOTH",
"883 719 OFFCURVE",
"858 768 QCURVE SMOOTH",
"682 1122 LINE",
"666 1161 OFFCURVE",
"592 1161 OFFCURVE",
"573 1122 QCURVE SMOOTH"
);
},
{
closed = 1;
nodes = (
"868 1444 LINE",
"838 1430 OFFCURVE",
"823 1430 QCURVE SMOOTH",
"770 1430 LINE SMOOTH",
"762 1430 OFFCURVE",
"743 1436 QCURVE SMOOTH",
"487 1522 LINE",
"463 1522 LINE",
"336 1444 LINE SMOOTH",
"313 1430 OFFCURVE",
"289 1430 QCURVE SMOOTH",
"256 1430 OFFCURVE",
"230 1457 QCURVE SMOOTH",
"205 1483 OFFCURVE",
"205 1519 QCURVE SMOOTH",
"205 1562 OFFCURVE",
"246 1588 QCURVE SMOOTH",
"397 1680 LINE SMOOTH",
"416 1692 OFFCURVE",
"442 1692 QCURVE SMOOTH",
"496 1692 LINE SMOOTH",
"511 1692 OFFCURVE",
"522 1688 QCURVE SMOOTH",
"784 1600 LINE",
"799 1600 LINE",
"930 1680 LINE SMOOTH",
"953 1694 OFFCURVE",
"976 1694 QCURVE SMOOTH",
"1010 1694 OFFCURVE",
"1036 1667 QCURVE SMOOTH",
"1061 1641 OFFCURVE",
"1061 1605 QCURVE SMOOTH",
"1061 1562 OFFCURVE",
"1020 1536 QCURVE SMOOTH"
);
}
);
width = 1237;
}
);
note = Otilde;
unicode = 00D5;
},
{
glyphname = Odieresis;
layers = (
{
layerId = "A424063B-2B4F-44F1-8843-9BD652D5D076";
paths = (
{
closed = 1;
nodes = (
"1014 829 LINE SMOOTH",
"1053 752 OFFCURVE",
"1053 662 QCURVE SMOOTH",
"1053 574 OFFCURVE",
"1014 496 QCURVE SMOOTH",
"829 123 LINE SMOOTH",
"770 0 OFFCURVE",
"629 0 QCURVE SMOOTH",
"562 0 OFFCURVE",
"509 35 QCURVE SMOOTH",
"456 69 OFFCURVE",
"428 123 QCURVE SMOOTH",
"242 496 LINE SMOOTH",
"205 569 OFFCURVE",
"205 662 QCURVE SMOOTH",
"205 756 OFFCURVE",
"242 829 QCURVE SMOOTH",
"428 1206 LINE SMOOTH",
"491 1329 OFFCURVE",
"629 1329 QCURVE SMOOTH",
"769 1329 OFFCURVE",
"829 1206 QCURVE SMOOTH"
);
},
{
closed = 1;
nodes = (
"399 768 LINE SMOOTH",
"375 716 OFFCURVE",
"375 664 QCURVE SMOOTH",
"375 608 OFFCURVE",
"399 559 QCURVE SMOOTH",
"578 201 LINE",
"592 168 OFFCURVE",
"629 168 QCURVE SMOOTH",
"662 168 OFFCURVE",
"678 201 QCURVE SMOOTH",
"858 559 LINE SMOOTH",
"883 610 OFFCURVE",
"883 664 QCURVE SMOOTH",
"883 719 OFFCURVE",
"858 768 QCURVE SMOOTH",
"682 1122 LINE",
"666 1161 OFFCURVE",
"592 1161 OFFCURVE",
"573 1122 QCURVE SMOOTH"
);
},
{
closed = 1;
nodes = (
"1049 1466 LINE SMOOTH",
"1049 1431 OFFCURVE",
"1025 1407 QCURVE SMOOTH",
"1000 1382 OFFCURVE",
"965 1382 QCURVE SMOOTH",
"929 1382 OFFCURVE",
"905 1407 QCURVE SMOOTH",
"881 1431 OFFCURVE",
"881 1466 QCURVE SMOOTH",
"881 1609 LINE SMOOTH",
"881 1645 OFFCURVE",
"906 1670 QCURVE SMOOTH",
"930 1695 OFFCURVE",
"965 1695 QCURVE SMOOTH",
"999 1695 OFFCURVE",
"1049 1645 OFFCURVE",
"1049 1609 QCURVE SMOOTH"
);
},
{
closed = 1;
nodes = (
"371 1466 LINE SMOOTH",
"371 1431 OFFCURVE",
"347 1407 QCURVE SMOOTH",
"322 1382 OFFCURVE",
"252 1382 OFFCURVE",
"228 1407 QCURVE",
"203 1431 OFFCURVE",
"203 1466 QCURVE SMOOTH",
"203 1609 LINE SMOOTH",
"203 1644 OFFCURVE",
"228 1669 QCURVE SMOOTH",
"252 1693 OFFCURVE",
"287 1693 QCURVE SMOOTH",
"322 1693 OFFCURVE",
"347 1669 QCURVE",
"371 1644 OFFCURVE",
"371 1609 QCURVE SMOOTH"
);
}
);
width = 1237;
}
);
note = Odieresis;
unicode = 00D6;
},
{
glyphname = multiply;
layers = (
{
layerId = "A424063B-2B4F-44F1-8843-9BD652D5D076";
paths = (
{
closed = 1;
nodes = (
"761 668 LINE",
"987 442 LINE",
"1013 418 OFFCURVE",
"1013 382 QCURVE SMOOTH",
"1013 347 OFFCURVE",
"988 322 QCURVE SMOOTH",
"962 296 OFFCURVE",
"894 296 OFFCURVE",
"868 322 QCURVE SMOOTH",
"640 549 LINE",
"415 322 LINE SMOOTH",
"390 298 OFFCURVE",
"355 298 QCURVE SMOOTH",
"318 298 OFFCURVE",
"296 323 QCURVE",
"272 348 OFFCURVE",
"272 416 OFFCURVE",
"296 440 QCURVE SMOOTH",
"522 668 LINE",
"296 893 LINE",
"273 918 OFFCURVE",
"273 950 QCURVE SMOOTH",
"273 986 OFFCURVE",
"299 1012 QCURVE SMOOTH",
"324 1037 OFFCURVE",
"394 1037 OFFCURVE",
"417 1014 QCURVE SMOOTH",
"642 786 LINE",
"868 1012 LINE SMOOTH",
"893 1037 OFFCURVE",
"929 1037 QCURVE SMOOTH",
"964 1037 OFFCURVE",
"988 1012 QCURVE SMOOTH",
"1012 986 OFFCURVE",
"1012 954 QCURVE SMOOTH",
"1012 918 OFFCURVE",
"987 893 QCURVE SMOOTH"
);
}
);
width = 1237;
}
);
note = multiply;
unicode = 00D7;
},
{
glyphname = Oslash;
layers = (
{
layerId = "A424063B-2B4F-44F1-8843-9BD652D5D076";
paths = (
{
closed = 1;
nodes = (
"451 1214 LINE SMOOTH",
"477 1268 OFFCURVE",
"532 1299 QCURVE SMOOTH",
"587 1331 OFFCURVE",
"650 1331 QCURVE SMOOTH",
"707 1331 OFFCURVE",
"823 1263 OFFCURVE",
"853 1192 QCURVE",
"910 1286 LINE SMOOTH",
"937 1331 OFFCURVE",
"984 1331 QCURVE SMOOTH",
"1020 1331 OFFCURVE",
"1044 1306 QCURVE SMOOTH",
"1068 1280 OFFCURVE",
"1068 1250 QCURVE SMOOTH",
"1068 1221 OFFCURVE",
"1049 1190 QCURVE SMOOTH",
"943 1010 LINE",
"1035 825 LINE SMOOTH",
"1070 753 OFFCURVE",
"1070 662 QCURVE SMOOTH",
"1070 574 OFFCURVE",
"1037 510 QCURVE SMOOTH",
"842 125 LINE SMOOTH",
"812 64 OFFCURVE",
"708 2 OFFCURVE",
"652 2 QCURVE SMOOTH",
"582 2 OFFCURVE",
"464 78 OFFCURVE",
"439 143 QCURVE",
"382 45 LINE SMOOTH",
"356 3 OFFCURVE",
"309 3 QCURVE SMOOTH",
"276 3 OFFCURVE",
"250 28 QCURVE",
"223 52 OFFCURVE",
"223 87 QCURVE SMOOTH",
"223 114 OFFCURVE",
"240 143 QCURVE SMOOTH",
"347 324 LINE",
"265 492 LINE SMOOTH",
"223 576 OFFCURVE",
"223 669 QCURVE SMOOTH",
"223 761 OFFCURVE",
"263 840 QCURVE SMOOTH"
);
},
{
closed = 1;
nodes = (
"412 758 LINE",
"392 713 OFFCURVE",
"392 672 QCURVE SMOOTH",
"392 599 OFFCURVE",
"451 502 QCURVE",
"752 1014 LINE",
"697 1126 LINE SMOOTH",
"679 1163 OFFCURVE",
"648 1163 QCURVE SMOOTH",
"615 1163 OFFCURVE",
"595 1122 QCURVE SMOOTH"
);
},
{
closed = 1;
nodes = (
"541 319 LINE",
"592 213 LINE SMOOTH",
"611 173 OFFCURVE",
"648 173 QCURVE SMOOTH",
"677 173 OFFCURVE",
"697 211 QCURVE SMOOTH",
"881 573 LINE SMOOTH",
"901 613 OFFCURVE",
"901 656 QCURVE SMOOTH",
"901 735 OFFCURVE",
"838 831 QCURVE"
);
}
);
width = 1237;
}
);
note = Oslash;
unicode = 00D8;
},
{
glyphname = Ugrave;
layers = (
{
layerId = "A424063B-2B4F-44F1-8843-9BD652D5D076";
paths = (
{
closed = 1;
nodes = (
"205 1243 LINE SMOOTH",
"205 1279 OFFCURVE",
"255 1329 OFFCURVE",
"323 1329 OFFCURVE",
"373 1279 OFFCURVE",
"373 1245 QCURVE SMOOTH",
"373 252 LINE SMOOTH",
"373 219 OFFCURVE",
"398 195 QCURVE SMOOTH",
"423 170 OFFCURVE",
"457 170 QCURVE SMOOTH",
"801 170 LINE SMOOTH",
"836 170 OFFCURVE",
"861 194 QCURVE SMOOTH",
"885 218 OFFCURVE",
"885 252 QCURVE SMOOTH",
"885 1243 LINE SMOOTH",
"885 1279 OFFCURVE",
"910 1304 QCURVE SMOOTH",
"934 1329 OFFCURVE",
"1004 1329 OFFCURVE",
"1029 1304 QCURVE",
"1053 1278 OFFCURVE",
"1053 1243 QCURVE SMOOTH",
"1053 254 LINE SMOOTH",
"1053 151 OFFCURVE",
"979 75 QCURVE SMOOTH",
"904 0 OFFCURVE",
"801 0 QCURVE SMOOTH",
"457 0 LINE SMOOTH",
"353 0 OFFCURVE",
"205 148 OFFCURVE",
"205 252 QCURVE SMOOTH"
);
},
{
closed = 1;
nodes = (
"807 1544 LINE",
"854 1520 OFFCURVE",
"854 1468 QCURVE SMOOTH",
"854 1435 OFFCURVE",
"831 1409 QCURVE SMOOTH",
"808 1382 OFFCURVE",
"772 1382 QCURVE SMOOTH",
"754 1382 OFFCURVE",
"735 1390 QCURVE SMOOTH",
"430 1531 LINE",
"383 1555 OFFCURVE",
"383 1607 QCURVE SMOOTH",
"383 1639 OFFCURVE",
"406 1667 QCURVE",
"429 1693 OFFCURVE",
"465 1693 QCURVE SMOOTH",
"483 1693 OFFCURVE",
"502 1685 QCURVE SMOOTH"
);
}
);
width = 1237;
}
);
note = Ugrave;
unicode = 00D9;
},
{
glyphname = Uacute;
layers = (
{
layerId = "A424063B-2B4F-44F1-8843-9BD652D5D076";
paths = (
{
closed = 1;
nodes = (
"205 1243 LINE SMOOTH",
"205 1279 OFFCURVE",
"255 1329 OFFCURVE",
"323 1329 OFFCURVE",
"373 1279 OFFCURVE",
"373 1245 QCURVE SMOOTH",
"373 252 LINE SMOOTH",
"373 219 OFFCURVE",
"398 195 QCURVE SMOOTH",
"423 170 OFFCURVE",
"457 170 QCURVE SMOOTH",
"801 170 LINE SMOOTH",
"836 170 OFFCURVE",
"861 194 QCURVE SMOOTH",
"885 218 OFFCURVE",
"885 252 QCURVE SMOOTH",
"885 1243 LINE SMOOTH",
"885 1279 OFFCURVE",
"910 1304 QCURVE SMOOTH",
"934 1329 OFFCURVE",
"1004 1329 OFFCURVE",
"1029 1304 QCURVE",
"1053 1278 OFFCURVE",
"1053 1243 QCURVE SMOOTH",
"1053 254 LINE SMOOTH",
"1053 151 OFFCURVE",
"979 75 QCURVE SMOOTH",
"904 0 OFFCURVE",
"801 0 QCURVE SMOOTH",
"457 0 LINE SMOOTH",
"353 0 OFFCURVE",
"205 148 OFFCURVE",
"205 252 QCURVE SMOOTH"
);
},
{
closed = 1;
nodes = (
"735 1685 LINE SMOOTH",
"754 1693 OFFCURVE",
"772 1693 QCURVE SMOOTH",
"808 1693 OFFCURVE",
"831 1667 QCURVE",
"854 1639 OFFCURVE",
"854 1607 QCURVE SMOOTH",
"854 1554 OFFCURVE",
"807 1531 QCURVE SMOOTH",
"502 1390 LINE SMOOTH",
"483 1382 OFFCURVE",
"465 1382 QCURVE SMOOTH",
"428 1382 OFFCURVE",
"406 1409 QCURVE",
"383 1435 OFFCURVE",
"383 1468 QCURVE SMOOTH",
"383 1521 OFFCURVE",
"430 1544 QCURVE SMOOTH"
);
}
);
width = 1237;
}
);
note = Uacute;
unicode = 00DA;
},
{
glyphname = Ucircumflex;
layers = (
{
layerId = "A424063B-2B4F-44F1-8843-9BD652D5D076";
paths = (
{
closed = 1;
nodes = (
"205 1243 LINE SMOOTH",
"205 1279 OFFCURVE",
"255 1329 OFFCURVE",
"323 1329 OFFCURVE",
"373 1279 OFFCURVE",
"373 1245 QCURVE SMOOTH",
"373 252 LINE SMOOTH",
"373 219 OFFCURVE",
"398 195 QCURVE SMOOTH",
"423 170 OFFCURVE",
"457 170 QCURVE SMOOTH",
"801 170 LINE SMOOTH",
"836 170 OFFCURVE",
"861 194 QCURVE SMOOTH",
"885 218 OFFCURVE",
"885 252 QCURVE SMOOTH",
"885 1243 LINE SMOOTH",
"885 1279 OFFCURVE",
"910 1304 QCURVE SMOOTH",
"934 1329 OFFCURVE",
"1004 1329 OFFCURVE",
"1029 1304 QCURVE",
"1053 1278 OFFCURVE",
"1053 1243 QCURVE SMOOTH",
"1053 254 LINE SMOOTH",
"1053 151 OFFCURVE",
"979 75 QCURVE SMOOTH",
"904 0 OFFCURVE",
"801 0 QCURVE SMOOTH",
"457 0 LINE SMOOTH",
"353 0 OFFCURVE",
"205 148 OFFCURVE",
"205 252 QCURVE SMOOTH"
);
},
{
closed = 1;
nodes = (
"618 1515 LINE",
"348 1390 LINE SMOOTH",
"330 1382 OFFCURVE",
"312 1382 QCURVE SMOOTH",
"276 1382 OFFCURVE",
"253 1409 QCURVE",
"229 1434 OFFCURVE",
"229 1468 QCURVE SMOOTH",
"229 1521 OFFCURVE",
"276 1544 QCURVE SMOOTH",
"582 1685 LINE",
"603 1693 OFFCURVE",
"618 1693 QCURVE SMOOTH",
"637 1693 OFFCURVE",
"655 1685 QCURVE SMOOTH",
"961 1544 LINE",
"1008 1520 OFFCURVE",
"1008 1468 QCURVE SMOOTH",
"1008 1435 OFFCURVE",
"985 1409 QCURVE SMOOTH",
"961 1382 OFFCURVE",
"925 1382 QCURVE SMOOTH",
"908 1382 OFFCURVE",
"889 1390 QCURVE SMOOTH"
);
}
);
width = 1237;
}
);
note = Ucircumflex;
unicode = 00DB;
},
{
glyphname = Udieresis;
layers = (
{
layerId = "A424063B-2B4F-44F1-8843-9BD652D5D076";
paths = (
{
closed = 1;
nodes = (
"205 1243 LINE SMOOTH",
"205 1279 OFFCURVE",
"255 1329 OFFCURVE",
"323 1329 OFFCURVE",
"373 1279 OFFCURVE",
"373 1245 QCURVE SMOOTH",
"373 252 LINE SMOOTH",
"373 219 OFFCURVE",
"398 195 QCURVE SMOOTH",
"423 170 OFFCURVE",
"457 170 QCURVE SMOOTH",
"801 170 LINE SMOOTH",
"836 170 OFFCURVE",
"861 194 QCURVE SMOOTH",
"885 218 OFFCURVE",
"885 252 QCURVE SMOOTH",
"885 1243 LINE SMOOTH",
"885 1279 OFFCURVE",
"910 1304 QCURVE SMOOTH",
"934 1329 OFFCURVE",
"1004 1329 OFFCURVE",
"1029 1304 QCURVE",
"1053 1278 OFFCURVE",
"1053 1243 QCURVE SMOOTH",
"1053 254 LINE SMOOTH",
"1053 151 OFFCURVE",
"979 75 QCURVE SMOOTH",
"904 0 OFFCURVE",
"801 0 QCURVE SMOOTH",
"457 0 LINE SMOOTH",
"353 0 OFFCURVE",
"205 148 OFFCURVE",
"205 252 QCURVE SMOOTH"
);
},
{
closed = 1;
nodes = (
"1049 1466 LINE SMOOTH",
"1049 1431 OFFCURVE",
"1025 1407 QCURVE SMOOTH",
"1000 1382 OFFCURVE",
"965 1382 QCURVE SMOOTH",
"929 1382 OFFCURVE",
"905 1407 QCURVE SMOOTH",
"881 1431 OFFCURVE",
"881 1466 QCURVE SMOOTH",
"881 1609 LINE SMOOTH",
"881 1645 OFFCURVE",
"906 1670 QCURVE SMOOTH",
"930 1695 OFFCURVE",
"965 1695 QCURVE SMOOTH",
"999 1695 OFFCURVE",
"1049 1645 OFFCURVE",
"1049 1609 QCURVE SMOOTH"
);
},
{
closed = 1;
nodes = (
"371 1466 LINE SMOOTH",
"371 1431 OFFCURVE",
"347 1407 QCURVE SMOOTH",
"322 1382 OFFCURVE",
"252 1382 OFFCURVE",
"228 1407 QCURVE",
"203 1431 OFFCURVE",
"203 1466 QCURVE SMOOTH",
"203 1609 LINE SMOOTH",
"203 1644 OFFCURVE",
"228 1669 QCURVE SMOOTH",
"252 1693 OFFCURVE",
"287 1693 QCURVE SMOOTH",
"322 1693 OFFCURVE",
"347 1669 QCURVE",
"371 1644 OFFCURVE",
"371 1609 QCURVE SMOOTH"
);
}
);
width = 1237;
}
);
note = Udieresis;
unicode = 00DC;
},
{
glyphname = Yacute;
layers = (
{
layerId = "A424063B-2B4F-44F1-8843-9BD652D5D076";
paths = (
{
closed = 1;
nodes = (
"717 637 LINE",
"717 84 LINE SMOOTH",
"717 49 OFFCURVE",
"692 25 QCURVE SMOOTH",
"667 0 OFFCURVE",
"633 0 QCURVE SMOOTH",
"597 0 OFFCURVE",
"572 25 QCURVE SMOOTH",
"547 49 OFFCURVE",
"547 84 QCURVE SMOOTH",
"547 637 LINE",
"209 1065 LINE",
"209 1243 LINE SMOOTH",
"209 1279 OFFCURVE",
"234 1304 QCURVE SMOOTH",
"258 1329 OFFCURVE",
"293 1329 QCURVE SMOOTH",
"329 1329 OFFCURVE",
"379 1279 OFFCURVE",
"379 1243 QCURVE SMOOTH",
"379 1128 LINE",
"631 803 LINE",
"887 1126 LINE",
"887 1243 LINE SMOOTH",
"887 1279 OFFCURVE",
"937 1329 OFFCURVE",
"971 1329 QCURVE SMOOTH",
"1004 1329 OFFCURVE",
"1030 1306 QCURVE",
"1055 1282 OFFCURVE",
"1055 1243 QCURVE SMOOTH",
"1055 1067 OFFCURVE",
"1055 1067 QCURVE"
);
},
{
closed = 1;
nodes = (
"858 1685 LINE SMOOTH",
"877 1693 OFFCURVE",
"895 1693 QCURVE SMOOTH",
"931 1693 OFFCURVE",
"954 1667 QCURVE",
"977 1639 OFFCURVE",
"977 1607 QCURVE SMOOTH",
"977 1554 OFFCURVE",
"930 1531 QCURVE SMOOTH",
"625 1390 LINE SMOOTH",
"606 1382 OFFCURVE",
"588 1382 QCURVE SMOOTH",
"552 1382 OFFCURVE",
"529 1409 QCURVE SMOOTH",
"506 1435 OFFCURVE",
"506 1468 QCURVE SMOOTH",
"506 1521 OFFCURVE",
"553 1544 QCURVE SMOOTH"
);
}
);
width = 1237;
}
);
note = Yacute;
unicode = 00DD;
},
{
glyphname = Thorn;
layers = (
{
layerId = "A424063B-2B4F-44F1-8843-9BD652D5D076";
paths = (
{
closed = 1;
nodes = (
"1055 565 LINE SMOOTH",
"1055 461 OFFCURVE",
"907 313 OFFCURVE",
"803 313 QCURVE SMOOTH",
"377 313 LINE",
"377 84 LINE SMOOTH",
"377 49 OFFCURVE",
"353 25 QCURVE SMOOTH",
"328 0 OFFCURVE",
"293 0 QCURVE SMOOTH",
"257 0 OFFCURVE",
"232 25 QCURVE SMOOTH",
"207 49 OFFCURVE",
"207 84 QCURVE SMOOTH",
"207 1245 LINE SMOOTH",
"207 1280 OFFCURVE",
"232 1305 QCURVE",
"258 1329 OFFCURVE",
"293 1329 QCURVE SMOOTH",
"328 1329 OFFCURVE",
"353 1305 QCURVE",
"377 1280 OFFCURVE",
"377 1245 QCURVE SMOOTH",
"377 965 LINE",
"803 965 LINE SMOOTH",
"906 965 OFFCURVE",
"981 890 QCURVE SMOOTH",
"1055 814 OFFCURVE",
"1055 711 QCURVE SMOOTH"
);
},
{
closed = 1;
nodes = (
"887 711 LINE SMOOTH",
"887 745 OFFCURVE",
"837 795 OFFCURVE",
"803 795 QCURVE SMOOTH",
"377 795 LINE",
"377 481 LINE",
"803 481 LINE SMOOTH",
"837 481 OFFCURVE",
"887 531 OFFCURVE",
"887 565 QCURVE SMOOTH"
);
}
);
width = 1237;
}
);
note = Thorn;
unicode = 00DE;
},
{
glyphname = germandbls;
layers = (
{
layerId = "A424063B-2B4F-44F1-8843-9BD652D5D076";
paths = (
{
closed = 1;
nodes = (
"920 504 LINE SMOOTH",
"1003 429 OFFCURVE",
"1027 376 QCURVE SMOOTH",
"1053 319 OFFCURVE",
"1053 258 QCURVE SMOOTH",
"1053 150 OFFCURVE",
"976 75 QCURVE SMOOTH",
"900 0 OFFCURVE",
"803 0 QCURVE SMOOTH",
"750 0 LINE SMOOTH",
"662 0 OFFCURVE",
"586 53 QCURVE SMOOTH",
"510 105 OFFCURVE",
"510 156 QCURVE SMOOTH",
"510 190 OFFCURVE",
"560 240 OFFCURVE",
"598 240 QCURVE SMOOTH",
"630 240 OFFCURVE",
"667 204 QCURVE SMOOTH",
"703 168 OFFCURVE",
"772 168 QCURVE SMOOTH",
"799 168 LINE SMOOTH",
"837 168 OFFCURVE",
"859 196 QCURVE SMOOTH",
"882 225 OFFCURVE",
"882 264 QCURVE SMOOTH",
"882 315 OFFCURVE",
"850 344 QCURVE SMOOTH",
"653 524 LINE SMOOTH",
"574 597 OFFCURVE",
"552 627 QCURVE SMOOTH",
"530 655 OFFCURVE",
"530 700 QCURVE SMOOTH",
"530 781 OFFCURVE",
"631 834 QCURVE SMOOTH",
"793 918 LINE SMOOTH",
"855 952 OFFCURVE",
"869 964 QCURVE",
"885 979 OFFCURVE",
"885 1009 QCURVE SMOOTH",
"885 1065 OFFCURVE",
"854 1090 QCURVE SMOOTH",
"795 1137 LINE SMOOTH",
"765 1161 OFFCURVE",
"725 1161 QCURVE SMOOTH",
"551 1161 LINE SMOOTH",
"495 1161 OFFCURVE",
"463 1135 QCURVE",
"406 1085 LINE",
"375 1060 OFFCURVE",
"375 1018 QCURVE SMOOTH",
"375 84 LINE SMOOTH",
"375 50 OFFCURVE",
"325 0 OFFCURVE",
"257 0 OFFCURVE",
"205 52 OFFCURVE",
"205 84 QCURVE SMOOTH",
"205 1026 LINE SMOOTH",
"205 1126 OFFCURVE",
"265 1188 QCURVE SMOOTH",
"325 1250 OFFCURVE",
"382 1289 QCURVE SMOOTH",
"438 1329 OFFCURVE",
"530 1329 QCURVE SMOOTH",
"727 1329 LINE SMOOTH",
"841 1331 OFFCURVE",
"1053 1139 OFFCURVE",
"1053 1024 QCURVE SMOOTH",
"1053 934 OFFCURVE",
"977 852 OFFCURVE",
"874 799 QCURVE SMOOTH",
"774 748 LINE SMOOTH",
"708 714 OFFCURVE",
"708 699 QCURVE SMOOTH",
"708 694 OFFCURVE",
"743 662 QCURVE SMOOTH"
);
}
);
width = 1237;
}
);
note = germandbls;
unicode = 00DF;
},
{
glyphname = agrave;
layers = (
{
layerId = "A424063B-2B4F-44F1-8843-9BD652D5D076";
paths = (
{
closed = 1;
nodes = (
"786 606 LINE SMOOTH",
"813 606 OFFCURVE",
"864 594 QCURVE",
"862 713 LINE",
"862 748 OFFCURVE",
"838 773 QCURVE",
"812 797 OFFCURVE",
"778 797 QCURVE SMOOTH",
"459 797 LINE SMOOTH",
"425 797 OFFCURVE",
"375 847 OFFCURVE",
"375 881 QCURVE SMOOTH",
"375 916 OFFCURVE",
"400 941 QCURVE SMOOTH",
"424 965 OFFCURVE",
"459 965 QCURVE SMOOTH",
"778 965 LINE SMOOTH",
"883 965 OFFCURVE",
"1029 819 OFFCURVE",
"1032 713 QCURVE SMOOTH",
"1053 84 LINE SMOOTH",
"1053 49 OFFCURVE",
"1028 25 QCURVE SMOOTH",
"1003 0 OFFCURVE",
"969 0 QCURVE SMOOTH",
"933 0 OFFCURVE",
"908 25 QCURVE SMOOTH",
"883 49 OFFCURVE",
"883 84 QCURVE",
"741 0 LINE",
"457 0 LINE SMOOTH",
"351 0 OFFCURVE",
"203 148 OFFCURVE",
"203 254 QCURVE SMOOTH",
"203 352 OFFCURVE",
"203 352 QCURVE",
"203 457 OFFCURVE",
"278 532 QCURVE SMOOTH",
"352 606 OFFCURVE",
"457 606 QCURVE SMOOTH"
);
},
{
closed = 1;
nodes = (
"877 279 LINE",
"872 350 LINE SMOOTH",
"870 387 OFFCURVE",
"847 410 QCURVE SMOOTH",
"823 434 OFFCURVE",
"788 434 QCURVE SMOOTH",
"457 434 LINE SMOOTH",
"422 434 OFFCURVE",
"398 410 QCURVE SMOOTH",
"373 385 OFFCURVE",
"373 350 QCURVE SMOOTH",
"373 256 LINE SMOOTH",
"373 222 OFFCURVE",
"423 172 OFFCURVE",
"457 172 QCURVE SMOOTH",
"694 172 LINE"
);
},
{
closed = 1;
nodes = (
"807 1180 LINE",
"854 1156 OFFCURVE",
"854 1104 QCURVE SMOOTH",
"854 1071 OFFCURVE",
"831 1045 QCURVE SMOOTH",
"808 1018 OFFCURVE",
"772 1018 QCURVE SMOOTH",
"754 1018 OFFCURVE",
"735 1026 QCURVE SMOOTH",
"430 1167 LINE",
"383 1191 OFFCURVE",
"383 1243 QCURVE SMOOTH",
"383 1275 OFFCURVE",
"406 1303 QCURVE",
"429 1329 OFFCURVE",
"465 1329 QCURVE SMOOTH",
"483 1329 OFFCURVE",
"502 1321 QCURVE SMOOTH"
);
}
);
width = 1237;
}
);
note = agrave;
unicode = 00E0;
},
{
glyphname = aacute;
layers = (
{
layerId = "A424063B-2B4F-44F1-8843-9BD652D5D076";
paths = (
{
closed = 1;
nodes = (
"786 606 LINE SMOOTH",
"813 606 OFFCURVE",
"864 594 QCURVE",
"862 713 LINE",
"862 748 OFFCURVE",
"838 773 QCURVE",
"812 797 OFFCURVE",
"778 797 QCURVE SMOOTH",
"459 797 LINE SMOOTH",
"425 797 OFFCURVE",
"375 847 OFFCURVE",
"375 881 QCURVE SMOOTH",
"375 916 OFFCURVE",
"400 941 QCURVE SMOOTH",
"424 965 OFFCURVE",
"459 965 QCURVE SMOOTH",
"778 965 LINE SMOOTH",
"883 965 OFFCURVE",
"1029 819 OFFCURVE",
"1032 713 QCURVE SMOOTH",
"1053 84 LINE SMOOTH",
"1053 49 OFFCURVE",
"1028 25 QCURVE SMOOTH",
"1003 0 OFFCURVE",
"969 0 QCURVE SMOOTH",
"933 0 OFFCURVE",
"908 25 QCURVE SMOOTH",
"883 49 OFFCURVE",
"883 84 QCURVE",
"741 0 LINE",
"457 0 LINE SMOOTH",
"351 0 OFFCURVE",
"203 148 OFFCURVE",
"203 254 QCURVE SMOOTH",
"203 352 OFFCURVE",
"203 352 QCURVE",
"203 457 OFFCURVE",
"278 532 QCURVE SMOOTH",
"352 606 OFFCURVE",
"457 606 QCURVE SMOOTH"
);
},
{
closed = 1;
nodes = (
"877 279 LINE",
"872 350 LINE SMOOTH",
"870 387 OFFCURVE",
"847 410 QCURVE SMOOTH",
"823 434 OFFCURVE",
"788 434 QCURVE SMOOTH",
"457 434 LINE SMOOTH",
"422 434 OFFCURVE",
"398 410 QCURVE SMOOTH",
"373 385 OFFCURVE",
"373 350 QCURVE SMOOTH",
"373 256 LINE SMOOTH",
"373 222 OFFCURVE",
"423 172 OFFCURVE",
"457 172 QCURVE SMOOTH",
"694 172 LINE"
);
},
{
closed = 1;
nodes = (
"735 1321 LINE SMOOTH",
"754 1329 OFFCURVE",
"772 1329 QCURVE SMOOTH",
"808 1329 OFFCURVE",
"831 1303 QCURVE",
"854 1275 OFFCURVE",
"854 1243 QCURVE SMOOTH",
"854 1190 OFFCURVE",
"807 1167 QCURVE SMOOTH",
"502 1026 LINE SMOOTH",
"483 1018 OFFCURVE",
"465 1018 QCURVE SMOOTH",
"428 1018 OFFCURVE",
"406 1045 QCURVE",
"383 1071 OFFCURVE",
"383 1104 QCURVE SMOOTH",
"383 1157 OFFCURVE",
"430 1180 QCURVE SMOOTH"
);
}
);
width = 1237;
}
);
note = aacute;
unicode = 00E1;
},
{
glyphname = acircumflex;
layers = (
{
layerId = "A424063B-2B4F-44F1-8843-9BD652D5D076";
paths = (
{
closed = 1;
nodes = (
"786 606 LINE SMOOTH",
"813 606 OFFCURVE",
"864 594 QCURVE",
"862 713 LINE",
"862 748 OFFCURVE",
"838 773 QCURVE",
"812 797 OFFCURVE",
"778 797 QCURVE SMOOTH",
"459 797 LINE SMOOTH",
"425 797 OFFCURVE",
"375 847 OFFCURVE",
"375 881 QCURVE SMOOTH",
"375 916 OFFCURVE",
"400 941 QCURVE SMOOTH",
"424 965 OFFCURVE",
"459 965 QCURVE SMOOTH",
"778 965 LINE SMOOTH",
"883 965 OFFCURVE",
"1029 819 OFFCURVE",
"1032 713 QCURVE SMOOTH",
"1053 84 LINE SMOOTH",
"1053 49 OFFCURVE",
"1028 25 QCURVE SMOOTH",
"1003 0 OFFCURVE",
"969 0 QCURVE SMOOTH",
"933 0 OFFCURVE",
"908 25 QCURVE SMOOTH",
"883 49 OFFCURVE",
"883 84 QCURVE",
"741 0 LINE",
"457 0 LINE SMOOTH",
"351 0 OFFCURVE",
"203 148 OFFCURVE",
"203 254 QCURVE SMOOTH",
"203 352 OFFCURVE",
"203 352 QCURVE",
"203 457 OFFCURVE",
"278 532 QCURVE SMOOTH",
"352 606 OFFCURVE",
"457 606 QCURVE SMOOTH"
);
},
{
closed = 1;
nodes = (
"877 279 LINE",
"872 350 LINE SMOOTH",
"870 387 OFFCURVE",
"847 410 QCURVE SMOOTH",
"823 434 OFFCURVE",
"788 434 QCURVE SMOOTH",
"457 434 LINE SMOOTH",
"422 434 OFFCURVE",
"398 410 QCURVE SMOOTH",
"373 385 OFFCURVE",
"373 350 QCURVE SMOOTH",
"373 256 LINE SMOOTH",
"373 222 OFFCURVE",
"423 172 OFFCURVE",
"457 172 QCURVE SMOOTH",
"694 172 LINE"
);
},
{
closed = 1;
nodes = (
"618 1151 LINE",
"348 1026 LINE SMOOTH",
"330 1018 OFFCURVE",
"312 1018 QCURVE SMOOTH",
"276 1018 OFFCURVE",
"253 1045 QCURVE",
"229 1070 OFFCURVE",
"229 1104 QCURVE SMOOTH",
"229 1157 OFFCURVE",
"276 1180 QCURVE SMOOTH",
"582 1321 LINE",
"603 1329 OFFCURVE",
"618 1329 QCURVE SMOOTH",
"637 1329 OFFCURVE",
"655 1321 QCURVE SMOOTH",
"961 1180 LINE",
"1008 1156 OFFCURVE",
"1008 1104 QCURVE SMOOTH",
"1008 1071 OFFCURVE",
"985 1045 QCURVE SMOOTH",
"961 1018 OFFCURVE",
"925 1018 QCURVE SMOOTH",
"908 1018 OFFCURVE",
"889 1026 QCURVE SMOOTH"
);
}
);
width = 1237;
}
);
note = acircumflex;
unicode = 00E2;
},
{
glyphname = atilde;
layers = (
{
layerId = "A424063B-2B4F-44F1-8843-9BD652D5D076";
paths = (
{
closed = 1;
nodes = (
"786 606 LINE SMOOTH",
"813 606 OFFCURVE",
"864 594 QCURVE",
"862 713 LINE",
"862 748 OFFCURVE",
"838 773 QCURVE",
"812 797 OFFCURVE",
"778 797 QCURVE SMOOTH",
"459 797 LINE SMOOTH",
"425 797 OFFCURVE",
"375 847 OFFCURVE",
"375 881 QCURVE SMOOTH",
"375 916 OFFCURVE",
"400 941 QCURVE SMOOTH",
"424 965 OFFCURVE",
"459 965 QCURVE SMOOTH",
"778 965 LINE SMOOTH",
"883 965 OFFCURVE",
"1029 819 OFFCURVE",
"1032 713 QCURVE SMOOTH",
"1053 84 LINE SMOOTH",
"1053 49 OFFCURVE",
"1028 25 QCURVE SMOOTH",
"1003 0 OFFCURVE",
"969 0 QCURVE SMOOTH",
"933 0 OFFCURVE",
"908 25 QCURVE SMOOTH",
"883 49 OFFCURVE",
"883 84 QCURVE",
"741 0 LINE",
"457 0 LINE SMOOTH",
"351 0 OFFCURVE",
"203 148 OFFCURVE",
"203 254 QCURVE SMOOTH",
"203 352 OFFCURVE",
"203 352 QCURVE",
"203 457 OFFCURVE",
"278 532 QCURVE SMOOTH",
"352 606 OFFCURVE",
"457 606 QCURVE SMOOTH"
);
},
{
closed = 1;
nodes = (
"877 279 LINE",
"872 350 LINE SMOOTH",
"870 387 OFFCURVE",
"847 410 QCURVE SMOOTH",
"823 434 OFFCURVE",
"788 434 QCURVE SMOOTH",
"457 434 LINE SMOOTH",
"422 434 OFFCURVE",
"398 410 QCURVE SMOOTH",
"373 385 OFFCURVE",
"373 350 QCURVE SMOOTH",
"373 256 LINE SMOOTH",
"373 222 OFFCURVE",
"423 172 OFFCURVE",
"457 172 QCURVE SMOOTH",
"694 172 LINE"
);
},
{
closed = 1;
nodes = (
"868 1079 LINE",
"838 1065 OFFCURVE",
"823 1065 QCURVE SMOOTH",
"770 1065 LINE SMOOTH",
"762 1065 OFFCURVE",
"743 1071 QCURVE SMOOTH",
"487 1157 LINE",
"463 1157 LINE",
"336 1079 LINE SMOOTH",
"313 1065 OFFCURVE",
"289 1065 QCURVE SMOOTH",
"256 1065 OFFCURVE",
"230 1092 QCURVE SMOOTH",
"205 1118 OFFCURVE",
"205 1154 QCURVE SMOOTH",
"205 1197 OFFCURVE",
"246 1223 QCURVE SMOOTH",
"397 1315 LINE SMOOTH",
"416 1327 OFFCURVE",
"442 1327 QCURVE SMOOTH",
"496 1327 LINE SMOOTH",
"511 1327 OFFCURVE",
"522 1323 QCURVE SMOOTH",
"784 1235 LINE",
"799 1235 LINE",
"930 1315 LINE SMOOTH",
"953 1329 OFFCURVE",
"976 1329 QCURVE SMOOTH",
"1010 1329 OFFCURVE",
"1036 1302 QCURVE SMOOTH",
"1061 1276 OFFCURVE",
"1061 1240 QCURVE SMOOTH",
"1061 1197 OFFCURVE",
"1020 1171 QCURVE SMOOTH"
);
}
);
width = 1237;
}
);
note = atilde;
unicode = 00E3;
},
{
glyphname = adieresis;
layers = (
{
layerId = "A424063B-2B4F-44F1-8843-9BD652D5D076";
paths = (
{
closed = 1;
nodes = (
"786 606 LINE SMOOTH",
"813 606 OFFCURVE",
"864 594 QCURVE",
"862 713 LINE",
"862 748 OFFCURVE",
"838 773 QCURVE",
"812 797 OFFCURVE",
"778 797 QCURVE SMOOTH",
"459 797 LINE SMOOTH",
"425 797 OFFCURVE",
"375 847 OFFCURVE",
"375 881 QCURVE SMOOTH",
"375 916 OFFCURVE",
"400 941 QCURVE SMOOTH",
"424 965 OFFCURVE",
"459 965 QCURVE SMOOTH",
"778 965 LINE SMOOTH",
"883 965 OFFCURVE",
"1029 819 OFFCURVE",
"1032 713 QCURVE SMOOTH",
"1053 84 LINE SMOOTH",
"1053 49 OFFCURVE",
"1028 25 QCURVE SMOOTH",
"1003 0 OFFCURVE",
"969 0 QCURVE SMOOTH",
"933 0 OFFCURVE",
"908 25 QCURVE SMOOTH",
"883 49 OFFCURVE",
"883 84 QCURVE",
"741 0 LINE",
"457 0 LINE SMOOTH",
"351 0 OFFCURVE",
"203 148 OFFCURVE",
"203 254 QCURVE SMOOTH",
"203 352 OFFCURVE",
"203 352 QCURVE",
"203 457 OFFCURVE",
"278 532 QCURVE SMOOTH",
"352 606 OFFCURVE",
"457 606 QCURVE SMOOTH"
);
},
{
closed = 1;
nodes = (
"877 279 LINE",
"872 350 LINE SMOOTH",
"870 387 OFFCURVE",
"847 410 QCURVE SMOOTH",
"823 434 OFFCURVE",
"788 434 QCURVE SMOOTH",
"457 434 LINE SMOOTH",
"422 434 OFFCURVE",
"398 410 QCURVE SMOOTH",
"373 385 OFFCURVE",
"373 350 QCURVE SMOOTH",
"373 256 LINE SMOOTH",
"373 222 OFFCURVE",
"423 172 OFFCURVE",
"457 172 QCURVE SMOOTH",
"694 172 LINE"
);
},
{
closed = 1;
nodes = (
"1049 1102 LINE SMOOTH",
"1049 1067 OFFCURVE",
"1025 1043 QCURVE SMOOTH",
"1000 1018 OFFCURVE",
"965 1018 QCURVE SMOOTH",
"929 1018 OFFCURVE",
"905 1043 QCURVE SMOOTH",
"881 1067 OFFCURVE",
"881 1102 QCURVE SMOOTH",
"881 1245 LINE SMOOTH",
"881 1281 OFFCURVE",
"906 1306 QCURVE SMOOTH",
"930 1331 OFFCURVE",
"965 1331 QCURVE SMOOTH",
"999 1331 OFFCURVE",
"1049 1281 OFFCURVE",
"1049 1245 QCURVE SMOOTH"
);
},
{
closed = 1;
nodes = (
"371 1102 LINE SMOOTH",
"371 1067 OFFCURVE",
"347 1043 QCURVE SMOOTH",
"322 1018 OFFCURVE",
"252 1018 OFFCURVE",
"228 1043 QCURVE",
"203 1067 OFFCURVE",
"203 1102 QCURVE SMOOTH",
"203 1245 LINE SMOOTH",
"203 1280 OFFCURVE",
"228 1305 QCURVE SMOOTH",
"252 1329 OFFCURVE",
"287 1329 QCURVE SMOOTH",
"322 1329 OFFCURVE",
"347 1305 QCURVE",
"371 1280 OFFCURVE",
"371 1245 QCURVE SMOOTH"
);
}
);
width = 1237;
}
);
note = adieresis;
unicode = 00E4;
},
